<svg width="153" height="126" viewBox="0 0 153 126" fill="none" xmlns="http://www.w3.org/2000/svg">
<path d="M88 116.394C88 121.356 83.9791 125.394 79 125.394C74.0209 125.394 70 121.373 70 116.394C70 111.414 74.0209 107.394 79 107.394C83.9791 107.394 88 111.414 88 116.394Z" fill="url(#paint0_radial_2415_447)"/>
<g filter="url(#filter0_d_2415_447)">
<path d="M78.9508 53.0139C69.1605 53.0139 61.2311 60.9407 61.2311 70.728C61.2311 84.9842 71.7295 88.442 78.9508 112.971C86.152 88.442 96.6705 85.0044 96.6705 70.728C96.6705 60.9407 88.7412 53.0139 78.9508 53.0139Z" fill="white"/>
</g>
<g style="mix-blend-mode:multiply">
<path d="M93.7915 74.2194C95.7208 66.0226 90.6377 57.8143 82.4382 55.8857C74.2387 53.9571 66.0278 59.0385 64.0986 67.2354C62.1694 75.4322 67.2525 83.6406 75.4519 85.5692C83.6514 87.4978 91.8623 82.4163 93.7915 74.2194Z" fill="#BFBFBF"/>
</g>
<g filter="url(#filter1_d_2415_447)">
<path d="M90.683 70.7078C90.683 77.1787 85.444 82.4161 78.971 82.4161C72.4981 82.4161 67.259 77.1787 67.259 70.7078C67.259 64.2369 72.4981 58.9995 78.971 58.9995C85.444 58.9995 90.683 64.2369 90.683 70.7078Z" fill="white"/>
</g>
<path d="M78.9508 79.8481C84.0004 79.8481 88.0938 75.756 88.0938 70.708C88.0938 65.6601 84.0004 61.5679 78.9508 61.5679C73.9013 61.5679 69.8078 65.6601 69.8078 70.708C69.8078 75.756 73.9013 79.8481 78.9508 79.8481Z" fill="url(#paint1_radial_2415_447)"/>
<g filter="url(#filter2_d_2415_447)">
<rect x="14" y="3.39355" width="129" height="40" rx="12" fill="#326CE2" shape-rendering="crispEdges"/>
<path d="M33.0185 17.3026V30.3936H29.8608V20.2558H29.7841L26.8565 22.0455V19.3097L30.0845 17.3026H33.0185ZM41.3265 30.7132C40.1845 30.7132 39.2001 30.4426 38.3734 29.9014C37.5467 29.3559 36.9096 28.574 36.4622 27.5555C36.0147 26.5328 35.7931 25.3034 35.7974 23.8673C35.8017 22.4312 36.0254 21.2124 36.4686 20.211C36.916 19.2053 37.551 18.4404 38.3734 17.9163C39.2001 17.3879 40.1845 17.1237 41.3265 17.1237C42.4686 17.1237 43.4529 17.3879 44.2797 17.9163C45.1106 18.4404 45.7498 19.2053 46.1973 20.211C46.6447 21.2167 46.8663 22.4355 46.862 23.8673C46.862 25.3076 46.6383 26.5392 46.1909 27.5619C45.7434 28.5846 45.1064 29.3666 44.2797 29.9078C43.4572 30.4447 42.4728 30.7132 41.3265 30.7132ZM41.3265 28.1244C42.0083 28.1244 42.5602 27.7771 42.9821 27.0825C43.4039 26.3836 43.6127 25.3119 43.6085 23.8673C43.6085 22.9213 43.5126 22.1414 43.3208 21.5278C43.1291 20.9099 42.8627 20.4497 42.5218 20.1471C42.1809 19.8445 41.7825 19.6933 41.3265 19.6933C40.649 19.6933 40.1014 20.0363 39.6838 20.7224C39.2662 21.4042 39.0552 22.4525 39.051 23.8673C39.0467 24.8261 39.1383 25.6208 39.3258 26.2515C39.5176 26.8822 39.786 27.3531 40.1312 27.6642C40.4764 27.971 40.8748 28.1244 41.3265 28.1244ZM53.7575 30.3936V20.5754H55.6687V30.3936H53.7575ZM54.7227 19.0605C54.3903 19.0605 54.1048 18.9497 53.8661 18.7281C53.6317 18.5022 53.5146 18.2338 53.5146 17.9227C53.5146 17.6073 53.6317 17.3389 53.8661 17.1173C54.1048 16.8914 54.3903 16.7785 54.7227 16.7785C55.055 16.7785 55.3384 16.8914 55.5728 17.1173C55.8114 17.3389 55.9308 17.6073 55.9308 17.9227C55.9308 18.2338 55.8114 18.5022 55.5728 18.7281C55.3384 18.9497 55.055 19.0605 54.7227 19.0605ZM60.1511 24.564V30.3936H58.2399V20.5754H60.0744V22.1734H60.1958C60.4217 21.6535 60.7754 21.2359 61.2569 20.9205C61.7427 20.6052 62.3542 20.4475 63.0914 20.4475C63.7605 20.4475 64.3464 20.5882 64.8493 20.8694C65.3521 21.1464 65.742 21.5597 66.019 22.1095C66.296 22.6592 66.4345 23.3389 66.4345 24.1485V30.3936H64.5233V24.3786C64.5233 23.667 64.3379 23.1109 63.9672 22.7103C63.5964 22.3055 63.0872 22.1031 62.4395 22.1031C61.9963 22.1031 61.6021 22.199 61.2569 22.3907C60.916 22.5825 60.6454 22.8637 60.4451 23.2345C60.2491 23.6009 60.1511 24.0441 60.1511 24.564ZM75.0206 30.3936H72.924L77.6349 17.3026H79.9169L84.6278 30.3936H82.5312L78.8303 19.6805H78.728L75.0206 30.3936ZM75.3722 25.2671H82.1733V26.9291H75.3722V25.2671ZM93.6518 22.9724L91.9196 23.2792C91.8471 23.0576 91.7321 22.8467 91.5744 22.6464C91.421 22.4461 91.2122 22.282 90.948 22.1542C90.6838 22.0264 90.3535 21.9624 89.9572 21.9624C89.416 21.9624 88.9643 22.0839 88.6021 22.3268C88.2399 22.5654 88.0588 22.8744 88.0588 23.2536C88.0588 23.5818 88.1802 23.846 88.4231 24.0463C88.666 24.2465 89.0581 24.4106 89.5993 24.5384L91.1589 24.8964C92.0623 25.1052 92.7356 25.4269 93.1788 25.8616C93.622 26.2963 93.8436 26.8609 93.8436 27.5555C93.8436 28.1436 93.6731 28.6677 93.3322 29.1279C92.9956 29.5839 92.5247 29.9419 91.9196 30.2018C91.3187 30.4617 90.622 30.5917 89.8294 30.5917C88.7299 30.5917 87.8329 30.3573 87.1383 29.8886C86.4437 29.4156 86.0176 28.7444 85.8599 27.8751L87.7072 27.5938C87.8223 28.0754 88.0588 28.4397 88.4167 28.6869C88.7747 28.9298 89.2413 29.0512 89.8166 29.0512C90.443 29.0512 90.9437 28.9213 91.3187 28.6613C91.6937 28.3971 91.8812 28.0754 91.8812 27.6961C91.8812 27.3893 91.7662 27.1315 91.536 26.9227C91.3102 26.7139 90.9629 26.5562 90.4941 26.4497L88.8322 26.0853C87.916 25.8765 87.2385 25.5441 86.7995 25.0882C86.3649 24.6322 86.1475 24.0548 86.1475 23.3559C86.1475 22.7764 86.3095 22.2693 86.6333 21.8346C86.9572 21.3999 87.4047 21.0612 87.9757 20.8183C88.5467 20.5711 89.2008 20.4475 89.938 20.4475C90.9991 20.4475 91.8343 20.6776 92.4437 21.1379C93.0531 21.5938 93.4558 22.2053 93.6518 22.9724ZM103.302 22.9724L101.57 23.2792C101.498 23.0576 101.382 22.8467 101.225 22.6464C101.071 22.4461 100.863 22.282 100.598 22.1542C100.334 22.0264 100.004 21.9624 99.6076 21.9624C99.0664 21.9624 98.6147 22.0839 98.2525 22.3268C97.8903 22.5654 97.7092 22.8744 97.7092 23.2536C97.7092 23.5818 97.8306 23.846 98.0735 24.0463C98.3164 24.2465 98.7085 24.4106 99.2496 24.5384L100.809 24.8964C101.713 25.1052 102.386 25.4269 102.829 25.8616C103.272 26.2963 103.494 26.8609 103.494 27.5555C103.494 28.1436 103.324 28.6677 102.983 29.1279C102.646 29.5839 102.175 29.9419 101.57 30.2018C100.969 30.4617 100.272 30.5917 99.4798 30.5917C98.3803 30.5917 97.4833 30.3573 96.7887 29.8886C96.0941 29.4156 95.668 28.7444 95.5103 27.8751L97.3576 27.5938C97.4727 28.0754 97.7092 28.4397 98.0671 28.6869C98.4251 28.9298 98.8917 29.0512 99.467 29.0512C100.093 29.0512 100.594 28.9213 100.969 28.6613C101.344 28.3971 101.532 28.0754 101.532 27.6961C101.532 27.3893 101.417 27.1315 101.186 26.9227C100.961 26.7139 100.613 26.5562 100.145 26.4497L98.4826 26.0853C97.5664 25.8765 96.8888 25.5441 96.4499 25.0882C96.0153 24.6322 95.7979 24.0548 95.7979 23.3559C95.7979 22.7764 95.9599 22.2693 96.2837 21.8346C96.6076 21.3999 97.055 21.0612 97.6261 20.8183C98.1971 20.5711 98.8512 20.4475 99.5884 20.4475C100.65 20.4475 101.485 20.6776 102.094 21.1379C102.703 21.5938 103.106 22.2053 103.302 22.9724ZM108.453 30.6109C107.83 30.6109 107.268 30.4958 106.765 30.2657C106.262 30.0313 105.864 29.6926 105.57 29.2494C105.28 28.8062 105.135 28.2629 105.135 27.6194C105.135 27.0654 105.242 26.6095 105.455 26.2515C105.668 25.8936 105.955 25.6102 106.318 25.4014C106.68 25.1926 107.085 25.0349 107.532 24.9284C107.98 24.8218 108.436 24.7409 108.9 24.6855C109.488 24.6173 109.965 24.5619 110.332 24.5193C110.698 24.4724 110.965 24.3978 111.131 24.2955C111.297 24.1933 111.38 24.0271 111.38 23.797V23.7522C111.38 23.194 111.222 22.7615 110.907 22.4546C110.596 22.1478 110.132 21.9944 109.514 21.9944C108.87 21.9944 108.363 22.1372 107.992 22.4227C107.626 22.7039 107.372 23.0171 107.232 23.3623L105.436 22.9532C105.649 22.3566 105.96 21.8751 106.369 21.5086C106.782 21.1379 107.257 20.8694 107.794 20.7032C108.331 20.5328 108.896 20.4475 109.488 20.4475C109.88 20.4475 110.296 20.4944 110.735 20.5882C111.178 20.6776 111.591 20.8438 111.975 21.0867C112.362 21.3296 112.68 21.6769 112.927 22.1286C113.174 22.5761 113.298 23.1578 113.298 23.8737V30.3936H111.431V29.0512H111.355C111.231 29.2984 111.046 29.5413 110.798 29.7799C110.551 30.0186 110.234 30.2167 109.846 30.3744C109.458 30.532 108.994 30.6109 108.453 30.6109ZM108.868 29.0768C109.396 29.0768 109.848 28.9724 110.223 28.7636C110.602 28.5548 110.89 28.282 111.086 27.9454C111.286 27.6045 111.387 27.2401 111.387 26.8524V25.5867C111.318 25.6549 111.186 25.7188 110.99 25.7785C110.798 25.8339 110.579 25.8829 110.332 25.9255C110.085 25.9639 109.844 26.0001 109.61 26.0342C109.375 26.064 109.179 26.0896 109.021 26.1109C108.651 26.1578 108.312 26.2366 108.005 26.3474C107.703 26.4582 107.46 26.618 107.276 26.8268C107.097 27.0313 107.008 27.3041 107.008 27.645C107.008 28.118 107.183 28.4759 107.532 28.7188C107.882 28.9575 108.327 29.0768 108.868 29.0768ZM115.843 30.3936V20.5754H117.678V22.1734H117.799C118.004 21.6322 118.338 21.2103 118.803 20.9078C119.267 20.6009 119.824 20.4475 120.471 20.4475C121.127 20.4475 121.677 20.6009 122.12 20.9078C122.568 21.2146 122.898 21.6365 123.111 22.1734H123.213C123.448 21.6492 123.821 21.2316 124.332 20.9205C124.843 20.6052 125.453 20.4475 126.16 20.4475C127.051 20.4475 127.777 20.7267 128.34 21.2849C128.907 21.8431 129.19 22.6847 129.19 23.8097V30.3936H127.279V23.9887C127.279 23.324 127.098 22.8424 126.735 22.5441C126.373 22.2458 125.941 22.0967 125.438 22.0967C124.816 22.0967 124.332 22.2884 123.987 22.672C123.642 23.0512 123.469 23.5392 123.469 24.1357V30.3936H121.564V23.8673C121.564 23.3346 121.398 22.9063 121.066 22.5825C120.733 22.2586 120.301 22.0967 119.768 22.0967C119.406 22.0967 119.071 22.1926 118.765 22.3843C118.462 22.5718 118.217 22.8339 118.029 23.1705C117.846 23.5072 117.755 23.8971 117.755 24.3403V30.3936H115.843Z" fill="white"/>
</g>
<defs>
<filter id="filter0_d_2415_447" x="51.2311" y="43.0139" width="55.4394" height="79.9568" filterUnits="userSpaceOnUse" color-interpolation-filters="sRGB">
<feFlood flood-opacity="0" result="BackgroundImageFix"/>
<feColorMatrix in="SourceAlpha" type="matrix" values="0 0 0 0 0 0 0 0 0 0 0 0 0 0 0 0 0 0 127 0" result="hardAlpha"/>
<feOffset/>
<feGaussianBlur stdDeviation="5"/>
<feColorMatrix type="matrix" values="0 0 0 0 0 0 0 0 0 0 0 0 0 0 0 0 0 0 0.15 0"/>
<feBlend mode="normal" in2="BackgroundImageFix" result="effect1_dropShadow_2415_447"/>
<feBlend mode="normal" in="SourceGraphic" in2="effect1_dropShadow_2415_447" result="shape"/>
</filter>
<filter id="filter1_d_2415_447" x="57.259" y="48.9995" width="43.424" height="43.4165" filterUnits="userSpaceOnUse" color-interpolation-filters="sRGB">
<feFlood flood-opacity="0" result="BackgroundImageFix"/>
<feColorMatrix in="SourceAlpha" type="matrix" values="0 0 0 0 0 0 0 0 0 0 0 0 0 0 0 0 0 0 127 0" result="hardAlpha"/>
<feOffset/>
<feGaussianBlur stdDeviation="5"/>
<feColorMatrix type="matrix" values="0 0 0 0 0 0 0 0 0 0 0 0 0 0 0 0 0 0 0.15 0"/>
<feBlend mode="normal" in2="BackgroundImageFix" result="effect1_dropShadow_2415_447"/>
<feBlend mode="normal" in="SourceGraphic" in2="effect1_dropShadow_2415_447" result="shape"/>
</filter>
<filter id="filter2_d_2415_447" x="0" y="0.393555" width="145" height="56" filterUnits="userSpaceOnUse" color-interpolation-filters="sRGB">
<feFlood flood-opacity="0" result="BackgroundImageFix"/>
<feColorMatrix in="SourceAlpha" type="matrix" values="0 0 0 0 0 0 0 0 0 0 0 0 0 0 0 0 0 0 127 0" result="hardAlpha"/>
<feOffset dx="-6" dy="5"/>
<feGaussianBlur stdDeviation="4"/>
<feComposite in2="hardAlpha" operator="out"/>
<feColorMatrix type="matrix" values="0 0 0 0 0 0 0 0 0 0 0 0 0 0 0 0 0 0 0.5 0"/>
<feBlend mode="normal" in2="BackgroundImageFix" result="effect1_dropShadow_2415_447"/>
<feBlend mode="normal" in="SourceGraphic" in2="effect1_dropShadow_2415_447" result="shape"/>
</filter>
<radialGradient id="paint0_radial_2415_447" cx="0" cy="0" r="1" gradientUnits="userSpaceOnUse" gradientTransform="translate(79.9185 112.95) rotate(-47.395) scale(13.4798 13.4837)">
<stop stop-color="#1003C5"/>
<stop offset="0.153846" stop-color="#0C00AF"/>
<stop offset="0.322115" stop-color="#0C0293"/>
<stop offset="0.461538" stop-color="#090174"/>
<stop offset="0.610577" stop-color="#090269"/>
<stop offset="0.769231" stop-color="#070070"/>
<stop offset="0.894231" stop-color="#0C0297"/>
<stop offset="0.947115" stop-color="#1205C6"/>
<stop offset="1" stop-color="#574BFF"/>
</radialGradient>
<radialGradient id="paint1_radial_2415_447" cx="0" cy="0" r="1" gradientUnits="userSpaceOnUse" gradientTransform="translate(78.9508 70.708) scale(9.14302 9.14014)">
<stop stop-color="#0002A7"/>
<stop offset="1" stop-color="#000262"/>
</radialGradient>
</defs>
</svg>
