<svg width="148" height="126" viewBox="0 0 148 126" fill="none" xmlns="http://www.w3.org/2000/svg">
<path d="M83 116.394C83 121.356 78.9791 125.394 74 125.394C69.0209 125.394 65 121.373 65 116.394C65 111.414 69.0209 107.394 74 107.394C78.9791 107.394 83 111.414 83 116.394Z" fill="url(#paint0_radial_2415_474)"/>
<g filter="url(#filter0_d_2415_474)">
<path d="M73.9508 53.0139C64.1605 53.0139 56.2311 60.9407 56.2311 70.728C56.2311 84.9842 66.7295 88.442 73.9508 112.971C81.152 88.442 91.6705 85.0044 91.6705 70.728C91.6705 60.9407 83.7412 53.0139 73.9508 53.0139Z" fill="white"/>
</g>
<g style="mix-blend-mode:multiply">
<path d="M88.7915 74.2194C90.7208 66.0226 85.6377 57.8143 77.4382 55.8857C69.2387 53.9571 61.0278 59.0385 59.0986 67.2354C57.1694 75.4322 62.2525 83.6406 70.4519 85.5692C78.6514 87.4978 86.8623 82.4163 88.7915 74.2194Z" fill="#BFBFBF"/>
</g>
<g filter="url(#filter1_d_2415_474)">
<path d="M85.683 70.7078C85.683 77.1787 80.444 82.4161 73.971 82.4161C67.4981 82.4161 62.2591 77.1787 62.2591 70.7078C62.2591 64.2369 67.4981 58.9995 73.971 58.9995C80.444 58.9995 85.683 64.2369 85.683 70.7078Z" fill="white"/>
</g>
<path d="M73.9508 79.8481C79.0004 79.8481 83.0938 75.756 83.0938 70.708C83.0938 65.6601 79.0004 61.5679 73.9508 61.5679C68.9013 61.5679 64.8078 65.6601 64.8078 70.708C64.8078 75.756 68.9013 79.8481 73.9508 79.8481Z" fill="url(#paint1_radial_2415_474)"/>
<g filter="url(#filter2_d_2415_474)">
<rect x="21" y="3.39355" width="106" height="40" rx="12" fill="#326CE2" shape-rendering="crispEdges"/>
<path d="M38.9446 30.5725C37.9474 30.5725 37.0632 30.4021 36.2919 30.0612C35.5249 29.716 34.9197 29.2409 34.4766 28.6357C34.0334 28.0306 33.8075 27.3339 33.799 26.5455H36.9822C36.995 26.8311 37.0866 27.0846 37.2571 27.3062C37.4276 27.5235 37.6598 27.694 37.9538 27.8176C38.2479 27.9411 38.5824 28.0029 38.9574 28.0029C39.3324 28.0029 39.6626 27.9369 39.9482 27.8048C40.2379 27.6684 40.4638 27.483 40.6257 27.2487C40.7876 27.01 40.8665 26.7373 40.8622 26.4305C40.8665 26.1237 40.7791 25.8509 40.6001 25.6123C40.4212 25.3737 40.1676 25.1883 39.8395 25.0562C39.5156 24.9241 39.1321 24.858 38.6889 24.858H37.4169V22.608H38.6889C39.0767 22.608 39.4176 22.5441 39.7116 22.4163C40.0099 22.2884 40.2422 22.1095 40.4084 21.8793C40.5746 21.645 40.6555 21.3765 40.6513 21.074C40.6555 20.7799 40.5852 20.5221 40.4403 20.3005C40.2997 20.0747 40.1016 19.8999 39.8459 19.7764C39.5945 19.6528 39.3026 19.591 38.9702 19.591C38.6207 19.591 38.3033 19.6528 38.0178 19.7764C37.7365 19.8999 37.5128 20.0747 37.3466 20.3005C37.1804 20.5264 37.093 20.7884 37.0845 21.0867H34.0611C34.0696 20.3069 34.2869 19.6208 34.7131 19.0285C35.1392 18.4319 35.7188 17.9653 36.4517 17.6286C37.1889 17.292 38.0284 17.1237 38.9702 17.1237C39.9077 17.1237 40.7322 17.2877 41.4439 17.6159C42.1555 17.944 42.7095 18.3914 43.1058 18.9582C43.5021 19.5207 43.7003 20.1578 43.7003 20.8694C43.7045 21.6066 43.4638 22.2139 42.978 22.6911C42.4964 23.1684 41.8764 23.4624 41.1179 23.5732V23.6755C42.1321 23.7948 42.897 24.123 43.4126 24.6599C43.9325 25.1968 44.1903 25.868 44.1861 26.6734C44.1861 27.4319 43.9624 28.1052 43.5149 28.6933C43.0717 29.2771 42.4538 29.7373 41.6612 30.074C40.8729 30.4063 39.9673 30.5725 38.9446 30.5725ZM51.0543 30.3936V20.5754H52.9656V30.3936H51.0543ZM52.0195 19.0605C51.6871 19.0605 51.4016 18.9497 51.163 18.7281C50.9286 18.5022 50.8114 18.2338 50.8114 17.9227C50.8114 17.6073 50.9286 17.3389 51.163 17.1173C51.4016 16.8914 51.6871 16.7785 52.0195 16.7785C52.3519 16.7785 52.6353 16.8914 52.8697 17.1173C53.1083 17.3389 53.2276 17.6073 53.2276 17.9227C53.2276 18.2338 53.1083 18.5022 52.8697 18.7281C52.6353 18.9497 52.3519 19.0605 52.0195 19.0605ZM57.448 24.564V30.3936H55.5368V20.5754H57.3713V22.1734H57.4927C57.7186 21.6535 58.0723 21.2359 58.5538 20.9205C59.0396 20.6052 59.6511 20.4475 60.3883 20.4475C61.0574 20.4475 61.6433 20.5882 62.1461 20.8694C62.649 21.1464 63.0389 21.5597 63.3159 22.1095C63.5929 22.6592 63.7314 23.3389 63.7314 24.1485V30.3936H61.8201V24.3786C61.8201 23.667 61.6348 23.1109 61.264 22.7103C60.8933 22.3055 60.3841 22.1031 59.7363 22.1031C59.2931 22.1031 58.899 22.199 58.5538 22.3907C58.2129 22.5825 57.9423 22.8637 57.742 23.2345C57.546 23.6009 57.448 24.0441 57.448 24.564ZM71.2116 30.3936V17.3026H76.0057C76.9347 17.3026 77.7038 17.4561 78.3132 17.7629C78.9226 18.0654 79.3786 18.4767 79.6811 18.9965C79.9837 19.5122 80.1349 20.0938 80.1349 20.7416C80.1349 21.287 80.0348 21.7472 79.8345 22.1222C79.6342 22.493 79.3658 22.7913 79.0291 23.0171C78.6967 23.2387 78.3303 23.4007 77.9297 23.5029V23.6308C78.3643 23.6521 78.7884 23.7927 79.2017 24.0526C79.6193 24.3083 79.9645 24.6727 80.2372 25.1457C80.5099 25.6187 80.6463 26.194 80.6463 26.8715C80.6463 27.5406 80.4886 28.1414 80.1733 28.6741C79.8622 29.2025 79.3807 29.6222 78.7287 29.9333C78.0767 30.2401 77.2436 30.3936 76.2294 30.3936H71.2116ZM73.1868 28.6997H76.0376C76.9837 28.6997 77.6612 28.5164 78.0703 28.1499C78.4794 27.7835 78.6839 27.3254 78.6839 26.7757C78.6839 26.3623 78.5795 25.983 78.3707 25.6379C78.1619 25.2927 77.8636 25.0178 77.4759 24.8133C77.0923 24.6088 76.6364 24.5065 76.108 24.5065H73.1868V28.6997ZM73.1868 22.966H75.8331C76.2763 22.966 76.6747 22.8808 77.0284 22.7103C77.3864 22.5399 77.6697 22.3012 77.8786 21.9944C78.0916 21.6833 78.1982 21.3168 78.1982 20.895C78.1982 20.3538 78.0085 19.8999 77.6293 19.5335C77.25 19.167 76.6683 18.9838 75.8842 18.9838H73.1868V22.966ZM82.8356 30.3936V20.5754H84.7468V30.3936H82.8356ZM83.8008 19.0605C83.4684 19.0605 83.1829 18.9497 82.9442 18.7281C82.7099 18.5022 82.5927 18.2338 82.5927 17.9227C82.5927 17.6073 82.7099 17.3389 82.9442 17.1173C83.1829 16.8914 83.4684 16.7785 83.8008 16.7785C84.1332 16.7785 84.4165 16.8914 84.6509 17.1173C84.8896 17.3389 85.0089 17.6073 85.0089 17.9227C85.0089 18.2338 84.8896 18.5022 84.6509 18.7281C84.4165 18.9497 84.1332 19.0605 83.8008 19.0605ZM89.2292 24.564V30.3936H87.318V17.3026H89.2037V22.1734H89.3251C89.5552 21.645 89.9068 21.2252 90.3798 20.9142C90.8528 20.6031 91.4707 20.4475 92.2335 20.4475C92.9068 20.4475 93.4949 20.586 93.9977 20.863C94.5048 21.14 94.8968 21.5534 95.1738 22.1031C95.4551 22.6485 95.5957 23.3303 95.5957 24.1485V30.3936H93.6845V24.3786C93.6845 23.6585 93.4991 23.1002 93.1284 22.7039C92.7576 22.3034 92.242 22.1031 91.5815 22.1031C91.1298 22.1031 90.725 22.199 90.367 22.3907C90.0133 22.5825 89.7342 22.8637 89.5297 23.2345C89.3294 23.6009 89.2292 24.0441 89.2292 24.564ZM101.003 30.6109C100.381 30.6109 99.8187 30.4958 99.3159 30.2657C98.813 30.0313 98.4146 29.6926 98.1206 29.2494C97.8308 28.8062 97.6859 28.2629 97.6859 27.6194C97.6859 27.0654 97.7924 26.6095 98.0055 26.2515C98.2186 25.8936 98.5062 25.6102 98.8684 25.4014C99.2306 25.1926 99.6355 25.0349 100.083 24.9284C100.53 24.8218 100.986 24.7409 101.451 24.6855C102.039 24.6173 102.516 24.5619 102.883 24.5193C103.249 24.4724 103.515 24.3978 103.682 24.2955C103.848 24.1933 103.931 24.0271 103.931 23.797V23.7522C103.931 23.194 103.773 22.7615 103.458 22.4546C103.147 22.1478 102.682 21.9944 102.064 21.9944C101.421 21.9944 100.914 22.1372 100.543 22.4227C100.177 22.7039 99.9231 23.0171 99.7825 23.3623L97.9863 22.9532C98.1994 22.3566 98.5105 21.8751 98.9196 21.5086C99.3329 21.1379 99.8081 20.8694 100.345 20.7032C100.882 20.5328 101.447 20.4475 102.039 20.4475C102.431 20.4475 102.846 20.4944 103.285 20.5882C103.729 20.6776 104.142 20.8438 104.525 21.0867C104.913 21.3296 105.231 21.6769 105.478 22.1286C105.725 22.5761 105.849 23.1578 105.849 23.8737V30.3936H103.982V29.0512H103.905C103.782 29.2984 103.596 29.5413 103.349 29.7799C103.102 30.0186 102.785 30.2167 102.397 30.3744C102.009 30.532 101.545 30.6109 101.003 30.6109ZM101.419 29.0768C101.947 29.0768 102.399 28.9724 102.774 28.7636C103.153 28.5548 103.441 28.282 103.637 27.9454C103.837 27.6045 103.937 27.2401 103.937 26.8524V25.5867C103.869 25.6549 103.737 25.7188 103.541 25.7785C103.349 25.8339 103.13 25.8829 102.883 25.9255C102.635 25.9639 102.395 26.0001 102.16 26.0342C101.926 26.064 101.73 26.0896 101.572 26.1109C101.202 26.1578 100.863 26.2366 100.556 26.3474C100.253 26.4582 100.01 26.618 99.8272 26.8268C99.6483 27.0313 99.5588 27.3041 99.5588 27.645C99.5588 28.118 99.7335 28.4759 100.083 28.7188C100.432 28.9575 100.878 29.0768 101.419 29.0768ZM108.394 30.3936V20.5754H110.241V22.135H110.344C110.523 21.6066 110.838 21.1911 111.29 20.8886C111.746 20.5818 112.261 20.4284 112.837 20.4284C112.956 20.4284 113.097 20.4326 113.259 20.4411C113.425 20.4497 113.555 20.4603 113.648 20.4731V22.3012C113.572 22.2799 113.435 22.2565 113.239 22.2309C113.043 22.2011 112.847 22.1862 112.651 22.1862C112.2 22.1862 111.797 22.282 111.443 22.4738C111.094 22.6613 110.817 22.9234 110.612 23.26C110.408 23.5924 110.305 23.9717 110.305 24.3978V30.3936H108.394Z" fill="white"/>
</g>
<defs>
<filter id="filter0_d_2415_474" x="46.2311" y="43.0139" width="55.4394" height="79.9568" filterUnits="userSpaceOnUse" color-interpolation-filters="sRGB">
<feFlood flood-opacity="0" result="BackgroundImageFix"/>
<feColorMatrix in="SourceAlpha" type="matrix" values="0 0 0 0 0 0 0 0 0 0 0 0 0 0 0 0 0 0 127 0" result="hardAlpha"/>
<feOffset/>
<feGaussianBlur stdDeviation="5"/>
<feColorMatrix type="matrix" values="0 0 0 0 0 0 0 0 0 0 0 0 0 0 0 0 0 0 0.15 0"/>
<feBlend mode="normal" in2="BackgroundImageFix" result="effect1_dropShadow_2415_474"/>
<feBlend mode="normal" in="SourceGraphic" in2="effect1_dropShadow_2415_474" result="shape"/>
</filter>
<filter id="filter1_d_2415_474" x="52.2591" y="48.9995" width="43.4239" height="43.4165" filterUnits="userSpaceOnUse" color-interpolation-filters="sRGB">
<feFlood flood-opacity="0" result="BackgroundImageFix"/>
<feColorMatrix in="SourceAlpha" type="matrix" values="0 0 0 0 0 0 0 0 0 0 0 0 0 0 0 0 0 0 127 0" result="hardAlpha"/>
<feOffset/>
<feGaussianBlur stdDeviation="5"/>
<feColorMatrix type="matrix" values="0 0 0 0 0 0 0 0 0 0 0 0 0 0 0 0 0 0 0.15 0"/>
<feBlend mode="normal" in2="BackgroundImageFix" result="effect1_dropShadow_2415_474"/>
<feBlend mode="normal" in="SourceGraphic" in2="effect1_dropShadow_2415_474" result="shape"/>
</filter>
<filter id="filter2_d_2415_474" x="7" y="0.393555" width="122" height="56" filterUnits="userSpaceOnUse" color-interpolation-filters="sRGB">
<feFlood flood-opacity="0" result="BackgroundImageFix"/>
<feColorMatrix in="SourceAlpha" type="matrix" values="0 0 0 0 0 0 0 0 0 0 0 0 0 0 0 0 0 0 127 0" result="hardAlpha"/>
<feOffset dx="-6" dy="5"/>
<feGaussianBlur stdDeviation="4"/>
<feComposite in2="hardAlpha" operator="out"/>
<feColorMatrix type="matrix" values="0 0 0 0 0 0 0 0 0 0 0 0 0 0 0 0 0 0 0.5 0"/>
<feBlend mode="normal" in2="BackgroundImageFix" result="effect1_dropShadow_2415_474"/>
<feBlend mode="normal" in="SourceGraphic" in2="effect1_dropShadow_2415_474" result="shape"/>
</filter>
<radialGradient id="paint0_radial_2415_474" cx="0" cy="0" r="1" gradientUnits="userSpaceOnUse" gradientTransform="translate(74.9185 112.95) rotate(-47.395) scale(13.4798 13.4837)">
<stop stop-color="#1003C5"/>
<stop offset="0.153846" stop-color="#0C00AF"/>
<stop offset="0.322115" stop-color="#0C0293"/>
<stop offset="0.461538" stop-color="#090174"/>
<stop offset="0.610577" stop-color="#090269"/>
<stop offset="0.769231" stop-color="#070070"/>
<stop offset="0.894231" stop-color="#0C0297"/>
<stop offset="0.947115" stop-color="#1205C6"/>
<stop offset="1" stop-color="#574BFF"/>
</radialGradient>
<radialGradient id="paint1_radial_2415_474" cx="0" cy="0" r="1" gradientUnits="userSpaceOnUse" gradientTransform="translate(73.9508 70.708) scale(9.14302 9.14014)">
<stop stop-color="#0002A7"/>
<stop offset="1" stop-color="#000262"/>
</radialGradient>
</defs>
</svg>
