<svg width="148" height="125" viewBox="0 0 148 125" fill="none" xmlns="http://www.w3.org/2000/svg">
<path d="M83 116C83 120.962 78.9791 125 74 125C69.0209 125 65 120.979 65 116C65 111.021 69.0209 107 74 107C78.9791 107 83 111.021 83 116Z" fill="url(#paint0_radial_2415_492)"/>
<g filter="url(#filter0_d_2415_492)">
<path d="M73.9508 52.6204C64.1605 52.6204 56.2311 60.5472 56.2311 70.3344C56.2311 84.5906 66.7294 88.0485 73.9508 112.577C81.152 88.0485 91.6705 84.6108 91.6705 70.3344C91.6705 60.5472 83.7411 52.6204 73.9508 52.6204Z" fill="white"/>
</g>
<g style="mix-blend-mode:multiply">
<path d="M88.7915 73.8259C90.7208 65.629 85.6377 57.4207 77.4382 55.4921C69.2387 53.5635 61.0278 58.6449 59.0986 66.8418C57.1694 75.0387 62.2525 83.247 70.4519 85.1756C78.6514 87.1042 86.8623 82.0228 88.7915 73.8259Z" fill="#BFBFBF"/>
</g>
<g filter="url(#filter1_d_2415_492)">
<path d="M85.683 70.3142C85.683 76.7851 80.444 82.0225 73.971 82.0225C67.4981 82.0225 62.2591 76.7851 62.2591 70.3142C62.2591 63.8433 67.4981 58.606 73.971 58.606C80.444 58.606 85.683 63.8433 85.683 70.3142Z" fill="white"/>
</g>
<path d="M73.9508 79.4546C79.0004 79.4546 83.0938 75.3624 83.0938 70.3145C83.0938 65.2665 79.0004 61.1743 73.9508 61.1743C68.9013 61.1743 64.8078 65.2665 64.8078 70.3145C64.8078 75.3624 68.9013 79.4546 73.9508 79.4546Z" fill="url(#paint1_radial_2415_492)"/>
<g filter="url(#filter2_d_2415_492)">
<rect x="27" y="3" width="93" height="40" rx="12" fill="#326CE2" shape-rendering="crispEdges"/>
<path d="M46.0185 16.9091V30H42.8608V19.8622H42.7841L39.8565 21.652V18.9162L43.0845 16.9091H46.0185ZM53.9957 30V20.1818H55.907V30H53.9957ZM54.9609 18.6669C54.6286 18.6669 54.343 18.5561 54.1044 18.3345C53.87 18.1087 53.7528 17.8402 53.7528 17.5291C53.7528 17.2138 53.87 16.9453 54.1044 16.7237C54.343 16.4979 54.6286 16.3849 54.9609 16.3849C55.2933 16.3849 55.5767 16.4979 55.8111 16.7237C56.0497 16.9453 56.169 17.2138 56.169 17.5291C56.169 17.8402 56.0497 18.1087 55.8111 18.3345C55.5767 18.5561 55.2933 18.6669 54.9609 18.6669ZM60.3894 24.1705V30H58.4782V20.1818H60.3127V21.7798H60.4341C60.66 21.2599 61.0137 20.8423 61.4952 20.527C61.981 20.2116 62.5925 20.054 63.3297 20.054C63.9988 20.054 64.5847 20.1946 65.0875 20.4759C65.5904 20.7528 65.9803 21.1662 66.2573 21.7159C66.5343 22.2656 66.6728 22.9453 66.6728 23.755V30H64.7615V23.9851C64.7615 23.2734 64.5762 22.7173 64.2054 22.3168C63.8347 21.9119 63.3255 21.7095 62.6777 21.7095C62.2346 21.7095 61.8404 21.8054 61.4952 21.9972C61.1543 22.1889 60.8837 22.4702 60.6834 22.8409C60.4874 23.2074 60.3894 23.6506 60.3894 24.1705ZM83.0124 21.0447C82.8888 20.657 82.7227 20.3097 82.5139 20.0028C82.3093 19.6918 82.0643 19.4276 81.7788 19.2102C81.4933 18.9886 81.1673 18.8203 80.8008 18.7053C80.4386 18.5902 80.0401 18.5327 79.6055 18.5327C78.8683 18.5327 78.2035 18.7223 77.6112 19.1016C77.0188 19.4808 76.5501 20.0369 76.2049 20.7699C75.864 21.4986 75.6935 22.3913 75.6935 23.4482C75.6935 24.5092 75.8661 25.4062 76.2113 26.1392C76.5565 26.8722 77.0295 27.4283 77.6303 27.8075C78.2312 28.1868 78.9151 28.3764 79.6822 28.3764C80.3938 28.3764 81.0138 28.2315 81.5423 27.9418C82.0749 27.652 82.4862 27.2429 82.7759 26.7145C83.07 26.1818 83.217 25.5554 83.217 24.8352L83.7283 24.9311H79.9826V23.3011H85.1282V24.7905C85.1282 25.8899 84.8938 26.8445 84.4251 27.6541C83.9606 28.4595 83.3171 29.0817 82.4947 29.5206C81.6765 29.9595 80.739 30.179 79.6822 30.179C78.4975 30.179 77.4577 29.9062 76.5629 29.3608C75.6722 28.8153 74.9776 28.0419 74.479 27.0405C73.9805 26.0348 73.7312 24.8416 73.7312 23.4609C73.7312 22.4169 73.8761 21.4794 74.1658 20.6484C74.4556 19.8175 74.8626 19.1122 75.3867 18.5327C75.9151 17.9489 76.5352 17.5036 77.2468 17.1967C77.9627 16.8857 78.7447 16.7301 79.5927 16.7301C80.3001 16.7301 80.9585 16.8345 81.5678 17.0433C82.1815 17.2521 82.7269 17.5483 83.2042 17.9318C83.6857 18.3153 84.0842 18.7713 84.3995 19.2997C84.7148 19.8239 84.9279 20.4055 85.0387 21.0447H83.0124ZM91.6177 30.1982C90.6973 30.1982 89.894 29.9872 89.2079 29.5653C88.5218 29.1435 87.9892 28.5533 87.6099 27.7947C87.2306 27.0362 87.041 26.1499 87.041 25.1357C87.041 24.1172 87.2306 23.2266 87.6099 22.4638C87.9892 21.701 88.5218 21.1087 89.2079 20.6868C89.894 20.2649 90.6973 20.054 91.6177 20.054C92.5382 20.054 93.3414 20.2649 94.0275 20.6868C94.7136 21.1087 95.2463 21.701 95.6255 22.4638C96.0048 23.2266 96.1944 24.1172 96.1944 25.1357C96.1944 26.1499 96.0048 27.0362 95.6255 27.7947C95.2463 28.5533 94.7136 29.1435 94.0275 29.5653C93.3414 29.9872 92.5382 30.1982 91.6177 30.1982ZM91.6241 28.5938C92.2207 28.5938 92.715 28.4361 93.1071 28.1207C93.4991 27.8054 93.7889 27.3857 93.9764 26.8615C94.1681 26.3374 94.264 25.7599 94.264 25.1293C94.264 24.5028 94.1681 23.9276 93.9764 23.4034C93.7889 22.875 93.4991 22.451 93.1071 22.1314C92.715 21.8118 92.2207 21.652 91.6241 21.652C91.0233 21.652 90.5247 21.8118 90.1284 22.1314C89.7363 22.451 89.4444 22.875 89.2527 23.4034C89.0652 23.9276 88.9714 24.5028 88.9714 25.1293C88.9714 25.7599 89.0652 26.3374 89.2527 26.8615C89.4444 27.3857 89.7363 27.8054 90.1284 28.1207C90.5247 28.4361 91.0233 28.5938 91.6241 28.5938ZM101.185 30.2173C100.563 30.2173 100 30.1023 99.4975 29.8722C98.9947 29.6378 98.5962 29.299 98.3022 28.8558C98.0124 28.4126 97.8675 27.8693 97.8675 27.2259C97.8675 26.6719 97.9741 26.2159 98.1871 25.858C98.4002 25.5 98.6879 25.2166 99.0501 25.0078C99.4123 24.799 99.8171 24.6413 100.265 24.5348C100.712 24.4283 101.168 24.3473 101.632 24.2919C102.221 24.2237 102.698 24.1683 103.064 24.1257C103.431 24.0788 103.697 24.0043 103.863 23.902C104.029 23.7997 104.113 23.6335 104.113 23.4034V23.3587C104.113 22.8004 103.955 22.3679 103.64 22.0611C103.328 21.7543 102.864 21.6009 102.246 21.6009C101.603 21.6009 101.096 21.7436 100.725 22.0291C100.358 22.3104 100.105 22.6236 99.9641 22.9688L98.168 22.5597C98.381 21.9631 98.6921 21.4815 99.1012 21.1151C99.5146 20.7443 99.9897 20.4759 100.527 20.3097C101.064 20.1392 101.628 20.054 102.221 20.054C102.613 20.054 103.028 20.1009 103.467 20.1946C103.91 20.2841 104.324 20.4503 104.707 20.6932C105.095 20.9361 105.412 21.2834 105.659 21.7351C105.907 22.1825 106.03 22.7642 106.03 23.4801V30H104.164V28.6577H104.087C103.963 28.9048 103.778 29.1477 103.531 29.3864C103.284 29.625 102.966 29.8232 102.578 29.9808C102.191 30.1385 101.726 30.2173 101.185 30.2173ZM101.6 28.6832C102.129 28.6832 102.581 28.5788 102.956 28.37C103.335 28.1612 103.623 27.8885 103.819 27.5518C104.019 27.2109 104.119 26.8466 104.119 26.4588V25.1932C104.051 25.2614 103.919 25.3253 103.723 25.3849C103.531 25.4403 103.311 25.4893 103.064 25.532C102.817 25.5703 102.576 25.6065 102.342 25.6406C102.108 25.6705 101.912 25.696 101.754 25.7173C101.383 25.7642 101.044 25.843 100.738 25.9538C100.435 26.0646 100.192 26.2244 100.009 26.4332C99.8299 26.6378 99.7404 26.9105 99.7404 27.2514C99.7404 27.7244 99.9151 28.0824 100.265 28.3253C100.614 28.5639 101.059 28.6832 101.6 28.6832Z" fill="white"/>
</g>
<defs>
<filter id="filter0_d_2415_492" x="46.2311" y="42.6204" width="55.4394" height="79.9568" filterUnits="userSpaceOnUse" color-interpolation-filters="sRGB">
<feFlood flood-opacity="0" result="BackgroundImageFix"/>
<feColorMatrix in="SourceAlpha" type="matrix" values="0 0 0 0 0 0 0 0 0 0 0 0 0 0 0 0 0 0 127 0" result="hardAlpha"/>
<feOffset/>
<feGaussianBlur stdDeviation="5"/>
<feColorMatrix type="matrix" values="0 0 0 0 0 0 0 0 0 0 0 0 0 0 0 0 0 0 0.15 0"/>
<feBlend mode="normal" in2="BackgroundImageFix" result="effect1_dropShadow_2415_492"/>
<feBlend mode="normal" in="SourceGraphic" in2="effect1_dropShadow_2415_492" result="shape"/>
</filter>
<filter id="filter1_d_2415_492" x="52.2591" y="48.606" width="43.424" height="43.4165" filterUnits="userSpaceOnUse" color-interpolation-filters="sRGB">
<feFlood flood-opacity="0" result="BackgroundImageFix"/>
<feColorMatrix in="SourceAlpha" type="matrix" values="0 0 0 0 0 0 0 0 0 0 0 0 0 0 0 0 0 0 127 0" result="hardAlpha"/>
<feOffset/>
<feGaussianBlur stdDeviation="5"/>
<feColorMatrix type="matrix" values="0 0 0 0 0 0 0 0 0 0 0 0 0 0 0 0 0 0 0.15 0"/>
<feBlend mode="normal" in2="BackgroundImageFix" result="effect1_dropShadow_2415_492"/>
<feBlend mode="normal" in="SourceGraphic" in2="effect1_dropShadow_2415_492" result="shape"/>
</filter>
<filter id="filter2_d_2415_492" x="13" y="0" width="109" height="56" filterUnits="userSpaceOnUse" color-interpolation-filters="sRGB">
<feFlood flood-opacity="0" result="BackgroundImageFix"/>
<feColorMatrix in="SourceAlpha" type="matrix" values="0 0 0 0 0 0 0 0 0 0 0 0 0 0 0 0 0 0 127 0" result="hardAlpha"/>
<feOffset dx="-6" dy="5"/>
<feGaussianBlur stdDeviation="4"/>
<feComposite in2="hardAlpha" operator="out"/>
<feColorMatrix type="matrix" values="0 0 0 0 0 0 0 0 0 0 0 0 0 0 0 0 0 0 0.5 0"/>
<feBlend mode="normal" in2="BackgroundImageFix" result="effect1_dropShadow_2415_492"/>
<feBlend mode="normal" in="SourceGraphic" in2="effect1_dropShadow_2415_492" result="shape"/>
</filter>
<radialGradient id="paint0_radial_2415_492" cx="0" cy="0" r="1" gradientUnits="userSpaceOnUse" gradientTransform="translate(74.9185 112.556) rotate(-47.395) scale(13.4798 13.4837)">
<stop stop-color="#1003C5"/>
<stop offset="0.153846" stop-color="#0C00AF"/>
<stop offset="0.322115" stop-color="#0C0293"/>
<stop offset="0.461538" stop-color="#090174"/>
<stop offset="0.610577" stop-color="#090269"/>
<stop offset="0.769231" stop-color="#070070"/>
<stop offset="0.894231" stop-color="#0C0297"/>
<stop offset="0.947115" stop-color="#1205C6"/>
<stop offset="1" stop-color="#574BFF"/>
</radialGradient>
<radialGradient id="paint1_radial_2415_492" cx="0" cy="0" r="1" gradientUnits="userSpaceOnUse" gradientTransform="translate(73.9508 70.3145) scale(9.14302 9.14014)">
<stop stop-color="#0002A7"/>
<stop offset="1" stop-color="#000262"/>
</radialGradient>
</defs>
</svg>
