<svg width="242" height="123" viewBox="0 0 242 123" fill="none" xmlns="http://www.w3.org/2000/svg">
<path d="M177 113.394C177 118.356 172.979 122.394 168 122.394C163.021 122.394 159 118.373 159 113.394C159 108.414 163.021 104.394 168 104.394C172.979 104.394 177 108.414 177 113.394Z" fill="url(#paint0_radial_2415_438)"/>
<g filter="url(#filter0_d_2415_438)">
<path d="M167.951 50.0139C158.161 50.0139 150.231 57.9407 150.231 67.728C150.231 81.9842 160.729 85.442 167.951 109.971C175.152 85.442 185.671 82.0044 185.671 67.728C185.671 57.9407 177.741 50.0139 167.951 50.0139Z" fill="white"/>
</g>
<g style="mix-blend-mode:multiply">
<path d="M182.792 71.2194C184.721 63.0226 179.638 54.8143 171.438 52.8857C163.239 50.9571 155.028 56.0385 153.099 64.2354C151.169 72.4322 156.252 80.6406 164.452 82.5692C172.651 84.4978 180.862 79.4163 182.792 71.2194Z" fill="#BFBFBF"/>
</g>
<g filter="url(#filter1_d_2415_438)">
<path d="M179.683 67.7078C179.683 74.1787 174.444 79.4161 167.971 79.4161C161.498 79.4161 156.259 74.1787 156.259 67.7078C156.259 61.2369 161.498 55.9995 167.971 55.9995C174.444 55.9995 179.683 61.2369 179.683 67.7078Z" fill="white"/>
</g>
<path d="M167.951 76.8481C173 76.8481 177.094 72.756 177.094 67.708C177.094 62.6601 173 58.5679 167.951 58.5679C162.901 58.5679 158.808 62.6601 158.808 67.708C158.808 72.756 162.901 76.8481 167.951 76.8481Z" fill="url(#paint1_radial_2415_438)"/>
<g filter="url(#filter2_d_2415_438)">
<rect x="14" y="47.3936" width="130" height="40" rx="12" fill="#326CE2" shape-rendering="crispEdges"/>
<path d="M33.0185 61.3026V74.3936H29.8608V64.2558H29.7841L26.8565 66.0455V63.3097L30.0845 61.3026H33.0185ZM40.9957 74.3936V64.5754H42.907V74.3936H40.9957ZM41.9609 63.0605C41.6286 63.0605 41.343 62.9497 41.1044 62.7281C40.87 62.5022 40.7528 62.2338 40.7528 61.9227C40.7528 61.6073 40.87 61.3389 41.1044 61.1173C41.343 60.8914 41.6286 60.7785 41.9609 60.7785C42.2933 60.7785 42.5767 60.8914 42.8111 61.1173C43.0497 61.3389 43.169 61.6073 43.169 61.9227C43.169 62.2338 43.0497 62.5022 42.8111 62.7281C42.5767 62.9497 42.2933 63.0605 41.9609 63.0605ZM47.3894 68.564V74.3936H45.4782V64.5754H47.3127V66.1734H47.4341C47.66 65.6535 48.0137 65.2359 48.4952 64.9205C48.981 64.6052 49.5925 64.4475 50.3297 64.4475C50.9988 64.4475 51.5847 64.5882 52.0875 64.8694C52.5904 65.1464 52.9803 65.5597 53.2573 66.1095C53.5343 66.6592 53.6728 67.3389 53.6728 68.1485V74.3936H51.7615V68.3786C51.7615 67.667 51.5762 67.1109 51.2054 66.7103C50.8347 66.3055 50.3255 66.1031 49.6777 66.1031C49.2346 66.1031 48.8404 66.199 48.4952 66.3907C48.1543 66.5825 47.8837 66.8637 47.6834 67.2345C47.4874 67.6009 47.3894 68.0441 47.3894 68.564ZM61.1531 74.3936V61.3026H63.1282V66.9916H69.6545V61.3026H71.636V74.3936H69.6545V68.6855H63.1282V74.3936H61.1531ZM77.2163 74.6109C76.5941 74.6109 76.0316 74.4958 75.5288 74.2657C75.0259 74.0313 74.6275 73.6926 74.3335 73.2494C74.0437 72.8062 73.8988 72.2629 73.8988 71.6194C73.8988 71.0654 74.0053 70.6095 74.2184 70.2515C74.4315 69.8936 74.7191 69.6102 75.0813 69.4014C75.4435 69.1926 75.8484 69.0349 76.2958 68.9284C76.7433 68.8218 77.1992 68.7409 77.6637 68.6855C78.2518 68.6173 78.729 68.5619 79.0955 68.5193C79.462 68.4724 79.7283 68.3978 79.8945 68.2955C80.0607 68.1933 80.1438 68.0271 80.1438 67.797V67.7522C80.1438 67.194 79.9862 66.7615 79.6708 66.4546C79.3597 66.1478 78.8952 65.9944 78.2773 65.9944C77.6339 65.9944 77.1268 66.1372 76.756 66.4227C76.3896 66.7039 76.136 67.0171 75.9954 67.3623L74.1992 66.9532C74.4123 66.3566 74.7234 65.8751 75.1325 65.5086C75.5458 65.1379 76.021 64.8694 76.5579 64.7032C77.0948 64.5328 77.6594 64.4475 78.2518 64.4475C78.6438 64.4475 79.0593 64.4944 79.4982 64.5882C79.9414 64.6776 80.3548 64.8438 80.7383 65.0867C81.1261 65.3296 81.4435 65.6769 81.6907 66.1286C81.9379 66.5761 82.0614 67.1578 82.0614 67.8737V74.3936H80.195V73.0512H80.1183C79.9947 73.2984 79.8093 73.5413 79.5621 73.7799C79.315 74.0186 78.9975 74.2167 78.6097 74.3744C78.2219 74.532 77.7575 74.6109 77.2163 74.6109ZM77.6317 73.0768C78.1602 73.0768 78.6119 72.9724 78.9869 72.7636C79.3661 72.5548 79.6538 72.282 79.8498 71.9454C80.0501 71.6045 80.1502 71.2401 80.1502 70.8524V69.5867C80.082 69.6549 79.9499 69.7188 79.7539 69.7785C79.5621 69.8339 79.3427 69.8829 79.0955 69.9255C78.8484 69.9639 78.6076 70.0001 78.3732 70.0342C78.1388 70.064 77.9428 70.0896 77.7852 70.1109C77.4144 70.1578 77.0756 70.2366 76.7688 70.3474C76.4663 70.4582 76.2234 70.618 76.0401 70.8268C75.8612 71.0313 75.7717 71.3041 75.7717 71.645C75.7717 72.118 75.9464 72.4759 76.2958 72.7188C76.6452 72.9575 77.0906 73.0768 77.6317 73.0768ZM84.6071 74.3936V64.5754H86.4544V66.135H86.5566C86.7356 65.6066 87.051 65.1911 87.5027 64.8886C87.9586 64.5818 88.4743 64.4284 89.0495 64.4284C89.1689 64.4284 89.3095 64.4326 89.4714 64.4411C89.6376 64.4497 89.7676 64.4603 89.8613 64.4731V66.3012C89.7846 66.2799 89.6483 66.2565 89.4522 66.2309C89.2562 66.2011 89.0602 66.1862 88.8642 66.1862C88.4125 66.1862 88.0098 66.282 87.6561 66.4738C87.3066 66.6613 87.0297 66.9234 86.8251 67.26C86.6206 67.5924 86.5183 67.9717 86.5183 68.3978V74.3936H84.6071ZM93.0222 78.0754C92.7367 78.0754 92.4767 78.0519 92.2424 78.0051C92.008 77.9624 91.8333 77.9156 91.7182 77.8644L92.1784 76.2984C92.5279 76.3921 92.839 76.4326 93.1117 76.4198C93.3844 76.407 93.6252 76.3048 93.834 76.113C94.0471 75.9213 94.2346 75.608 94.3965 75.1734L94.633 74.5214L91.0407 64.5754H93.0861L95.5726 72.1947H95.6749L98.1614 64.5754H100.213L96.1671 75.7039C95.9796 76.2153 95.7409 76.6478 95.4512 77.0015C95.1614 77.3595 94.8162 77.6279 94.4157 77.8069C94.0151 77.9859 93.5506 78.0754 93.0222 78.0754ZM104.585 74.6109C103.963 74.6109 103.401 74.4958 102.898 74.2657C102.395 74.0313 101.997 73.6926 101.703 73.2494C101.413 72.8062 101.268 72.2629 101.268 71.6194C101.268 71.0654 101.374 70.6095 101.588 70.2515C101.801 69.8936 102.088 69.6102 102.45 69.4014C102.813 69.1926 103.218 69.0349 103.665 68.9284C104.112 68.8218 104.568 68.7409 105.033 68.6855C105.621 68.6173 106.098 68.5619 106.465 68.5193C106.831 68.4724 107.097 68.3978 107.264 68.2955C107.43 68.1933 107.513 68.0271 107.513 67.797V67.7522C107.513 67.194 107.355 66.7615 107.04 66.4546C106.729 66.1478 106.264 65.9944 105.646 65.9944C105.003 65.9944 104.496 66.1372 104.125 66.4227C103.759 66.7039 103.505 67.0171 103.365 67.3623L101.568 66.9532C101.781 66.3566 102.093 65.8751 102.502 65.5086C102.915 65.1379 103.39 64.8694 103.927 64.7032C104.464 64.5328 105.029 64.4475 105.621 64.4475C106.013 64.4475 106.428 64.4944 106.867 64.5882C107.311 64.6776 107.724 64.8438 108.107 65.0867C108.495 65.3296 108.813 65.6769 109.06 66.1286C109.307 66.5761 109.431 67.1578 109.431 67.8737V74.3936H107.564V73.0512H107.487C107.364 73.2984 107.178 73.5413 106.931 73.7799C106.684 74.0186 106.367 74.2167 105.979 74.3744C105.591 74.532 105.127 74.6109 104.585 74.6109ZM105.001 73.0768C105.529 73.0768 105.981 72.9724 106.356 72.7636C106.735 72.5548 107.023 72.282 107.219 71.9454C107.419 71.6045 107.519 71.2401 107.519 70.8524V69.5867C107.451 69.6549 107.319 69.7188 107.123 69.7785C106.931 69.8339 106.712 69.8829 106.465 69.9255C106.218 69.9639 105.977 70.0001 105.742 70.0342C105.508 70.064 105.312 70.0896 105.154 70.1109C104.784 70.1578 104.445 70.2366 104.138 70.3474C103.835 70.4582 103.593 70.618 103.409 70.8268C103.23 71.0313 103.141 71.3041 103.141 71.645C103.141 72.118 103.316 72.4759 103.665 72.7188C104.014 72.9575 104.46 73.0768 105.001 73.0768ZM113.887 68.564V74.3936H111.976V64.5754H113.811V66.1734H113.932C114.158 65.6535 114.512 65.2359 114.993 64.9205C115.479 64.6052 116.091 64.4475 116.828 64.4475C117.497 64.4475 118.083 64.5882 118.586 64.8694C119.088 65.1464 119.478 65.5597 119.755 66.1095C120.032 66.6592 120.171 67.3389 120.171 68.1485V74.3936H118.26V68.3786C118.26 67.667 118.074 67.1109 117.703 66.7103C117.333 66.3055 116.824 66.1031 116.176 66.1031C115.733 66.1031 115.338 66.199 114.993 66.3907C114.652 66.5825 114.382 66.8637 114.181 67.2345C113.985 67.6009 113.887 68.0441 113.887 68.564ZM125.591 74.6109C124.969 74.6109 124.407 74.4958 123.904 74.2657C123.401 74.0313 123.002 73.6926 122.708 73.2494C122.419 72.8062 122.274 72.2629 122.274 71.6194C122.274 71.0654 122.38 70.6095 122.593 70.2515C122.806 69.8936 123.094 69.6102 123.456 69.4014C123.819 69.1926 124.223 69.0349 124.671 68.9284C125.118 68.8218 125.574 68.7409 126.039 68.6855C126.627 68.6173 127.104 68.5619 127.471 68.5193C127.837 68.4724 128.103 68.3978 128.27 68.2955C128.436 68.1933 128.519 68.0271 128.519 67.797V67.7522C128.519 67.194 128.361 66.7615 128.046 66.4546C127.735 66.1478 127.27 65.9944 126.652 65.9944C126.009 65.9944 125.502 66.1372 125.131 66.4227C124.765 66.7039 124.511 67.0171 124.37 67.3623L122.574 66.9532C122.787 66.3566 123.098 65.8751 123.507 65.5086C123.921 65.1379 124.396 64.8694 124.933 64.7032C125.47 64.5328 126.034 64.4475 126.627 64.4475C127.019 64.4475 127.434 64.4944 127.873 64.5882C128.316 64.6776 128.73 64.8438 129.113 65.0867C129.501 65.3296 129.819 65.6769 130.066 66.1286C130.313 66.5761 130.436 67.1578 130.436 67.8737V74.3936H128.57V73.0512H128.493C128.37 73.2984 128.184 73.5413 127.937 73.7799C127.69 74.0186 127.373 74.2167 126.985 74.3744C126.597 74.532 126.132 74.6109 125.591 74.6109ZM126.007 73.0768C126.535 73.0768 126.987 72.9724 127.362 72.7636C127.741 72.5548 128.029 72.282 128.225 71.9454C128.425 71.6045 128.525 71.2401 128.525 70.8524V69.5867C128.457 69.6549 128.325 69.7188 128.129 69.7785C127.937 69.8339 127.718 69.8829 127.471 69.9255C127.223 69.9639 126.983 70.0001 126.748 70.0342C126.514 70.064 126.318 70.0896 126.16 70.1109C125.789 70.1578 125.451 70.2366 125.144 70.3474C124.841 70.4582 124.598 70.618 124.415 70.8268C124.236 71.0313 124.147 71.3041 124.147 71.645C124.147 72.118 124.321 72.4759 124.671 72.7188C125.02 72.9575 125.466 73.0768 126.007 73.0768Z" fill="white"/>
</g>
<defs>
<filter id="filter0_d_2415_438" x="140.231" y="40.0139" width="55.4394" height="79.9568" filterUnits="userSpaceOnUse" color-interpolation-filters="sRGB">
<feFlood flood-opacity="0" result="BackgroundImageFix"/>
<feColorMatrix in="SourceAlpha" type="matrix" values="0 0 0 0 0 0 0 0 0 0 0 0 0 0 0 0 0 0 127 0" result="hardAlpha"/>
<feOffset/>
<feGaussianBlur stdDeviation="5"/>
<feColorMatrix type="matrix" values="0 0 0 0 0 0 0 0 0 0 0 0 0 0 0 0 0 0 0.15 0"/>
<feBlend mode="normal" in2="BackgroundImageFix" result="effect1_dropShadow_2415_438"/>
<feBlend mode="normal" in="SourceGraphic" in2="effect1_dropShadow_2415_438" result="shape"/>
</filter>
<filter id="filter1_d_2415_438" x="146.259" y="45.9995" width="43.424" height="43.4165" filterUnits="userSpaceOnUse" color-interpolation-filters="sRGB">
<feFlood flood-opacity="0" result="BackgroundImageFix"/>
<feColorMatrix in="SourceAlpha" type="matrix" values="0 0 0 0 0 0 0 0 0 0 0 0 0 0 0 0 0 0 127 0" result="hardAlpha"/>
<feOffset/>
<feGaussianBlur stdDeviation="5"/>
<feColorMatrix type="matrix" values="0 0 0 0 0 0 0 0 0 0 0 0 0 0 0 0 0 0 0.15 0"/>
<feBlend mode="normal" in2="BackgroundImageFix" result="effect1_dropShadow_2415_438"/>
<feBlend mode="normal" in="SourceGraphic" in2="effect1_dropShadow_2415_438" result="shape"/>
</filter>
<filter id="filter2_d_2415_438" x="0" y="44.3936" width="146" height="56" filterUnits="userSpaceOnUse" color-interpolation-filters="sRGB">
<feFlood flood-opacity="0" result="BackgroundImageFix"/>
<feColorMatrix in="SourceAlpha" type="matrix" values="0 0 0 0 0 0 0 0 0 0 0 0 0 0 0 0 0 0 127 0" result="hardAlpha"/>
<feOffset dx="-6" dy="5"/>
<feGaussianBlur stdDeviation="4"/>
<feComposite in2="hardAlpha" operator="out"/>
<feColorMatrix type="matrix" values="0 0 0 0 0 0 0 0 0 0 0 0 0 0 0 0 0 0 0.5 0"/>
<feBlend mode="normal" in2="BackgroundImageFix" result="effect1_dropShadow_2415_438"/>
<feBlend mode="normal" in="SourceGraphic" in2="effect1_dropShadow_2415_438" result="shape"/>
</filter>
<radialGradient id="paint0_radial_2415_438" cx="0" cy="0" r="1" gradientUnits="userSpaceOnUse" gradientTransform="translate(168.918 109.95) rotate(-47.395) scale(13.4798 13.4837)">
<stop stop-color="#1003C5"/>
<stop offset="0.153846" stop-color="#0C00AF"/>
<stop offset="0.322115" stop-color="#0C0293"/>
<stop offset="0.461538" stop-color="#090174"/>
<stop offset="0.610577" stop-color="#090269"/>
<stop offset="0.769231" stop-color="#070070"/>
<stop offset="0.894231" stop-color="#0C0297"/>
<stop offset="0.947115" stop-color="#1205C6"/>
<stop offset="1" stop-color="#574BFF"/>
</radialGradient>
<radialGradient id="paint1_radial_2415_438" cx="0" cy="0" r="1" gradientUnits="userSpaceOnUse" gradientTransform="translate(167.951 67.708) scale(9.14302 9.14014)">
<stop stop-color="#0002A7"/>
<stop offset="1" stop-color="#000262"/>
</radialGradient>
</defs>
</svg>
