<svg width="195" height="125" viewBox="0 0 195 125" fill="none" xmlns="http://www.w3.org/2000/svg">
<path d="M113 116C113 120.962 108.979 125 104 125C99.0209 125 95 120.979 95 116C95 111.021 99.0209 107 104 107C108.979 107 113 111.021 113 116Z" fill="url(#paint0_radial_2415_483)"/>
<g filter="url(#filter0_d_2415_483)">
<path d="M103.951 52.6204C94.1605 52.6204 86.2311 60.5472 86.2311 70.3344C86.2311 84.5906 96.7295 88.0485 103.951 112.577C111.152 88.0485 121.671 84.6108 121.671 70.3344C121.671 60.5472 113.741 52.6204 103.951 52.6204Z" fill="white"/>
</g>
<g style="mix-blend-mode:multiply">
<path d="M118.792 73.8259C120.721 65.629 115.638 57.4207 107.438 55.4921C99.2387 53.5635 91.0278 58.6449 89.0986 66.8418C87.1694 75.0387 92.2525 83.247 100.452 85.1756C108.651 87.1042 116.862 82.0228 118.792 73.8259Z" fill="#BFBFBF"/>
</g>
<g filter="url(#filter1_d_2415_483)">
<path d="M115.683 70.3142C115.683 76.7851 110.444 82.0225 103.971 82.0225C97.4981 82.0225 92.2591 76.7851 92.2591 70.3142C92.2591 63.8433 97.4981 58.606 103.971 58.606C110.444 58.606 115.683 63.8433 115.683 70.3142Z" fill="white"/>
</g>
<path d="M103.951 79.4546C109 79.4546 113.094 75.3624 113.094 70.3145C113.094 65.2665 109 61.1743 103.951 61.1743C98.9013 61.1743 94.8078 65.2665 94.8078 70.3145C94.8078 75.3624 98.9013 79.4546 103.951 79.4546Z" fill="url(#paint1_radial_2415_483)"/>
<g filter="url(#filter2_d_2415_483)">
<rect x="14" y="3" width="179" height="40" rx="12" fill="#326CE2" shape-rendering="crispEdges"/>
<path d="M33.0185 16.9091V30H29.8608V19.8622H29.7841L26.8565 21.652V18.9162L30.0845 16.9091H33.0185ZM40.9238 30.179C39.9693 30.179 39.1213 30.0064 38.3798 29.6612C37.6383 29.3161 37.0524 28.8409 36.622 28.2358C36.1958 27.6307 35.9743 26.9361 35.9572 26.152H39.0254C39.051 26.6335 39.247 27.0213 39.6135 27.3153C39.9799 27.6051 40.4167 27.75 40.9238 27.75C41.3201 27.75 41.6717 27.6626 41.9785 27.4879C42.2853 27.3132 42.5261 27.0682 42.7008 26.7528C42.8755 26.4332 42.9608 26.0668 42.9565 25.6534C42.9608 25.2315 42.8734 24.8629 42.6944 24.5476C42.5197 24.2322 42.2768 23.9872 41.9657 23.8125C41.6589 23.6335 41.3052 23.544 40.9047 23.544C40.5254 23.5398 40.1653 23.6229 39.8244 23.7933C39.4877 23.9638 39.2321 24.196 39.0574 24.4901L36.264 23.9659L36.8329 16.9091H45.2321V19.4595H39.4345L39.1341 22.5469H39.2108C39.4281 22.1847 39.7775 21.8864 40.2591 21.652C40.7449 21.4134 41.2967 21.294 41.9146 21.294C42.6987 21.294 43.3975 21.4773 44.0112 21.8438C44.6291 22.206 45.1149 22.7088 45.4686 23.3523C45.8265 23.9957 46.0055 24.733 46.0055 25.5639C46.0055 26.4631 45.7924 27.2599 45.3663 27.9545C44.9444 28.6491 44.3521 29.1946 43.5893 29.5909C42.8308 29.983 41.9423 30.179 40.9238 30.179ZM52.8258 30V20.1818H54.737V30H52.8258ZM53.791 18.6669C53.4586 18.6669 53.1731 18.5561 52.9345 18.3345C52.7001 18.1087 52.5829 17.8402 52.5829 17.5291C52.5829 17.2138 52.7001 16.9453 52.9345 16.7237C53.1731 16.4979 53.4586 16.3849 53.791 16.3849C54.1234 16.3849 54.4068 16.4979 54.6412 16.7237C54.8798 16.9453 54.9991 17.2138 54.9991 17.5291C54.9991 17.8402 54.8798 18.1087 54.6412 18.3345C54.4068 18.5561 54.1234 18.6669 53.791 18.6669ZM59.2195 24.1705V30H57.3082V20.1818H59.1428V21.7798H59.2642C59.4901 21.2599 59.8438 20.8423 60.3253 20.527C60.8111 20.2116 61.4226 20.054 62.1598 20.054C62.8288 20.054 63.4148 20.1946 63.9176 20.4759C64.4205 20.7528 64.8104 21.1662 65.0874 21.7159C65.3643 22.2656 65.5028 22.9453 65.5028 23.755V30H63.5916V23.9851C63.5916 23.2734 63.4063 22.7173 63.0355 22.3168C62.6648 21.9119 62.1555 21.7095 61.5078 21.7095C61.0646 21.7095 60.6705 21.8054 60.3253 21.9972C59.9844 22.1889 59.7138 22.4702 59.5135 22.8409C59.3175 23.2074 59.2195 23.6506 59.2195 24.1705ZM72.9831 16.9091H75.3801L79.5478 27.0852H79.7012L83.8688 16.9091H86.2658V30H84.3865V20.527H84.2651L80.4043 29.9808H78.8446L74.9838 20.5206H74.8624V30H72.9831V16.9091ZM91.8413 30.2173C91.2191 30.2173 90.6566 30.1023 90.1538 29.8722C89.6509 29.6378 89.2525 29.299 88.9585 28.8558C88.6687 28.4126 88.5238 27.8693 88.5238 27.2259C88.5238 26.6719 88.6303 26.2159 88.8434 25.858C89.0565 25.5 89.3441 25.2166 89.7063 25.0078C90.0685 24.799 90.4734 24.6413 90.9208 24.5348C91.3683 24.4283 91.8242 24.3473 92.2887 24.2919C92.8768 24.2237 93.354 24.1683 93.7205 24.1257C94.087 24.0788 94.3533 24.0043 94.5195 23.902C94.6857 23.7997 94.7688 23.6335 94.7688 23.4034V23.3587C94.7688 22.8004 94.6112 22.3679 94.2958 22.0611C93.9847 21.7543 93.5202 21.6009 92.9023 21.6009C92.2589 21.6009 91.7518 21.7436 91.381 22.0291C91.0146 22.3104 90.761 22.6236 90.6204 22.9688L88.8242 22.5597C89.0373 21.9631 89.3484 21.4815 89.7575 21.1151C90.1708 20.7443 90.646 20.4759 91.1829 20.3097C91.7198 20.1392 92.2844 20.054 92.8768 20.054C93.2688 20.054 93.6843 20.1009 94.1232 20.1946C94.5664 20.2841 94.9798 20.4503 95.3633 20.6932C95.7511 20.9361 96.0685 21.2834 96.3157 21.7351C96.5629 22.1825 96.6864 22.7642 96.6864 23.4801V30H94.82V28.6577H94.7433C94.6197 28.9048 94.4343 29.1477 94.1871 29.3864C93.94 29.625 93.6225 29.8232 93.2347 29.9808C92.8469 30.1385 92.3825 30.2173 91.8413 30.2173ZM92.2567 28.6832C92.7852 28.6832 93.2369 28.5788 93.6119 28.37C93.9911 28.1612 94.2788 27.8885 94.4748 27.5518C94.6751 27.2109 94.7752 26.8466 94.7752 26.4588V25.1932C94.707 25.2614 94.5749 25.3253 94.3789 25.3849C94.1871 25.4403 93.9677 25.4893 93.7205 25.532C93.4734 25.5703 93.2326 25.6065 92.9982 25.6406C92.7638 25.6705 92.5678 25.696 92.4102 25.7173C92.0394 25.7642 91.7006 25.843 91.3938 25.9538C91.0913 26.0646 90.8484 26.2244 90.6651 26.4332C90.4862 26.6378 90.3967 26.9105 90.3967 27.2514C90.3967 27.7244 90.5714 28.0824 90.9208 28.3253C91.2702 28.5639 91.7156 28.6832 92.2567 28.6832ZM101.143 24.1705V30H99.2321V16.9091H101.118V21.7798H101.239C101.469 21.2514 101.821 20.8317 102.294 20.5206C102.767 20.2095 103.385 20.054 104.148 20.054C104.821 20.054 105.409 20.1925 105.912 20.4695C106.419 20.7464 106.811 21.1598 107.088 21.7095C107.369 22.255 107.51 22.9368 107.51 23.755V30H105.599V23.9851C105.599 23.2649 105.413 22.7067 105.042 22.3104C104.672 21.9098 104.156 21.7095 103.496 21.7095C103.044 21.7095 102.639 21.8054 102.281 21.9972C101.927 22.1889 101.648 22.4702 101.444 22.8409C101.243 23.2074 101.143 23.6506 101.143 24.1705ZM112.917 30.2173C112.295 30.2173 111.733 30.1023 111.23 29.8722C110.727 29.6378 110.329 29.299 110.035 28.8558C109.745 28.4126 109.6 27.8693 109.6 27.2259C109.6 26.6719 109.706 26.2159 109.92 25.858C110.133 25.5 110.42 25.2166 110.782 25.0078C111.145 24.799 111.55 24.6413 111.997 24.5348C112.444 24.4283 112.9 24.3473 113.365 24.2919C113.953 24.2237 114.43 24.1683 114.797 24.1257C115.163 24.0788 115.43 24.0043 115.596 23.902C115.762 23.7997 115.845 23.6335 115.845 23.4034V23.3587C115.845 22.8004 115.687 22.3679 115.372 22.0611C115.061 21.7543 114.596 21.6009 113.979 21.6009C113.335 21.6009 112.828 21.7436 112.457 22.0291C112.091 22.3104 111.837 22.6236 111.697 22.9688L109.9 22.5597C110.113 21.9631 110.425 21.4815 110.834 21.1151C111.247 20.7443 111.722 20.4759 112.259 20.3097C112.796 20.1392 113.361 20.054 113.953 20.054C114.345 20.054 114.76 20.1009 115.199 20.1946C115.643 20.2841 116.056 20.4503 116.439 20.6932C116.827 20.9361 117.145 21.2834 117.392 21.7351C117.639 22.1825 117.763 22.7642 117.763 23.4801V30H115.896V28.6577H115.819C115.696 28.9048 115.51 29.1477 115.263 29.3864C115.016 29.625 114.699 29.8232 114.311 29.9808C113.923 30.1385 113.459 30.2173 112.917 30.2173ZM113.333 28.6832C113.861 28.6832 114.313 28.5788 114.688 28.37C115.067 28.1612 115.355 27.8885 115.551 27.5518C115.751 27.2109 115.851 26.8466 115.851 26.4588V25.1932C115.783 25.2614 115.651 25.3253 115.455 25.3849C115.263 25.4403 115.044 25.4893 114.797 25.532C114.55 25.5703 114.309 25.6065 114.074 25.6406C113.84 25.6705 113.644 25.696 113.486 25.7173C113.116 25.7642 112.777 25.843 112.47 25.9538C112.167 26.0646 111.925 26.2244 111.741 26.4332C111.562 26.6378 111.473 26.9105 111.473 27.2514C111.473 27.7244 111.648 28.0824 111.997 28.3253C112.346 28.5639 112.792 28.6832 113.333 28.6832ZM120.308 30V20.1818H122.156V21.7415H122.258C122.437 21.2131 122.752 20.7976 123.204 20.495C123.66 20.1882 124.175 20.0348 124.751 20.0348C124.87 20.0348 125.011 20.0391 125.173 20.0476C125.339 20.0561 125.469 20.0668 125.562 20.0795V21.9077C125.486 21.8864 125.349 21.8629 125.153 21.8374C124.957 21.8075 124.761 21.7926 124.565 21.7926C124.114 21.7926 123.711 21.8885 123.357 22.0803C123.008 22.2678 122.731 22.5298 122.526 22.8665C122.322 23.1989 122.219 23.5781 122.219 24.0043V30H120.308ZM129.986 30.2173C129.364 30.2173 128.801 30.1023 128.298 29.8722C127.795 29.6378 127.397 29.299 127.103 28.8558C126.813 28.4126 126.668 27.8693 126.668 27.2259C126.668 26.6719 126.775 26.2159 126.988 25.858C127.201 25.5 127.489 25.2166 127.851 25.0078C128.213 24.799 128.618 24.6413 129.065 24.5348C129.513 24.4283 129.969 24.3473 130.433 24.2919C131.021 24.2237 131.499 24.1683 131.865 24.1257C132.232 24.0788 132.498 24.0043 132.664 23.902C132.83 23.7997 132.913 23.6335 132.913 23.4034V23.3587C132.913 22.8004 132.756 22.3679 132.44 22.0611C132.129 21.7543 131.665 21.6009 131.047 21.6009C130.403 21.6009 129.896 21.7436 129.526 22.0291C129.159 22.3104 128.906 22.6236 128.765 22.9688L126.969 22.5597C127.182 21.9631 127.493 21.4815 127.902 21.1151C128.315 20.7443 128.79 20.4759 129.327 20.3097C129.864 20.1392 130.429 20.054 131.021 20.054C131.413 20.054 131.829 20.1009 132.268 20.1946C132.711 20.2841 133.124 20.4503 133.508 20.6932C133.896 20.9361 134.213 21.2834 134.46 21.7351C134.707 22.1825 134.831 22.7642 134.831 23.4801V30H132.964V28.6577H132.888C132.764 28.9048 132.579 29.1477 132.332 29.3864C132.085 29.625 131.767 29.8232 131.379 29.9808C130.991 30.1385 130.527 30.2173 129.986 30.2173ZM130.401 28.6832C130.93 28.6832 131.381 28.5788 131.756 28.37C132.136 28.1612 132.423 27.8885 132.619 27.5518C132.82 27.2109 132.92 26.8466 132.92 26.4588V25.1932C132.852 25.2614 132.719 25.3253 132.523 25.3849C132.332 25.4403 132.112 25.4893 131.865 25.532C131.618 25.5703 131.377 25.6065 131.143 25.6406C130.908 25.6705 130.712 25.696 130.555 25.7173C130.184 25.7642 129.845 25.843 129.538 25.9538C129.236 26.0646 128.993 26.2244 128.81 26.4332C128.631 26.6378 128.541 26.9105 128.541 27.2514C128.541 27.7244 128.716 28.0824 129.065 28.3253C129.415 28.5639 129.86 28.6832 130.401 28.6832ZM144.734 22.5788L143.002 22.8857C142.929 22.6641 142.814 22.4531 142.656 22.2528C142.503 22.0526 142.294 21.8885 142.03 21.7607C141.766 21.6328 141.436 21.5689 141.039 21.5689C140.498 21.5689 140.046 21.6903 139.684 21.9332C139.322 22.1719 139.141 22.4808 139.141 22.8601C139.141 23.1882 139.262 23.4524 139.505 23.6527C139.748 23.853 140.14 24.017 140.681 24.1449L142.241 24.5028C143.144 24.7116 143.818 25.0334 144.261 25.468C144.704 25.9027 144.926 26.4673 144.926 27.1619C144.926 27.75 144.755 28.2741 144.414 28.7344C144.078 29.1903 143.607 29.5483 143.002 29.8082C142.401 30.0682 141.704 30.1982 140.911 30.1982C139.812 30.1982 138.915 29.9638 138.22 29.495C137.526 29.022 137.1 28.3509 136.942 27.4815L138.789 27.2003C138.904 27.6818 139.141 28.0462 139.499 28.2933C139.857 28.5362 140.323 28.6577 140.899 28.6577C141.525 28.6577 142.026 28.5277 142.401 28.2678C142.776 28.0036 142.963 27.6818 142.963 27.3026C142.963 26.9957 142.848 26.7379 142.618 26.5291C142.392 26.3203 142.045 26.1626 141.576 26.0561L139.914 25.6918C138.998 25.483 138.32 25.1506 137.882 24.6946C137.447 24.2386 137.23 23.6612 137.23 22.9624C137.23 22.3828 137.392 21.8757 137.715 21.4411C138.039 21.0064 138.487 20.6676 139.058 20.4247C139.629 20.1776 140.283 20.054 141.02 20.054C142.081 20.054 142.916 20.2841 143.526 20.7443C144.135 21.2003 144.538 21.8118 144.734 22.5788ZM148.938 24.1705V30H147.027V16.9091H148.913V21.7798H149.034C149.264 21.2514 149.616 20.8317 150.089 20.5206C150.562 20.2095 151.18 20.054 151.942 20.054C152.616 20.054 153.204 20.1925 153.707 20.4695C154.214 20.7464 154.606 21.1598 154.883 21.7095C155.164 22.255 155.305 22.9368 155.305 23.755V30H153.393V23.9851C153.393 23.2649 153.208 22.7067 152.837 22.3104C152.467 21.9098 151.951 21.7095 151.29 21.7095C150.839 21.7095 150.434 21.8054 150.076 21.9972C149.722 22.1889 149.443 22.4702 149.239 22.8409C149.038 23.2074 148.938 23.6506 148.938 24.1705ZM162.438 20.1818V21.7159H157.075V20.1818H162.438ZM158.513 17.8295H160.425V27.1172C160.425 27.4879 160.48 27.767 160.591 27.9545C160.702 28.1378 160.844 28.2635 161.019 28.3317C161.198 28.3956 161.392 28.4276 161.601 28.4276C161.754 28.4276 161.888 28.4169 162.004 28.3956C162.119 28.3743 162.208 28.3572 162.272 28.3445L162.617 29.9233C162.506 29.9659 162.349 30.0085 162.144 30.0511C161.94 30.098 161.684 30.1236 161.377 30.1278C160.874 30.1364 160.406 30.0469 159.971 29.8594C159.536 29.6719 159.185 29.3821 158.916 28.9901C158.648 28.598 158.513 28.1058 158.513 27.5135V17.8295ZM164.552 30V20.1818H166.4V21.7415H166.502C166.681 21.2131 166.996 20.7976 167.448 20.495C167.904 20.1882 168.42 20.0348 168.995 20.0348C169.114 20.0348 169.255 20.0391 169.417 20.0476C169.583 20.0561 169.713 20.0668 169.807 20.0795V21.9077C169.73 21.8864 169.594 21.8629 169.398 21.8374C169.202 21.8075 169.006 21.7926 168.809 21.7926C168.358 21.7926 167.955 21.8885 167.601 22.0803C167.252 22.2678 166.975 22.5298 166.77 22.8665C166.566 23.1989 166.464 23.5781 166.464 24.0043V30H164.552ZM174.23 30.2173C173.608 30.2173 173.045 30.1023 172.542 29.8722C172.04 29.6378 171.641 29.299 171.347 28.8558C171.057 28.4126 170.912 27.8693 170.912 27.2259C170.912 26.6719 171.019 26.2159 171.232 25.858C171.445 25.5 171.733 25.2166 172.095 25.0078C172.457 24.799 172.862 24.6413 173.309 24.5348C173.757 24.4283 174.213 24.3473 174.677 24.2919C175.265 24.2237 175.743 24.1683 176.109 24.1257C176.476 24.0788 176.742 24.0043 176.908 23.902C177.074 23.7997 177.157 23.6335 177.157 23.4034V23.3587C177.157 22.8004 177 22.3679 176.684 22.0611C176.373 21.7543 175.909 21.6009 175.291 21.6009C174.648 21.6009 174.14 21.7436 173.77 22.0291C173.403 22.3104 173.15 22.6236 173.009 22.9688L171.213 22.5597C171.426 21.9631 171.737 21.4815 172.146 21.1151C172.559 20.7443 173.035 20.4759 173.572 20.3097C174.108 20.1392 174.673 20.054 175.265 20.054C175.657 20.054 176.073 20.1009 176.512 20.1946C176.955 20.2841 177.368 20.4503 177.752 20.6932C178.14 20.9361 178.457 21.2834 178.704 21.7351C178.952 22.1825 179.075 22.7642 179.075 23.4801V30H177.209V28.6577H177.132C177.008 28.9048 176.823 29.1477 176.576 29.3864C176.329 29.625 176.011 29.8232 175.623 29.9808C175.236 30.1385 174.771 30.2173 174.23 30.2173ZM174.645 28.6832C175.174 28.6832 175.626 28.5788 176.001 28.37C176.38 28.1612 176.667 27.8885 176.863 27.5518C177.064 27.2109 177.164 26.8466 177.164 26.4588V25.1932C177.096 25.2614 176.964 25.3253 176.768 25.3849C176.576 25.4403 176.356 25.4893 176.109 25.532C175.862 25.5703 175.621 25.6065 175.387 25.6406C175.153 25.6705 174.956 25.696 174.799 25.7173C174.428 25.7642 174.089 25.843 173.782 25.9538C173.48 26.0646 173.237 26.2244 173.054 26.4332C172.875 26.6378 172.785 26.9105 172.785 27.2514C172.785 27.7244 172.96 28.0824 173.309 28.3253C173.659 28.5639 174.104 28.6832 174.645 28.6832Z" fill="white"/>
</g>
<defs>
<filter id="filter0_d_2415_483" x="76.2311" y="42.6204" width="55.4394" height="79.9568" filterUnits="userSpaceOnUse" color-interpolation-filters="sRGB">
<feFlood flood-opacity="0" result="BackgroundImageFix"/>
<feColorMatrix in="SourceAlpha" type="matrix" values="0 0 0 0 0 0 0 0 0 0 0 0 0 0 0 0 0 0 127 0" result="hardAlpha"/>
<feOffset/>
<feGaussianBlur stdDeviation="5"/>
<feColorMatrix type="matrix" values="0 0 0 0 0 0 0 0 0 0 0 0 0 0 0 0 0 0 0.15 0"/>
<feBlend mode="normal" in2="BackgroundImageFix" result="effect1_dropShadow_2415_483"/>
<feBlend mode="normal" in="SourceGraphic" in2="effect1_dropShadow_2415_483" result="shape"/>
</filter>
<filter id="filter1_d_2415_483" x="82.2591" y="48.606" width="43.424" height="43.4165" filterUnits="userSpaceOnUse" color-interpolation-filters="sRGB">
<feFlood flood-opacity="0" result="BackgroundImageFix"/>
<feColorMatrix in="SourceAlpha" type="matrix" values="0 0 0 0 0 0 0 0 0 0 0 0 0 0 0 0 0 0 127 0" result="hardAlpha"/>
<feOffset/>
<feGaussianBlur stdDeviation="5"/>
<feColorMatrix type="matrix" values="0 0 0 0 0 0 0 0 0 0 0 0 0 0 0 0 0 0 0.15 0"/>
<feBlend mode="normal" in2="BackgroundImageFix" result="effect1_dropShadow_2415_483"/>
<feBlend mode="normal" in="SourceGraphic" in2="effect1_dropShadow_2415_483" result="shape"/>
</filter>
<filter id="filter2_d_2415_483" x="0" y="0" width="195" height="56" filterUnits="userSpaceOnUse" color-interpolation-filters="sRGB">
<feFlood flood-opacity="0" result="BackgroundImageFix"/>
<feColorMatrix in="SourceAlpha" type="matrix" values="0 0 0 0 0 0 0 0 0 0 0 0 0 0 0 0 0 0 127 0" result="hardAlpha"/>
<feOffset dx="-6" dy="5"/>
<feGaussianBlur stdDeviation="4"/>
<feComposite in2="hardAlpha" operator="out"/>
<feColorMatrix type="matrix" values="0 0 0 0 0 0 0 0 0 0 0 0 0 0 0 0 0 0 0.5 0"/>
<feBlend mode="normal" in2="BackgroundImageFix" result="effect1_dropShadow_2415_483"/>
<feBlend mode="normal" in="SourceGraphic" in2="effect1_dropShadow_2415_483" result="shape"/>
</filter>
<radialGradient id="paint0_radial_2415_483" cx="0" cy="0" r="1" gradientUnits="userSpaceOnUse" gradientTransform="translate(104.918 112.556) rotate(-47.395) scale(13.4798 13.4837)">
<stop stop-color="#1003C5"/>
<stop offset="0.153846" stop-color="#0C00AF"/>
<stop offset="0.322115" stop-color="#0C0293"/>
<stop offset="0.461538" stop-color="#090174"/>
<stop offset="0.610577" stop-color="#090269"/>
<stop offset="0.769231" stop-color="#070070"/>
<stop offset="0.894231" stop-color="#0C0297"/>
<stop offset="0.947115" stop-color="#1205C6"/>
<stop offset="1" stop-color="#574BFF"/>
</radialGradient>
<radialGradient id="paint1_radial_2415_483" cx="0" cy="0" r="1" gradientUnits="userSpaceOnUse" gradientTransform="translate(103.951 70.3145) scale(9.14302 9.14014)">
<stop stop-color="#0002A7"/>
<stop offset="1" stop-color="#000262"/>
</radialGradient>
</defs>
</svg>
