<svg width="245" height="123" viewBox="0 0 245 123" fill="none" xmlns="http://www.w3.org/2000/svg">
<path d="M83 113.394C83 118.356 78.9791 122.394 74 122.394C69.0209 122.394 65 118.373 65 113.394C65 108.414 69.0209 104.394 74 104.394C78.9791 104.394 83 108.414 83 113.394Z" fill="url(#paint0_radial_2415_456)"/>
<g filter="url(#filter0_d_2415_456)">
<path d="M73.9508 50.0139C64.1605 50.0139 56.2311 57.9407 56.2311 67.728C56.2311 81.9842 66.7295 85.442 73.9508 109.971C81.152 85.442 91.6705 82.0044 91.6705 67.728C91.6705 57.9407 83.7412 50.0139 73.9508 50.0139Z" fill="white"/>
</g>
<g style="mix-blend-mode:multiply">
<path d="M88.7915 71.2194C90.7208 63.0226 85.6377 54.8143 77.4382 52.8857C69.2387 50.9571 61.0278 56.0385 59.0986 64.2354C57.1694 72.4322 62.2525 80.6406 70.4519 82.5692C78.6514 84.4978 86.8623 79.4163 88.7915 71.2194Z" fill="#BFBFBF"/>
</g>
<g filter="url(#filter1_d_2415_456)">
<path d="M85.683 67.7078C85.683 74.1787 80.444 79.4161 73.971 79.4161C67.4981 79.4161 62.259 74.1787 62.259 67.7078C62.259 61.2369 67.4981 55.9995 73.971 55.9995C80.444 55.9995 85.683 61.2369 85.683 67.7078Z" fill="white"/>
</g>
<path d="M73.9508 76.8481C79.0004 76.8481 83.0938 72.756 83.0938 67.708C83.0938 62.6601 79.0004 58.5679 73.9508 58.5679C68.9013 58.5679 64.8078 62.6601 64.8078 67.708C64.8078 72.756 68.9013 76.8481 73.9508 76.8481Z" fill="url(#paint1_radial_2415_456)"/>
<g filter="url(#filter2_d_2415_456)">
<rect x="108" y="49.3936" width="135" height="40" rx="12" fill="#326CE2" shape-rendering="crispEdges"/>
<path d="M120.965 76.3936V74.118L125.74 69.9376C126.098 69.6137 126.403 69.3176 126.654 69.0491C126.906 68.7764 127.097 68.5036 127.229 68.2309C127.362 67.9539 127.428 67.6535 127.428 67.3296C127.428 66.9674 127.349 66.6585 127.191 66.4028C127.033 66.1428 126.816 65.9426 126.539 65.8019C126.262 65.6613 125.945 65.591 125.587 65.591C125.224 65.591 124.907 65.6656 124.634 65.8147C124.362 65.9596 124.148 66.1705 123.995 66.4475C123.846 66.7245 123.771 67.0612 123.771 67.4575H120.773C120.773 66.5668 120.974 65.7977 121.374 65.1499C121.775 64.5022 122.337 64.0036 123.062 63.6542C123.79 63.3005 124.636 63.1237 125.599 63.1237C126.592 63.1237 127.455 63.2899 128.188 63.6222C128.921 63.9546 129.488 64.4191 129.888 65.0157C130.293 65.608 130.496 66.2963 130.496 67.0803C130.496 67.5789 130.396 68.0732 130.195 68.5633C129.995 69.0534 129.635 69.5945 129.115 70.1869C128.599 70.7792 127.866 71.4887 126.916 72.3154L125.35 73.76V73.8431H130.656V76.3936H120.965ZM137.527 76.3936V66.5754H139.438V76.3936H137.527ZM138.492 65.0605C138.16 65.0605 137.874 64.9497 137.636 64.7281C137.401 64.5022 137.284 64.2338 137.284 63.9227C137.284 63.6073 137.401 63.3389 137.636 63.1173C137.874 62.8914 138.16 62.7785 138.492 62.7785C138.825 62.7785 139.108 62.8914 139.342 63.1173C139.581 63.3389 139.7 63.6073 139.7 63.9227C139.7 64.2338 139.581 64.5022 139.342 64.7281C139.108 64.9497 138.825 65.0605 138.492 65.0605ZM143.921 70.564V76.3936H142.009V66.5754H143.844V68.1734H143.965C144.191 67.6535 144.545 67.2359 145.026 66.9205C145.512 66.6052 146.124 66.4475 146.861 66.4475C147.53 66.4475 148.116 66.5882 148.619 66.8694C149.122 67.1464 149.512 67.5597 149.789 68.1095C150.066 68.6592 150.204 69.3389 150.204 70.1485V76.3936H148.293V70.3786C148.293 69.667 148.107 69.1109 147.737 68.7103C147.366 68.3055 146.857 68.1031 146.209 68.1031C145.766 68.1031 145.372 68.199 145.026 68.3907C144.686 68.5825 144.415 68.8637 144.215 69.2345C144.019 69.6009 143.921 70.0441 143.921 70.564ZM157.684 63.3026H160.081L164.249 73.4788H164.402L168.57 63.3026H170.967V76.3936H169.088V66.9205H168.966L165.105 76.3744H163.546L159.685 66.9142H159.564V76.3936H157.684V63.3026ZM173.685 76.3936V66.5754H175.596V76.3936H173.685ZM174.65 65.0605C174.318 65.0605 174.032 64.9497 173.794 64.7281C173.559 64.5022 173.442 64.2338 173.442 63.9227C173.442 63.6073 173.559 63.3389 173.794 63.1173C174.032 62.8914 174.318 62.7785 174.65 62.7785C174.983 62.7785 175.266 62.8914 175.501 63.1173C175.739 63.3389 175.858 63.6073 175.858 63.9227C175.858 64.2338 175.739 64.5022 175.501 64.7281C175.266 64.9497 174.983 65.0605 174.65 65.0605ZM177.963 76.3936V75.0832L183.281 68.3268V68.2373H178.136V66.5754H185.665V67.9688L180.552 74.6421V74.7316H185.844V76.3936H177.963ZM191.954 76.5917C191.033 76.5917 190.23 76.3808 189.544 75.9589C188.858 75.537 188.325 74.9468 187.946 74.1883C187.567 73.4298 187.377 72.5434 187.377 71.5292C187.377 70.5107 187.567 69.6201 187.946 68.8573C188.325 68.0945 188.858 67.5022 189.544 67.0803C190.23 66.6585 191.033 66.4475 191.954 66.4475C192.874 66.4475 193.677 66.6585 194.363 67.0803C195.05 67.5022 195.582 68.0945 195.961 68.8573C196.341 69.6201 196.53 70.5107 196.53 71.5292C196.53 72.5434 196.341 73.4298 195.961 74.1883C195.582 74.9468 195.05 75.537 194.363 75.9589C193.677 76.3808 192.874 76.5917 191.954 76.5917ZM191.96 74.9873C192.557 74.9873 193.051 74.8296 193.443 74.5143C193.835 74.199 194.125 73.7792 194.312 73.2551C194.504 72.7309 194.6 72.1535 194.6 71.5228C194.6 70.8964 194.504 70.3211 194.312 69.797C194.125 69.2686 193.835 68.8445 193.443 68.5249C193.051 68.2053 192.557 68.0455 191.96 68.0455C191.359 68.0455 190.861 68.2053 190.464 68.5249C190.072 68.8445 189.78 69.2686 189.589 69.797C189.401 70.3211 189.307 70.8964 189.307 71.5228C189.307 72.1535 189.401 72.7309 189.589 73.2551C189.78 73.7792 190.072 74.199 190.464 74.5143C190.861 74.8296 191.359 74.9873 191.96 74.9873ZM198.664 76.3936V66.5754H200.511V68.135H200.613C200.792 67.6066 201.108 67.1911 201.559 66.8886C202.015 66.5818 202.531 66.4284 203.106 66.4284C203.225 66.4284 203.366 66.4326 203.528 66.4411C203.694 66.4497 203.824 66.4603 203.918 66.4731V68.3012C203.841 68.2799 203.705 68.2565 203.509 68.2309C203.313 68.2011 203.117 68.1862 202.921 68.1862C202.469 68.1862 202.066 68.282 201.713 68.4738C201.363 68.6613 201.086 68.9234 200.882 69.26C200.677 69.5924 200.575 69.9717 200.575 70.3978V76.3936H198.664ZM208.341 76.6109C207.719 76.6109 207.157 76.4958 206.654 76.2657C206.151 76.0313 205.752 75.6926 205.458 75.2494C205.169 74.8062 205.024 74.2629 205.024 73.6194C205.024 73.0654 205.13 72.6095 205.343 72.2515C205.556 71.8936 205.844 71.6102 206.206 71.4014C206.569 71.1926 206.973 71.0349 207.421 70.9284C207.868 70.8218 208.324 70.7409 208.789 70.6855C209.377 70.6173 209.854 70.5619 210.221 70.5193C210.587 70.4724 210.853 70.3978 211.02 70.2955C211.186 70.1933 211.269 70.0271 211.269 69.797V69.7522C211.269 69.194 211.111 68.7615 210.796 68.4546C210.485 68.1478 210.02 67.9944 209.402 67.9944C208.759 67.9944 208.252 68.1372 207.881 68.4227C207.515 68.7039 207.261 69.0171 207.12 69.3623L205.324 68.9532C205.537 68.3566 205.848 67.8751 206.257 67.5086C206.671 67.1379 207.146 66.8694 207.683 66.7032C208.22 66.5328 208.784 66.4475 209.377 66.4475C209.769 66.4475 210.184 66.4944 210.623 66.5882C211.066 66.6776 211.48 66.8438 211.863 67.0867C212.251 67.3296 212.569 67.6769 212.816 68.1286C213.063 68.5761 213.186 69.1578 213.186 69.8737V76.3936H211.32V75.0512H211.243C211.12 75.2984 210.934 75.5413 210.687 75.7799C210.44 76.0186 210.123 76.2167 209.735 76.3744C209.347 76.532 208.882 76.6109 208.341 76.6109ZM208.757 75.0768C209.285 75.0768 209.737 74.9724 210.112 74.7636C210.491 74.5548 210.779 74.282 210.975 73.9454C211.175 73.6045 211.275 73.2401 211.275 72.8524V71.5867C211.207 71.6549 211.075 71.7188 210.879 71.7785C210.687 71.8339 210.468 71.8829 210.221 71.9255C209.973 71.9639 209.733 72.0001 209.498 72.0342C209.264 72.064 209.068 72.0896 208.91 72.1109C208.539 72.1578 208.201 72.2366 207.894 72.3474C207.591 72.4582 207.348 72.618 207.165 72.8268C206.986 73.0313 206.897 73.3041 206.897 73.645C206.897 74.118 207.071 74.4759 207.421 74.7188C207.77 74.9575 208.216 75.0768 208.757 75.0768ZM215.732 76.3936V66.5754H217.567V68.1734H217.688C217.893 67.6322 218.227 67.2103 218.692 66.9078C219.156 66.6009 219.712 66.4475 220.36 66.4475C221.016 66.4475 221.566 66.6009 222.009 66.9078C222.456 67.2146 222.787 67.6365 223 68.1734H223.102C223.336 67.6492 223.709 67.2316 224.221 66.9205C224.732 66.6052 225.341 66.4475 226.049 66.4475C226.939 66.4475 227.666 66.7267 228.229 67.2849C228.795 67.8431 229.079 68.6847 229.079 69.8097V76.3936H227.167V69.9887C227.167 69.324 226.986 68.8424 226.624 68.5441C226.262 68.2458 225.829 68.0967 225.327 68.0967C224.704 68.0967 224.221 68.2884 223.876 68.672C223.53 69.0512 223.358 69.5392 223.358 70.1357V76.3936H221.453V69.8673C221.453 69.3346 221.287 68.9063 220.954 68.5825C220.622 68.2586 220.189 68.0967 219.657 68.0967C219.295 68.0967 218.96 68.1926 218.653 68.3843C218.351 68.5718 218.106 68.8339 217.918 69.1705C217.735 69.5072 217.643 69.8971 217.643 70.3403V76.3936H215.732Z" fill="white"/>
</g>
<defs>
<filter id="filter0_d_2415_456" x="46.2311" y="40.0139" width="55.4394" height="79.9568" filterUnits="userSpaceOnUse" color-interpolation-filters="sRGB">
<feFlood flood-opacity="0" result="BackgroundImageFix"/>
<feColorMatrix in="SourceAlpha" type="matrix" values="0 0 0 0 0 0 0 0 0 0 0 0 0 0 0 0 0 0 127 0" result="hardAlpha"/>
<feOffset/>
<feGaussianBlur stdDeviation="5"/>
<feColorMatrix type="matrix" values="0 0 0 0 0 0 0 0 0 0 0 0 0 0 0 0 0 0 0.15 0"/>
<feBlend mode="normal" in2="BackgroundImageFix" result="effect1_dropShadow_2415_456"/>
<feBlend mode="normal" in="SourceGraphic" in2="effect1_dropShadow_2415_456" result="shape"/>
</filter>
<filter id="filter1_d_2415_456" x="52.259" y="45.9995" width="43.424" height="43.4165" filterUnits="userSpaceOnUse" color-interpolation-filters="sRGB">
<feFlood flood-opacity="0" result="BackgroundImageFix"/>
<feColorMatrix in="SourceAlpha" type="matrix" values="0 0 0 0 0 0 0 0 0 0 0 0 0 0 0 0 0 0 127 0" result="hardAlpha"/>
<feOffset/>
<feGaussianBlur stdDeviation="5"/>
<feColorMatrix type="matrix" values="0 0 0 0 0 0 0 0 0 0 0 0 0 0 0 0 0 0 0.15 0"/>
<feBlend mode="normal" in2="BackgroundImageFix" result="effect1_dropShadow_2415_456"/>
<feBlend mode="normal" in="SourceGraphic" in2="effect1_dropShadow_2415_456" result="shape"/>
</filter>
<filter id="filter2_d_2415_456" x="94" y="46.3936" width="151" height="56" filterUnits="userSpaceOnUse" color-interpolation-filters="sRGB">
<feFlood flood-opacity="0" result="BackgroundImageFix"/>
<feColorMatrix in="SourceAlpha" type="matrix" values="0 0 0 0 0 0 0 0 0 0 0 0 0 0 0 0 0 0 127 0" result="hardAlpha"/>
<feOffset dx="-6" dy="5"/>
<feGaussianBlur stdDeviation="4"/>
<feComposite in2="hardAlpha" operator="out"/>
<feColorMatrix type="matrix" values="0 0 0 0 0 0 0 0 0 0 0 0 0 0 0 0 0 0 0.5 0"/>
<feBlend mode="normal" in2="BackgroundImageFix" result="effect1_dropShadow_2415_456"/>
<feBlend mode="normal" in="SourceGraphic" in2="effect1_dropShadow_2415_456" result="shape"/>
</filter>
<radialGradient id="paint0_radial_2415_456" cx="0" cy="0" r="1" gradientUnits="userSpaceOnUse" gradientTransform="translate(74.9185 109.95) rotate(-47.395) scale(13.4798 13.4837)">
<stop stop-color="#1003C5"/>
<stop offset="0.153846" stop-color="#0C00AF"/>
<stop offset="0.322115" stop-color="#0C0293"/>
<stop offset="0.461538" stop-color="#090174"/>
<stop offset="0.610577" stop-color="#090269"/>
<stop offset="0.769231" stop-color="#070070"/>
<stop offset="0.894231" stop-color="#0C0297"/>
<stop offset="0.947115" stop-color="#1205C6"/>
<stop offset="1" stop-color="#574BFF"/>
</radialGradient>
<radialGradient id="paint1_radial_2415_456" cx="0" cy="0" r="1" gradientUnits="userSpaceOnUse" gradientTransform="translate(73.9508 67.708) scale(9.14302 9.14014)">
<stop stop-color="#0002A7"/>
<stop offset="1" stop-color="#000262"/>
</radialGradient>
</defs>
</svg>
