<svg width="164" height="126" viewBox="0 0 164 126" fill="none" xmlns="http://www.w3.org/2000/svg">
<path d="M97 116.394C97 121.356 92.9791 125.394 88 125.394C83.0209 125.394 79 121.373 79 116.394C79 111.414 83.0209 107.394 88 107.394C92.9791 107.394 97 111.414 97 116.394Z" fill="url(#paint0_radial_2415_429)"/>
<g filter="url(#filter0_d_2415_429)">
<path d="M87.9508 53.0139C78.1605 53.0139 70.2311 60.9407 70.2311 70.728C70.2311 84.9842 80.7295 88.442 87.9508 112.971C95.152 88.442 105.671 85.0044 105.671 70.728C105.671 60.9407 97.7412 53.0139 87.9508 53.0139Z" fill="white"/>
</g>
<g style="mix-blend-mode:multiply">
<path d="M102.792 74.2194C104.721 66.0226 99.6377 57.8143 91.4382 55.8857C83.2387 53.9571 75.0278 59.0385 73.0986 67.2354C71.1694 75.4322 76.2525 83.6406 84.4519 85.5692C92.6514 87.4978 100.862 82.4163 102.792 74.2194Z" fill="#BFBFBF"/>
</g>
<g filter="url(#filter1_d_2415_429)">
<path d="M99.683 70.7078C99.683 77.1787 94.444 82.4161 87.971 82.4161C81.4981 82.4161 76.2591 77.1787 76.2591 70.7078C76.2591 64.2369 81.4981 58.9995 87.971 58.9995C94.444 58.9995 99.683 64.2369 99.683 70.7078Z" fill="white"/>
</g>
<path d="M87.9508 79.8481C93.0004 79.8481 97.0938 75.756 97.0938 70.708C97.0938 65.6601 93.0004 61.5679 87.9508 61.5679C82.9013 61.5679 78.8078 65.6601 78.8078 70.708C78.8078 75.756 82.9013 79.8481 87.9508 79.8481Z" fill="url(#paint1_radial_2415_429)"/>
<g filter="url(#filter2_d_2415_429)">
<rect x="14" y="3.39355" width="148" height="40" rx="12" fill="#326CE2" shape-rendering="crispEdges"/>
<path d="M31.9446 30.5725C30.9474 30.5725 30.0632 30.4021 29.2919 30.0612C28.5249 29.716 27.9197 29.2409 27.4766 28.6357C27.0334 28.0306 26.8075 27.3339 26.799 26.5455H29.9822C29.995 26.8311 30.0866 27.0846 30.2571 27.3062C30.4276 27.5235 30.6598 27.694 30.9538 27.8176C31.2479 27.9411 31.5824 28.0029 31.9574 28.0029C32.3324 28.0029 32.6626 27.9369 32.9482 27.8048C33.2379 27.6684 33.4638 27.483 33.6257 27.2487C33.7876 27.01 33.8665 26.7373 33.8622 26.4305C33.8665 26.1237 33.7791 25.8509 33.6001 25.6123C33.4212 25.3737 33.1676 25.1883 32.8395 25.0562C32.5156 24.9241 32.1321 24.858 31.6889 24.858H30.4169V22.608H31.6889C32.0767 22.608 32.4176 22.5441 32.7116 22.4163C33.0099 22.2884 33.2422 22.1095 33.4084 21.8793C33.5746 21.645 33.6555 21.3765 33.6513 21.074C33.6555 20.7799 33.5852 20.5221 33.4403 20.3005C33.2997 20.0747 33.1016 19.8999 32.8459 19.7764C32.5945 19.6528 32.3026 19.591 31.9702 19.591C31.6207 19.591 31.3033 19.6528 31.0178 19.7764C30.7365 19.8999 30.5128 20.0747 30.3466 20.3005C30.1804 20.5264 30.093 20.7884 30.0845 21.0867H27.0611C27.0696 20.3069 27.2869 19.6208 27.7131 19.0285C28.1392 18.4319 28.7188 17.9653 29.4517 17.6286C30.1889 17.292 31.0284 17.1237 31.9702 17.1237C32.9077 17.1237 33.7322 17.2877 34.4439 17.6159C35.1555 17.944 35.7095 18.3914 36.1058 18.9582C36.5021 19.5207 36.7003 20.1578 36.7003 20.8694C36.7045 21.6066 36.4638 22.2139 35.978 22.6911C35.4964 23.1684 34.8764 23.4624 34.1179 23.5732V23.6755C35.1321 23.7948 35.897 24.123 36.4126 24.6599C36.9325 25.1968 37.1903 25.868 37.1861 26.6734C37.1861 27.4319 36.9624 28.1052 36.5149 28.6933C36.0717 29.2771 35.4538 29.7373 34.6612 30.074C33.8729 30.4063 32.9673 30.5725 31.9446 30.5725ZM44.0543 30.3936V20.5754H45.9656V30.3936H44.0543ZM45.0195 19.0605C44.6871 19.0605 44.4016 18.9497 44.163 18.7281C43.9286 18.5022 43.8114 18.2338 43.8114 17.9227C43.8114 17.6073 43.9286 17.3389 44.163 17.1173C44.4016 16.8914 44.6871 16.7785 45.0195 16.7785C45.3519 16.7785 45.6353 16.8914 45.8697 17.1173C46.1083 17.3389 46.2276 17.6073 46.2276 17.9227C46.2276 18.2338 46.1083 18.5022 45.8697 18.7281C45.6353 18.9497 45.3519 19.0605 45.0195 19.0605ZM50.448 24.564V30.3936H48.5368V20.5754H50.3713V22.1734H50.4927C50.7186 21.6535 51.0723 21.2359 51.5538 20.9205C52.0396 20.6052 52.6511 20.4475 53.3883 20.4475C54.0574 20.4475 54.6433 20.5882 55.1461 20.8694C55.649 21.1464 56.0389 21.5597 56.3159 22.1095C56.5929 22.6592 56.7314 23.3389 56.7314 24.1485V30.3936H54.8201V24.3786C54.8201 23.667 54.6348 23.1109 54.264 22.7103C53.8933 22.3055 53.3841 22.1031 52.7363 22.1031C52.2931 22.1031 51.899 22.199 51.5538 22.3907C51.2129 22.5825 50.9423 22.8637 50.742 23.2345C50.546 23.6009 50.448 24.0441 50.448 24.564ZM74.7777 17.3026V30.3936H72.9624L66.3082 20.7927H66.1868V30.3936H64.2116V17.3026H66.0398L72.7003 26.9163H72.8217V17.3026H74.7777ZM81.737 30.5917C80.7697 30.5917 79.9366 30.385 79.2377 29.9717C78.5431 29.5541 78.0062 28.9681 77.627 28.2139C77.252 27.4553 77.0645 26.5668 77.0645 25.5484C77.0645 24.5427 77.252 23.6563 77.627 22.8893C78.0062 22.1222 78.5346 21.5235 79.2122 21.0931C79.894 20.6627 80.6909 20.4475 81.6028 20.4475C82.1568 20.4475 82.6937 20.5392 83.2136 20.7224C83.7335 20.9056 84.2001 21.1933 84.6135 21.5853C85.0268 21.9774 85.3528 22.4866 85.5914 23.113C85.8301 23.7352 85.9494 24.4916 85.9494 25.3822V26.0597H78.1447V24.6279H84.0765C84.0765 24.1251 83.9743 23.6798 83.7697 23.292C83.5652 22.8999 83.2775 22.591 82.9068 22.3651C82.5403 22.1393 82.1099 22.0264 81.6156 22.0264C81.0787 22.0264 80.6099 22.1585 80.2093 22.4227C79.813 22.6826 79.5062 23.0235 79.2889 23.4454C79.0758 23.863 78.9693 24.3168 78.9693 24.8069V25.9255C78.9693 26.5818 79.0843 27.14 79.3145 27.6002C79.5488 28.0605 79.8748 28.412 80.2924 28.6549C80.71 28.8936 81.198 29.0129 81.7562 29.0129C82.1184 29.0129 82.4487 28.9617 82.747 28.8595C83.0453 28.7529 83.3031 28.5953 83.5204 28.3865C83.7377 28.1776 83.9039 27.9198 84.019 27.613L85.8279 27.939C85.6831 28.4717 85.4231 28.9383 85.0481 29.3389C84.6774 29.7352 84.2108 30.0441 83.6483 30.2657C83.09 30.483 82.4529 30.5917 81.737 30.5917ZM90.1809 30.3936L87.2917 20.5754H89.2669L91.1909 27.7856H91.2868L93.2172 20.5754H95.1923L97.1099 27.7536H97.2058L99.117 20.5754H101.092L98.2093 30.3936H96.2598L94.2654 23.3048H94.1184L92.1241 30.3936H90.1809ZM112.061 30.3936H107.823V17.3026H112.195C113.478 17.3026 114.579 17.5647 115.5 18.0889C116.42 18.6088 117.126 19.3566 117.616 20.3325C118.11 21.3041 118.357 22.4695 118.357 23.8289C118.357 25.1926 118.108 26.3644 117.609 27.3445C117.115 28.3247 116.399 29.0789 115.461 29.6073C114.524 30.1315 113.39 30.3936 112.061 30.3936ZM109.798 28.6677H111.952C112.949 28.6677 113.778 28.4802 114.439 28.1052C115.099 27.7259 115.594 27.1784 115.922 26.4624C116.25 25.7423 116.414 24.8644 116.414 23.8289C116.414 22.8019 116.25 21.9305 115.922 21.2146C115.598 20.4987 115.114 19.9553 114.471 19.5846C113.827 19.2139 113.028 19.0285 112.074 19.0285H109.798V28.6677ZM124.891 30.5917C123.924 30.5917 123.091 30.385 122.392 29.9717C121.697 29.5541 121.161 28.9681 120.781 28.2139C120.406 27.4553 120.219 26.5668 120.219 25.5484C120.219 24.5427 120.406 23.6563 120.781 22.8893C121.161 22.1222 121.689 21.5235 122.366 21.0931C123.048 20.6627 123.845 20.4475 124.757 20.4475C125.311 20.4475 125.848 20.5392 126.368 20.7224C126.888 20.9056 127.354 21.1933 127.768 21.5853C128.181 21.9774 128.507 22.4866 128.746 23.113C128.984 23.7352 129.104 24.4916 129.104 25.3822V26.0597H121.299V24.6279H127.231C127.231 24.1251 127.129 23.6798 126.924 23.292C126.719 22.8999 126.432 22.591 126.061 22.3651C125.695 22.1393 125.264 22.0264 124.77 22.0264C124.233 22.0264 123.764 22.1585 123.364 22.4227C122.967 22.6826 122.661 23.0235 122.443 23.4454C122.23 23.863 122.124 24.3168 122.124 24.8069V25.9255C122.124 26.5818 122.239 27.14 122.469 27.6002C122.703 28.0605 123.029 28.412 123.447 28.6549C123.864 28.8936 124.352 29.0129 124.911 29.0129C125.273 29.0129 125.603 28.9617 125.901 28.8595C126.2 28.7529 126.457 28.5953 126.675 28.3865C126.892 28.1776 127.058 27.9198 127.173 27.613L128.982 27.939C128.837 28.4717 128.577 28.9383 128.202 29.3389C127.832 29.7352 127.365 30.0441 126.803 30.2657C126.244 30.483 125.607 30.5917 124.891 30.5917ZM133.135 17.3026V30.3936H131.224V17.3026H133.135ZM137.618 24.564V30.3936H135.707V17.3026H137.592V22.1734H137.714C137.944 21.645 138.295 21.2252 138.768 20.9142C139.241 20.6031 139.859 20.4475 140.622 20.4475C141.295 20.4475 141.884 20.586 142.386 20.863C142.893 21.14 143.286 21.5534 143.562 22.1031C143.844 22.6485 143.984 23.3303 143.984 24.1485V30.3936H142.073V24.3786C142.073 23.6585 141.888 23.1002 141.517 22.7039C141.146 22.3034 140.631 22.1031 139.97 22.1031C139.518 22.1031 139.114 22.199 138.756 22.3907C138.402 22.5825 138.123 22.8637 137.918 23.2345C137.718 23.6009 137.618 24.0441 137.618 24.564ZM146.535 30.3936V20.5754H148.446V30.3936H146.535ZM147.5 19.0605C147.168 19.0605 146.882 18.9497 146.643 18.7281C146.409 18.5022 146.292 18.2338 146.292 17.9227C146.292 17.6073 146.409 17.3389 146.643 17.1173C146.882 16.8914 147.168 16.7785 147.5 16.7785C147.832 16.7785 148.116 16.8914 148.35 17.1173C148.589 17.3389 148.708 17.6073 148.708 17.9227C148.708 18.2338 148.589 18.5022 148.35 18.7281C148.116 18.9497 147.832 19.0605 147.5 19.0605Z" fill="white"/>
</g>
<defs>
<filter id="filter0_d_2415_429" x="60.2311" y="43.0139" width="55.4394" height="79.9568" filterUnits="userSpaceOnUse" color-interpolation-filters="sRGB">
<feFlood flood-opacity="0" result="BackgroundImageFix"/>
<feColorMatrix in="SourceAlpha" type="matrix" values="0 0 0 0 0 0 0 0 0 0 0 0 0 0 0 0 0 0 127 0" result="hardAlpha"/>
<feOffset/>
<feGaussianBlur stdDeviation="5"/>
<feColorMatrix type="matrix" values="0 0 0 0 0 0 0 0 0 0 0 0 0 0 0 0 0 0 0.15 0"/>
<feBlend mode="normal" in2="BackgroundImageFix" result="effect1_dropShadow_2415_429"/>
<feBlend mode="normal" in="SourceGraphic" in2="effect1_dropShadow_2415_429" result="shape"/>
</filter>
<filter id="filter1_d_2415_429" x="66.2591" y="48.9995" width="43.424" height="43.4165" filterUnits="userSpaceOnUse" color-interpolation-filters="sRGB">
<feFlood flood-opacity="0" result="BackgroundImageFix"/>
<feColorMatrix in="SourceAlpha" type="matrix" values="0 0 0 0 0 0 0 0 0 0 0 0 0 0 0 0 0 0 127 0" result="hardAlpha"/>
<feOffset/>
<feGaussianBlur stdDeviation="5"/>
<feColorMatrix type="matrix" values="0 0 0 0 0 0 0 0 0 0 0 0 0 0 0 0 0 0 0.15 0"/>
<feBlend mode="normal" in2="BackgroundImageFix" result="effect1_dropShadow_2415_429"/>
<feBlend mode="normal" in="SourceGraphic" in2="effect1_dropShadow_2415_429" result="shape"/>
</filter>
<filter id="filter2_d_2415_429" x="0" y="0.393555" width="164" height="56" filterUnits="userSpaceOnUse" color-interpolation-filters="sRGB">
<feFlood flood-opacity="0" result="BackgroundImageFix"/>
<feColorMatrix in="SourceAlpha" type="matrix" values="0 0 0 0 0 0 0 0 0 0 0 0 0 0 0 0 0 0 127 0" result="hardAlpha"/>
<feOffset dx="-6" dy="5"/>
<feGaussianBlur stdDeviation="4"/>
<feComposite in2="hardAlpha" operator="out"/>
<feColorMatrix type="matrix" values="0 0 0 0 0 0 0 0 0 0 0 0 0 0 0 0 0 0 0.5 0"/>
<feBlend mode="normal" in2="BackgroundImageFix" result="effect1_dropShadow_2415_429"/>
<feBlend mode="normal" in="SourceGraphic" in2="effect1_dropShadow_2415_429" result="shape"/>
</filter>
<radialGradient id="paint0_radial_2415_429" cx="0" cy="0" r="1" gradientUnits="userSpaceOnUse" gradientTransform="translate(88.9185 112.95) rotate(-47.395) scale(13.4798 13.4837)">
<stop stop-color="#1003C5"/>
<stop offset="0.153846" stop-color="#0C00AF"/>
<stop offset="0.322115" stop-color="#0C0293"/>
<stop offset="0.461538" stop-color="#090174"/>
<stop offset="0.610577" stop-color="#090269"/>
<stop offset="0.769231" stop-color="#070070"/>
<stop offset="0.894231" stop-color="#0C0297"/>
<stop offset="0.947115" stop-color="#1205C6"/>
<stop offset="1" stop-color="#574BFF"/>
</radialGradient>
<radialGradient id="paint1_radial_2415_429" cx="0" cy="0" r="1" gradientUnits="userSpaceOnUse" gradientTransform="translate(87.9508 70.708) scale(9.14302 9.14014)">
<stop stop-color="#0002A7"/>
<stop offset="1" stop-color="#000262"/>
</radialGradient>
</defs>
</svg>
