<svg width="196" height="126" viewBox="0 0 196 126" fill="none" xmlns="http://www.w3.org/2000/svg">
<path d="M113 116.394C113 121.356 108.979 125.394 104 125.394C99.0209 125.394 95 121.373 95 116.394C95 111.414 99.0209 107.394 104 107.394C108.979 107.394 113 111.414 113 116.394Z" fill="url(#paint0_radial_2415_465)"/>
<g filter="url(#filter0_d_2415_465)">
<path d="M103.951 53.0139C94.1605 53.0139 86.2311 60.9407 86.2311 70.728C86.2311 84.9842 96.7295 88.442 103.951 112.971C111.152 88.442 121.671 85.0044 121.671 70.728C121.671 60.9407 113.741 53.0139 103.951 53.0139Z" fill="white"/>
</g>
<g style="mix-blend-mode:multiply">
<path d="M118.792 74.2194C120.721 66.0226 115.638 57.8143 107.438 55.8857C99.2387 53.9571 91.0278 59.0385 89.0986 67.2354C87.1694 75.4322 92.2525 83.6406 100.452 85.5692C108.651 87.4978 116.862 82.4163 118.792 74.2194Z" fill="#BFBFBF"/>
</g>
<g filter="url(#filter1_d_2415_465)">
<path d="M115.683 70.7078C115.683 77.1787 110.444 82.4161 103.971 82.4161C97.4981 82.4161 92.2591 77.1787 92.2591 70.7078C92.2591 64.2369 97.4981 58.9995 103.971 58.9995C110.444 58.9995 115.683 64.2369 115.683 70.7078Z" fill="white"/>
</g>
<path d="M103.951 79.8481C109 79.8481 113.094 75.756 113.094 70.708C113.094 65.6601 109 61.5679 103.951 61.5679C98.9013 61.5679 94.8078 65.6601 94.8078 70.708C94.8078 75.756 98.9013 79.8481 103.951 79.8481Z" fill="url(#paint1_radial_2415_465)"/>
<g filter="url(#filter2_d_2415_465)">
<rect x="14" y="3.39355" width="180" height="40" rx="12" fill="#326CE2" shape-rendering="crispEdges"/>
<path d="M27.5213 30.3936L32.8011 19.9362V19.8531H26.6264V17.3026H36.0739V19.8722L30.7749 30.3936H27.5213ZM42.8942 30.3936V20.5754H44.8054V30.3936H42.8942ZM43.8594 19.0605C43.527 19.0605 43.2415 18.9497 43.0028 18.7281C42.7685 18.5022 42.6513 18.2338 42.6513 17.9227C42.6513 17.6073 42.7685 17.3389 43.0028 17.1173C43.2415 16.8914 43.527 16.7785 43.8594 16.7785C44.1918 16.7785 44.4751 16.8914 44.7095 17.1173C44.9482 17.3389 45.0675 17.6073 45.0675 17.9227C45.0675 18.2338 44.9482 18.5022 44.7095 18.7281C44.4751 18.9497 44.1918 19.0605 43.8594 19.0605ZM49.2878 24.564V30.3936H47.3766V20.5754H49.2111V22.1734H49.3326C49.5584 21.6535 49.9121 21.2359 50.3936 20.9205C50.8794 20.6052 51.4909 20.4475 52.2282 20.4475C52.8972 20.4475 53.4831 20.5882 53.986 20.8694C54.4888 21.1464 54.8787 21.5597 55.1557 22.1095C55.4327 22.6592 55.5712 23.3389 55.5712 24.1485V30.3936H53.66V24.3786C53.66 23.667 53.4746 23.1109 53.1039 22.7103C52.7331 22.3055 52.2239 22.1031 51.5762 22.1031C51.133 22.1031 50.7388 22.199 50.3936 22.3907C50.0527 22.5825 49.7821 22.8637 49.5819 23.2345C49.3858 23.6009 49.2878 24.0441 49.2878 24.564ZM71.4698 17.3026H73.4514V25.9127C73.4514 26.8289 73.2362 27.6407 72.8058 28.3481C72.3754 29.0512 71.7702 29.6052 70.9904 30.01C70.2106 30.4106 69.2965 30.6109 68.2482 30.6109C67.2042 30.6109 66.2923 30.4106 65.5124 30.01C64.7326 29.6052 64.1275 29.0512 63.6971 28.3481C63.2667 27.6407 63.0515 26.8289 63.0515 25.9127V17.3026H65.0266V25.7529C65.0266 26.3453 65.1566 26.8715 65.4165 27.3318C65.6808 27.792 66.0536 28.1542 66.5352 28.4184C67.0167 28.6784 67.5877 28.8083 68.2482 28.8083C68.913 28.8083 69.4862 28.6784 69.9677 28.4184C70.4535 28.1542 70.8242 27.792 71.0799 27.3318C71.3398 26.8715 71.4698 26.3453 71.4698 25.7529V17.3026ZM80.7527 20.5754V22.1095H75.3897V20.5754H80.7527ZM76.8279 18.2231H78.7392V27.5107C78.7392 27.8815 78.7946 28.1606 78.9054 28.3481C79.0162 28.5313 79.1589 28.657 79.3336 28.7252C79.5126 28.7892 79.7065 28.8211 79.9153 28.8211C80.0687 28.8211 80.2029 28.8105 80.318 28.7892C80.4331 28.7678 80.5225 28.7508 80.5865 28.738L80.9316 30.3169C80.8208 30.3595 80.6632 30.4021 80.4586 30.4447C80.2541 30.4916 79.9984 30.5171 79.6916 30.5214C79.1887 30.5299 78.72 30.4404 78.2853 30.2529C77.8507 30.0654 77.4991 29.7757 77.2306 29.3836C76.9622 28.9916 76.8279 28.4994 76.8279 27.907V18.2231ZM87.4499 20.5754V22.1095H82.087V20.5754H87.4499ZM83.5252 18.2231H85.4364V27.5107C85.4364 27.8815 85.4918 28.1606 85.6026 28.3481C85.7134 28.5313 85.8562 28.657 86.0309 28.7252C86.2099 28.7892 86.4038 28.8211 86.6126 28.8211C86.766 28.8211 86.9002 28.8105 87.0153 28.7892C87.1303 28.7678 87.2198 28.7508 87.2837 28.738L87.6289 30.3169C87.5181 30.3595 87.3604 30.4021 87.1559 30.4447C86.9513 30.4916 86.6957 30.5171 86.3888 30.5214C85.886 30.5299 85.4173 30.4404 84.9826 30.2529C84.5479 30.0654 84.1964 29.7757 83.9279 29.3836C83.6594 28.9916 83.5252 28.4994 83.5252 27.907V18.2231ZM92.4213 30.6109C91.7992 30.6109 91.2367 30.4958 90.7338 30.2657C90.231 30.0313 89.8326 29.6926 89.5385 29.2494C89.2488 28.8062 89.1039 28.2629 89.1039 27.6194C89.1039 27.0654 89.2104 26.6095 89.4235 26.2515C89.6365 25.8936 89.9242 25.6102 90.2864 25.4014C90.6486 25.1926 91.0534 25.0349 91.5009 24.9284C91.9483 24.8218 92.4043 24.7409 92.8688 24.6855C93.4569 24.6173 93.9341 24.5619 94.3006 24.5193C94.6671 24.4724 94.9334 24.3978 95.0996 24.2955C95.2658 24.1933 95.3489 24.0271 95.3489 23.797V23.7522C95.3489 23.194 95.1912 22.7615 94.8759 22.4546C94.5648 22.1478 94.1003 21.9944 93.4824 21.9944C92.839 21.9944 92.3319 22.1372 91.9611 22.4227C91.5946 22.7039 91.3411 23.0171 91.2005 23.3623L89.4043 22.9532C89.6174 22.3566 89.9284 21.8751 90.3375 21.5086C90.7509 21.1379 91.226 20.8694 91.763 20.7032C92.2999 20.5328 92.8645 20.4475 93.4569 20.4475C93.8489 20.4475 94.2644 20.4944 94.7033 20.5882C95.1465 20.6776 95.5598 20.8438 95.9434 21.0867C96.3311 21.3296 96.6486 21.6769 96.8958 22.1286C97.1429 22.5761 97.2665 23.1578 97.2665 23.8737V30.3936H95.4V29.0512H95.3233C95.1998 29.2984 95.0144 29.5413 94.7672 29.7799C94.5201 30.0186 94.2026 30.2167 93.8148 30.3744C93.427 30.532 92.9625 30.6109 92.4213 30.6109ZM92.8368 29.0768C93.3652 29.0768 93.8169 28.9724 94.1919 28.7636C94.5712 28.5548 94.8588 28.282 95.0549 27.9454C95.2551 27.6045 95.3553 27.2401 95.3553 26.8524V25.5867C95.2871 25.6549 95.155 25.7188 94.959 25.7785C94.7672 25.8339 94.5478 25.8829 94.3006 25.9255C94.0534 25.9639 93.8127 26.0001 93.5783 26.0342C93.3439 26.064 93.1479 26.0896 92.9902 26.1109C92.6195 26.1578 92.2807 26.2366 91.9739 26.3474C91.6713 26.4582 91.4284 26.618 91.2452 26.8268C91.0662 27.0313 90.9767 27.3041 90.9767 27.645C90.9767 28.118 91.1515 28.4759 91.5009 28.7188C91.8503 28.9575 92.2956 29.0768 92.8368 29.0768ZM99.8121 30.3936V20.5754H101.659V22.135H101.762C101.941 21.6066 102.256 21.1911 102.708 20.8886C103.164 20.5818 103.679 20.4284 104.255 20.4284C104.374 20.4284 104.515 20.4326 104.676 20.4411C104.843 20.4497 104.973 20.4603 105.066 20.4731V22.3012C104.99 22.2799 104.853 22.2565 104.657 22.2309C104.461 22.2011 104.265 22.1862 104.069 22.1862C103.618 22.1862 103.215 22.282 102.861 22.4738C102.512 22.6613 102.235 22.9234 102.03 23.26C101.826 23.5924 101.723 23.9717 101.723 24.3978V30.3936H99.8121ZM111.637 30.3936V17.3026H116.304C117.322 17.3026 118.166 17.488 118.835 17.8588C119.504 18.2295 120.005 18.7366 120.337 19.3801C120.669 20.0193 120.836 20.7394 120.836 21.5406C120.836 22.346 120.667 23.0704 120.331 23.7139C119.998 24.3531 119.495 24.8602 118.822 25.2352C118.153 25.6059 117.311 25.7913 116.297 25.7913H113.088V24.1166H116.118C116.762 24.1166 117.284 24.0058 117.684 23.7842C118.085 23.5583 118.379 23.2515 118.566 22.8637C118.754 22.4759 118.848 22.0349 118.848 21.5406C118.848 21.0463 118.754 20.6073 118.566 20.2238C118.379 19.8403 118.083 19.5399 117.678 19.3225C117.277 19.1052 116.749 18.9965 116.093 18.9965H113.613V30.3936H111.637ZM122.998 30.3936V20.5754H124.845V22.135H124.947C125.126 21.6066 125.442 21.1911 125.893 20.8886C126.349 20.5818 126.865 20.4284 127.44 20.4284C127.559 20.4284 127.7 20.4326 127.862 20.4411C128.028 20.4497 128.158 20.4603 128.252 20.4731V22.3012C128.175 22.2799 128.039 22.2565 127.843 22.2309C127.647 22.2011 127.451 22.1862 127.255 22.1862C126.803 22.1862 126.4 22.282 126.047 22.4738C125.697 22.6613 125.42 22.9234 125.216 23.26C125.011 23.5924 124.909 23.9717 124.909 24.3978V30.3936H122.998ZM132.675 30.6109C132.053 30.6109 131.491 30.4958 130.988 30.2657C130.485 30.0313 130.086 29.6926 129.792 29.2494C129.503 28.8062 129.358 28.2629 129.358 27.6194C129.358 27.0654 129.464 26.6095 129.677 26.2515C129.89 25.8936 130.178 25.6102 130.54 25.4014C130.903 25.1926 131.307 25.0349 131.755 24.9284C132.202 24.8218 132.658 24.7409 133.123 24.6855C133.711 24.6173 134.188 24.5619 134.555 24.5193C134.921 24.4724 135.187 24.3978 135.354 24.2955C135.52 24.1933 135.603 24.0271 135.603 23.797V23.7522C135.603 23.194 135.445 22.7615 135.13 22.4546C134.819 22.1478 134.354 21.9944 133.736 21.9944C133.093 21.9944 132.586 22.1372 132.215 22.4227C131.849 22.7039 131.595 23.0171 131.454 23.3623L129.658 22.9532C129.871 22.3566 130.182 21.8751 130.591 21.5086C131.005 21.1379 131.48 20.8694 132.017 20.7032C132.554 20.5328 133.118 20.4475 133.711 20.4475C134.103 20.4475 134.518 20.4944 134.957 20.5882C135.4 20.6776 135.814 20.8438 136.197 21.0867C136.585 21.3296 136.903 21.6769 137.15 22.1286C137.397 22.5761 137.52 23.1578 137.52 23.8737V30.3936H135.654V29.0512H135.577C135.454 29.2984 135.268 29.5413 135.021 29.7799C134.774 30.0186 134.456 30.2167 134.069 30.3744C133.681 30.532 133.216 30.6109 132.675 30.6109ZM133.091 29.0768C133.619 29.0768 134.071 28.9724 134.446 28.7636C134.825 28.5548 135.113 28.282 135.309 27.9454C135.509 27.6045 135.609 27.2401 135.609 26.8524V25.5867C135.541 25.6549 135.409 25.7188 135.213 25.7785C135.021 25.8339 134.802 25.8829 134.555 25.9255C134.307 25.9639 134.067 26.0001 133.832 26.0342C133.598 26.064 133.402 26.0896 133.244 26.1109C132.873 26.1578 132.535 26.2366 132.228 26.3474C131.925 26.4582 131.682 26.618 131.499 26.8268C131.32 27.0313 131.231 27.3041 131.231 27.645C131.231 28.118 131.405 28.4759 131.755 28.7188C132.104 28.9575 132.55 29.0768 133.091 29.0768ZM143.741 30.5853C142.949 30.5853 142.241 30.3829 141.619 29.9781C141.001 29.569 140.516 28.9873 140.162 28.233C139.813 27.4745 139.638 26.5647 139.638 25.5036C139.638 24.4426 139.815 23.5349 140.168 22.7806C140.526 22.0264 141.016 21.449 141.638 21.0484C142.261 20.6478 142.966 20.4475 143.754 20.4475C144.364 20.4475 144.854 20.5498 145.224 20.7543C145.599 20.9546 145.889 21.189 146.094 21.4575C146.303 21.7259 146.464 21.9624 146.58 22.167H146.695V17.3026H148.606V30.3936H146.739V28.8659H146.58C146.464 29.0747 146.298 29.3133 146.081 29.5818C145.868 29.8502 145.574 30.0846 145.199 30.2849C144.824 30.4852 144.338 30.5853 143.741 30.5853ZM144.163 28.9553C144.713 28.9553 145.178 28.8105 145.557 28.5207C145.94 28.2267 146.23 27.8197 146.426 27.2998C146.626 26.7799 146.727 26.1748 146.727 25.4845C146.727 24.8026 146.629 24.2061 146.433 23.6947C146.237 23.1833 145.949 22.7849 145.57 22.4994C145.19 22.2139 144.722 22.0711 144.163 22.0711C143.588 22.0711 143.109 22.2203 142.725 22.5186C142.342 22.8168 142.052 23.2238 141.856 23.7394C141.664 24.2551 141.568 24.8367 141.568 25.4845C141.568 26.1407 141.666 26.7309 141.862 27.2551C142.058 27.7792 142.348 28.1947 142.732 28.5015C143.119 28.8041 143.597 28.9553 144.163 28.9553ZM155.565 30.5917C154.598 30.5917 153.765 30.385 153.066 29.9717C152.371 29.5541 151.834 28.9681 151.455 28.2139C151.08 27.4553 150.893 26.5668 150.893 25.5484C150.893 24.5427 151.08 23.6563 151.455 22.8893C151.834 22.1222 152.363 21.5235 153.04 21.0931C153.722 20.6627 154.519 20.4475 155.431 20.4475C155.985 20.4475 156.522 20.5392 157.042 20.7224C157.562 20.9056 158.028 21.1933 158.442 21.5853C158.855 21.9774 159.181 22.4866 159.42 23.113C159.658 23.7352 159.778 24.4916 159.778 25.3822V26.0597H151.973V24.6279H157.905C157.905 24.1251 157.802 23.6798 157.598 23.292C157.393 22.8999 157.106 22.591 156.735 22.3651C156.368 22.1393 155.938 22.0264 155.444 22.0264C154.907 22.0264 154.438 22.1585 154.037 22.4227C153.641 22.6826 153.334 23.0235 153.117 23.4454C152.904 23.863 152.797 24.3168 152.797 24.8069V25.9255C152.797 26.5818 152.912 27.14 153.143 27.6002C153.377 28.0605 153.703 28.412 154.121 28.6549C154.538 28.8936 155.026 29.0129 155.584 29.0129C155.947 29.0129 156.277 28.9617 156.575 28.8595C156.873 28.7529 157.131 28.5953 157.349 28.3865C157.566 28.1776 157.732 27.9198 157.847 27.613L159.656 27.939C159.511 28.4717 159.251 28.9383 158.876 29.3389C158.506 29.7352 158.039 30.0441 157.476 30.2657C156.918 30.483 156.281 30.5917 155.565 30.5917ZM169.255 22.9724L167.523 23.2792C167.451 23.0576 167.336 22.8467 167.178 22.6464C167.025 22.4461 166.816 22.282 166.551 22.1542C166.287 22.0264 165.957 21.9624 165.561 21.9624C165.02 21.9624 164.568 22.0839 164.206 22.3268C163.843 22.5654 163.662 22.8744 163.662 23.2536C163.662 23.5818 163.784 23.846 164.027 24.0463C164.27 24.2465 164.662 24.4106 165.203 24.5384L166.762 24.8964C167.666 25.1052 168.339 25.4269 168.782 25.8616C169.225 26.2963 169.447 26.8609 169.447 27.5555C169.447 28.1436 169.277 28.6677 168.936 29.1279C168.599 29.5839 168.128 29.9419 167.523 30.2018C166.922 30.4617 166.225 30.5917 165.433 30.5917C164.333 30.5917 163.436 30.3573 162.742 29.8886C162.047 29.4156 161.621 28.7444 161.463 27.8751L163.311 27.5938C163.426 28.0754 163.662 28.4397 164.02 28.6869C164.378 28.9298 164.845 29.0512 165.42 29.0512C166.047 29.0512 166.547 28.9213 166.922 28.6613C167.297 28.3971 167.485 28.0754 167.485 27.6961C167.485 27.3893 167.37 27.1315 167.14 26.9227C166.914 26.7139 166.566 26.5562 166.098 26.4497L164.436 26.0853C163.52 25.8765 162.842 25.5441 162.403 25.0882C161.968 24.6322 161.751 24.0548 161.751 23.3559C161.751 22.7764 161.913 22.2693 162.237 21.8346C162.561 21.3999 163.008 21.0612 163.579 20.8183C164.15 20.5711 164.804 20.4475 165.542 20.4475C166.603 20.4475 167.438 20.6776 168.047 21.1379C168.657 21.5938 169.059 22.2053 169.255 22.9724ZM173.46 24.564V30.3936H171.548V17.3026H173.434V22.1734H173.556C173.786 21.645 174.137 21.2252 174.61 20.9142C175.083 20.6031 175.701 20.4475 176.464 20.4475C177.137 20.4475 177.725 20.586 178.228 20.863C178.735 21.14 179.127 21.5534 179.404 22.1031C179.686 22.6485 179.826 23.3303 179.826 24.1485V30.3936H177.915V24.3786C177.915 23.6585 177.73 23.1002 177.359 22.7039C176.988 22.3034 176.472 22.1031 175.812 22.1031C175.36 22.1031 174.955 22.199 174.597 22.3907C174.244 22.5825 173.965 22.8637 173.76 23.2345C173.56 23.6009 173.46 24.0441 173.46 24.564Z" fill="white"/>
</g>
<defs>
<filter id="filter0_d_2415_465" x="76.2311" y="43.0139" width="55.4394" height="79.9568" filterUnits="userSpaceOnUse" color-interpolation-filters="sRGB">
<feFlood flood-opacity="0" result="BackgroundImageFix"/>
<feColorMatrix in="SourceAlpha" type="matrix" values="0 0 0 0 0 0 0 0 0 0 0 0 0 0 0 0 0 0 127 0" result="hardAlpha"/>
<feOffset/>
<feGaussianBlur stdDeviation="5"/>
<feColorMatrix type="matrix" values="0 0 0 0 0 0 0 0 0 0 0 0 0 0 0 0 0 0 0.15 0"/>
<feBlend mode="normal" in2="BackgroundImageFix" result="effect1_dropShadow_2415_465"/>
<feBlend mode="normal" in="SourceGraphic" in2="effect1_dropShadow_2415_465" result="shape"/>
</filter>
<filter id="filter1_d_2415_465" x="82.2591" y="48.9995" width="43.424" height="43.4165" filterUnits="userSpaceOnUse" color-interpolation-filters="sRGB">
<feFlood flood-opacity="0" result="BackgroundImageFix"/>
<feColorMatrix in="SourceAlpha" type="matrix" values="0 0 0 0 0 0 0 0 0 0 0 0 0 0 0 0 0 0 127 0" result="hardAlpha"/>
<feOffset/>
<feGaussianBlur stdDeviation="5"/>
<feColorMatrix type="matrix" values="0 0 0 0 0 0 0 0 0 0 0 0 0 0 0 0 0 0 0.15 0"/>
<feBlend mode="normal" in2="BackgroundImageFix" result="effect1_dropShadow_2415_465"/>
<feBlend mode="normal" in="SourceGraphic" in2="effect1_dropShadow_2415_465" result="shape"/>
</filter>
<filter id="filter2_d_2415_465" x="0" y="0.393555" width="196" height="56" filterUnits="userSpaceOnUse" color-interpolation-filters="sRGB">
<feFlood flood-opacity="0" result="BackgroundImageFix"/>
<feColorMatrix in="SourceAlpha" type="matrix" values="0 0 0 0 0 0 0 0 0 0 0 0 0 0 0 0 0 0 127 0" result="hardAlpha"/>
<feOffset dx="-6" dy="5"/>
<feGaussianBlur stdDeviation="4"/>
<feComposite in2="hardAlpha" operator="out"/>
<feColorMatrix type="matrix" values="0 0 0 0 0 0 0 0 0 0 0 0 0 0 0 0 0 0 0.5 0"/>
<feBlend mode="normal" in2="BackgroundImageFix" result="effect1_dropShadow_2415_465"/>
<feBlend mode="normal" in="SourceGraphic" in2="effect1_dropShadow_2415_465" result="shape"/>
</filter>
<radialGradient id="paint0_radial_2415_465" cx="0" cy="0" r="1" gradientUnits="userSpaceOnUse" gradientTransform="translate(104.918 112.95) rotate(-47.395) scale(13.4798 13.4837)">
<stop stop-color="#1003C5"/>
<stop offset="0.153846" stop-color="#0C00AF"/>
<stop offset="0.322115" stop-color="#0C0293"/>
<stop offset="0.461538" stop-color="#090174"/>
<stop offset="0.610577" stop-color="#090269"/>
<stop offset="0.769231" stop-color="#070070"/>
<stop offset="0.894231" stop-color="#0C0297"/>
<stop offset="0.947115" stop-color="#1205C6"/>
<stop offset="1" stop-color="#574BFF"/>
</radialGradient>
<radialGradient id="paint1_radial_2415_465" cx="0" cy="0" r="1" gradientUnits="userSpaceOnUse" gradientTransform="translate(103.951 70.708) scale(9.14302 9.14014)">
<stop stop-color="#0002A7"/>
<stop offset="1" stop-color="#000262"/>
</radialGradient>
</defs>
</svg>
