<svg width="12" height="15" viewBox="0 0 12 15" fill="none" xmlns="http://www.w3.org/2000/svg">
<path d="M4.52583 6.43596L5.70661 5.34627C6.02947 5.04773 6.25639 4.65883 6.35826 4.22946C6.46012 3.8001 6.43228 3.34986 6.2783 2.93655L5.77477 1.58219C5.58665 1.07657 5.21422 0.662215 4.73337 0.423539C4.25252 0.184863 3.69941 0.139826 3.18674 0.297602C1.30014 0.878991 -0.149986 2.6453 0.296377 4.74273C0.589921 6.12256 1.15172 7.85454 2.21596 9.69727C3.28239 11.5444 4.50055 12.9087 5.54499 13.8678C7.12155 15.3129 9.37536 14.9519 10.8255 13.5898C11.214 13.2246 11.4497 12.724 11.4846 12.1899C11.5195 11.6558 11.3511 11.1284 11.0135 10.715L10.09 9.58542C9.81145 9.24384 9.43781 8.99402 9.01715 8.86811C8.59649 8.7422 8.14806 8.74596 7.72953 8.87889L6.20354 9.36283C5.80923 8.95338 5.46386 8.49883 5.17449 8.00847C4.89525 7.5126 4.67741 6.98412 4.52583 6.43485" fill="#326CE2"/>
</svg>
