<svg width="40" height="39" viewBox="0 0 40 39" fill="none" xmlns="http://www.w3.org/2000/svg">
<path fill-rule="evenodd" clip-rule="evenodd" d="M28.8449 27.0499L34.543 20.894C35.8126 19.5229 38.0538 21.3928 36.9548 22.9064L31.2588 30.7616C30.1317 32.3162 28.521 33.2145 26.6014 33.2145H16.2502C15.3282 33.2145 14.5315 33.5751 13.9269 34.2726L13.0675 35.2593L5.72836 27.9201L9.98843 23.7615C11.0508 22.7251 12.3161 22.1832 13.8016 22.1832H16.8504C17.8393 22.1832 18.69 22.4099 19.5472 22.9044L20.4822 23.4442H27.234C29.0888 23.4442 30.0928 25.6574 28.8447 27.0501L28.8449 27.0499Z" fill="#E2B698"/>
<path fill-rule="evenodd" clip-rule="evenodd" d="M28.8449 27.05L34.543 20.8941C35.2296 20.1534 36.1969 20.3586 36.7713 20.9416C36.7325 21.1511 36.6461 21.3605 36.4971 21.5656L30.8011 29.4186C29.674 30.9732 28.0633 31.8715 26.1437 31.8715H15.7946C14.8705 31.8715 14.1083 32.2645 13.4692 32.9295L12.1327 34.3244L6.29852 28.4902L5.90341 27.7518L9.98859 23.7616C11.051 22.7252 12.3162 22.1833 13.8018 22.1833H16.8505C17.8395 22.1833 18.6902 22.41 19.5474 22.9045L20.4823 23.4443H27.2341C29.0889 23.4443 30.0929 25.6575 28.8449 27.0502V27.05Z" fill="#EFC9AE"/>
<path fill-rule="evenodd" clip-rule="evenodd" d="M10.511 37.9129L3.07476 30.4766C2.64295 30.0448 2.64295 29.3344 3.07476 28.9025L4.42209 27.5552C4.85391 27.1234 5.56429 27.1234 5.99618 27.5552L13.4325 34.9915C13.8665 35.4255 13.8665 36.1337 13.4325 36.5677L12.0851 37.9129C11.6533 38.3469 10.9429 38.3469 10.511 37.9129Z" fill="#1F438C"/>
<path fill-rule="evenodd" clip-rule="evenodd" d="M9.51997 36.9218L3.07476 30.4766C2.64295 30.0448 2.64295 29.3344 3.07476 28.9025L4.42209 27.5552C4.85391 27.1234 5.56429 27.1234 5.99618 27.5552L12.4414 34.0004C12.8754 34.4344 12.8754 35.1426 12.4414 35.5766L11.0962 36.9218C10.6622 37.3558 9.954 37.3558 9.51997 36.9218Z" fill="#326CE2"/>
<path fill-rule="evenodd" clip-rule="evenodd" d="M28.0157 8.80253H29.0133C29.4084 8.80253 29.728 9.12207 29.728 9.51725V12.1688C29.728 12.5639 29.4084 12.8835 29.0133 12.8835H28.0157C27.8041 13.7537 27.4608 14.572 27.0074 15.317L27.7135 16.023C27.992 16.3016 27.992 16.7549 27.7135 17.0335L25.8371 18.9099C25.5586 19.1884 25.1052 19.1884 24.8266 18.9099L24.1206 18.2038C23.3756 18.6573 22.5573 19.0006 21.6872 19.2122V20.2097C21.6872 20.6048 21.3677 20.9244 20.9725 20.9244H18.321C17.9258 20.9244 17.6063 20.6049 17.6063 20.2097V19.2122C16.7361 19.0006 15.9178 18.6573 15.1729 18.2038L14.4668 18.9099C14.1883 19.1884 13.7349 19.1884 13.4563 18.9099L11.58 17.0335C11.3014 16.7549 11.3014 16.3016 11.58 16.023L12.286 15.317C11.8325 14.572 11.4892 13.7537 11.2776 12.8835H10.2801C9.88712 12.8835 9.56537 12.564 9.56537 12.1688V9.51725C9.56537 9.12215 9.88712 8.80253 10.2801 8.80253H11.2776C11.4892 7.93234 11.8325 7.11403 12.286 6.36907L11.58 5.66303C11.3014 5.38447 11.3014 4.93109 11.58 4.65253L13.4563 2.77619C13.7349 2.49763 14.1883 2.49763 14.4668 2.77619L15.1729 3.48223C15.9178 3.03091 16.7362 2.68547 17.6063 2.47386V1.47632C17.6063 1.08121 17.9258 0.761597 18.321 0.761597H20.9725C21.3677 0.761597 21.6872 1.08114 21.6872 1.47632V2.47386C22.5574 2.68547 23.3757 3.02878 24.1206 3.48223L24.8266 2.77619C25.1052 2.49763 25.5586 2.49763 25.8371 2.77619L27.7135 4.65253C27.992 4.93109 27.992 5.38447 27.7135 5.66303L27.0074 6.36907C27.4608 7.11403 27.8041 7.93234 28.0157 8.80253Z" fill="#326CE2"/>
<path fill-rule="evenodd" clip-rule="evenodd" d="M19.6466 5.07788C22.8315 5.07788 25.4117 7.65813 25.4117 10.8429C25.4117 14.0278 22.8315 16.608 19.6466 16.608C16.4618 16.608 13.8816 14.0278 13.8816 10.8429C13.8816 7.65813 16.4618 5.07788 19.6466 5.07788Z" fill="#CAD1D8"/>
<path fill-rule="evenodd" clip-rule="evenodd" d="M20.6615 5.16638C23.3626 5.64573 25.4117 8.00356 25.4117 10.8429C25.4117 13.6823 23.3626 16.0401 20.6615 16.5195C17.9604 16.0401 15.909 13.6823 15.909 10.8429C15.909 8.00356 17.9603 5.64573 20.6615 5.16638Z" fill="#E2E5E7"/>
<path d="M24.0536 10.3852C24.3062 10.3852 24.5091 10.5903 24.5091 10.843C24.5091 11.0956 24.3062 11.3008 24.0536 11.3008H24.0277C23.775 11.3008 23.5699 11.0956 23.5699 10.843C23.5699 10.5903 23.775 10.3852 24.0277 10.3852H24.0536ZM19.1888 8.09858C19.1888 7.84592 19.394 7.64079 19.6466 7.64079C19.8992 7.64079 20.1044 7.84592 20.1044 8.09858V10.722L21.2142 12.6437C21.3394 12.8618 21.266 13.1425 21.0479 13.2677C20.8298 13.3929 20.5513 13.3195 20.4239 13.1014L19.2688 11.0977C19.2191 11.0264 19.1888 10.9379 19.1888 10.8429V8.09858ZM17.0491 7.25437C16.9239 7.03629 16.9994 6.75773 17.2175 6.6325C17.4356 6.50727 17.712 6.58284 17.8372 6.80092L17.8501 6.82255C17.9754 7.04063 17.9019 7.31919 17.6838 7.44442C17.4658 7.56964 17.1872 7.49408 17.062 7.276L17.049 7.25444L17.0491 7.25437ZM15.6024 9.03351C15.3844 8.90829 15.3109 8.62973 15.4362 8.41165C15.5635 8.19357 15.8421 8.118 16.0602 8.24536L16.0817 8.25831C16.2998 8.38354 16.3732 8.66423 16.248 8.88231C16.1228 9.09818 15.8421 9.17382 15.624 9.04639L15.6024 9.03351ZM23.2353 8.24544C23.4533 8.12021 23.7319 8.19578 23.8571 8.41386C23.9823 8.63194 23.9068 8.90829 23.6887 9.03351L23.6671 9.04646C23.4491 9.17169 23.1705 9.09826 23.0453 8.88018C22.9201 8.6621 22.9956 8.38354 23.2137 8.25831L23.2353 8.24544ZM21.4561 6.79878C21.5813 6.5807 21.8599 6.50727 22.078 6.6325C22.2961 6.75773 22.3716 7.03842 22.2443 7.2565L22.2313 7.27806C22.1061 7.49614 21.8254 7.56957 21.6094 7.44434C21.3914 7.31698 21.3158 7.03842 21.4432 6.82034L21.4561 6.79878ZM19.1889 6.43605C19.1889 6.18347 19.3941 5.98047 19.6466 5.98047C19.8992 5.98047 20.1044 6.18347 20.1044 6.43605V6.46195C20.1044 6.71454 19.8993 6.91967 19.6466 6.91967C19.394 6.91967 19.1889 6.71454 19.1889 6.46195V6.43605ZM15.2397 11.3008C14.9893 11.3008 14.7841 11.0956 14.7841 10.843C14.7841 10.5903 14.9893 10.3852 15.2397 10.3852H15.2656C15.5183 10.3852 15.7234 10.5903 15.7234 10.843C15.7234 11.0956 15.5183 11.3008 15.2656 11.3008H15.2397ZM16.058 13.4405C15.84 13.5657 15.5614 13.4902 15.4362 13.2721C15.3109 13.054 15.3865 12.7777 15.6046 12.6524L15.6261 12.6395C15.8442 12.5143 16.1228 12.5877 16.248 12.8058C16.3732 13.0239 16.2977 13.3024 16.0796 13.4276L16.058 13.4406V13.4405ZM17.8373 14.8872C17.712 15.1053 17.4335 15.1787 17.2154 15.0535C16.9973 14.9282 16.9239 14.6475 17.0491 14.4295L17.0621 14.4079C17.1895 14.1898 17.468 14.1164 17.6861 14.2416C17.9041 14.3668 17.9776 14.6475 17.8523 14.8656L17.8373 14.8872ZM20.1044 15.2499C20.1044 15.5025 19.8993 15.7055 19.6466 15.7055C19.394 15.7055 19.1889 15.5025 19.1889 15.2499V15.224C19.1889 14.9714 19.3941 14.7663 19.6466 14.7663C19.8992 14.7663 20.1044 14.9714 20.1044 15.224V15.2499ZM22.2442 14.4316C22.3694 14.6497 22.2938 14.9282 22.0758 15.0535C21.8598 15.1787 21.5813 15.1031 21.4561 14.885L21.4432 14.8635C21.3179 14.6454 21.3914 14.3668 21.6094 14.2416C21.8275 14.1164 22.1061 14.1919 22.2313 14.41L22.2443 14.4316H22.2442ZM23.6908 12.6524C23.9089 12.7777 23.9845 13.0562 23.8571 13.2743C23.7319 13.4924 23.4512 13.5658 23.2353 13.4406L23.2115 13.4276C22.9934 13.3024 22.92 13.0217 23.0452 12.8036C23.1726 12.5878 23.4511 12.5121 23.6692 12.6396L23.6908 12.6525L23.6908 12.6524Z" fill="#A0A9B0"/>
<path fill-rule="evenodd" clip-rule="evenodd" d="M30.5528 12.0413C33.0057 12.0413 34.9943 14.0299 34.9943 16.4828C34.9943 18.9357 33.0057 20.9243 30.5528 20.9243C28.0999 20.9243 26.1113 18.9357 26.1113 16.4828C26.1113 14.0299 28.0999 12.0413 30.5528 12.0413Z" fill="#F7B84E"/>
<path fill-rule="evenodd" clip-rule="evenodd" d="M31.3473 12.1125C33.4202 12.4861 34.9942 14.302 34.9942 16.4828C34.9942 18.6636 33.4201 20.4794 31.3473 20.853C29.2723 20.4794 27.6982 18.6657 27.6982 16.4828C27.6982 14.2998 29.2723 12.4861 31.3473 12.1125Z" fill="#FFCB5B"/>
<path d="M36.9194 20.4559C36.2106 19.8732 35.0602 19.6645 34.2096 20.583L29.8384 25.3054C29.8065 25.0474 29.7353 24.7904 29.6241 24.5415C29.1951 23.5821 28.2795 22.9862 27.2345 22.9862H20.6053L19.7764 22.5076C18.851 21.9738 17.9221 21.7252 16.853 21.7252H13.8043C12.2239 21.7252 10.8335 22.3001 9.67133 23.4339L6.02072 26.9985C5.41682 26.6366 4.61991 26.7131 4.09859 27.2317L2.75447 28.578C2.45762 28.8734 2.29416 29.2681 2.29416 29.6895C2.29416 30.1109 2.45762 30.5056 2.75363 30.8002L10.1878 38.2365C10.4943 38.543 10.897 38.6963 11.2997 38.6963C11.7023 38.6963 12.1047 38.5431 12.4111 38.2368L13.7595 36.8905C14.2895 36.3577 14.358 35.5347 13.9657 34.9256L14.2726 34.5728C14.7927 33.9752 15.4589 33.6722 16.2528 33.6722H26.6019C28.6091 33.6722 30.3947 32.7339 31.6299 31.0302L37.3254 23.1756C38.0386 22.1954 37.661 21.0654 36.9194 20.4559ZM13.1116 36.2436L11.7641 37.5891C11.508 37.8451 11.0913 37.8452 10.8352 37.5891L3.40025 30.1519C3.27731 30.0297 3.20967 29.8654 3.20967 29.6894C3.20967 29.5135 3.27739 29.3492 3.40139 29.2259L4.74552 27.8795C5.00207 27.6243 5.41949 27.6243 5.6752 27.8787L5.71473 27.9182C5.71786 27.9216 5.71999 27.9255 5.72319 27.9288C5.7273 27.933 5.73218 27.9359 5.73644 27.9399L13.1107 35.3142C13.366 35.5707 13.366 35.9882 13.1118 36.2436H13.1116ZM36.5847 22.6376L30.8887 30.4928C29.815 31.9738 28.3326 32.7566 26.6019 32.7566H16.2528C15.1973 32.7566 14.2737 33.1769 13.582 33.9719L13.3405 34.2495L6.70299 27.6119L10.3109 24.089C11.3098 23.1144 12.4525 22.6407 13.8043 22.6407H16.8531C17.7673 22.6407 18.5278 22.8442 19.319 23.3005L20.2539 23.8403C20.3235 23.8805 20.4024 23.9017 20.4828 23.9017H27.2346C28.046 23.9017 28.5693 24.4253 28.7883 24.9153C29.0066 25.4033 29.0471 26.1402 28.5063 26.7447C28.5063 26.7447 28.5063 26.7448 28.5062 26.7449C28.1803 27.1075 27.7169 27.3155 27.2345 27.3155H20.9081C20.6552 27.3155 20.4503 27.5204 20.4503 27.7733C20.4503 28.0261 20.6552 28.231 20.9081 28.231H27.2345C27.9738 28.231 28.6831 27.9143 29.1821 27.362C29.1825 27.3615 29.183 27.3613 29.1834 27.3609L34.8815 21.2051C35.3624 20.6858 35.9666 20.8579 36.3381 21.1632C36.7491 21.501 36.9848 22.0877 36.5847 22.6376ZM10.2805 13.341H10.9279C11.1171 14.0027 11.381 14.6396 11.7157 15.2421L11.2587 15.6991C10.8017 16.1562 10.8017 16.8999 11.2587 17.357L13.1339 19.2321C13.3542 19.454 13.6486 19.5763 13.9629 19.5763C14.2773 19.5763 14.5718 19.4541 14.7903 19.2339L15.2493 18.7761C15.852 19.111 16.4891 19.375 17.1509 19.5644V20.2095C17.1509 20.856 17.6759 21.3821 18.3212 21.3821H20.9749C21.6213 21.3821 22.1473 20.8561 22.1473 20.2095V19.5643C22.809 19.3751 23.446 19.1111 24.0485 18.7764L24.5054 19.2334C24.9625 19.6903 25.7062 19.6904 26.1633 19.2334L26.3699 19.0268C27.2308 20.438 28.7848 21.3821 30.5553 21.3821C33.2567 21.3821 35.4545 19.1842 35.4545 16.4828C35.4545 13.7815 33.2567 11.5836 30.5553 11.5836C30.4317 11.5836 30.3096 11.5898 30.1882 11.5988V9.51722C30.1882 8.87082 29.6623 8.34478 29.0158 8.34478H28.3684C28.1793 7.68338 27.9154 7.04658 27.5809 6.44414L28.0396 5.98673C28.4967 5.52962 28.4967 4.78595 28.0396 4.32885L26.1633 2.4525C25.9422 2.2313 25.6477 2.1095 25.3343 2.1095C25.021 2.1095 24.7265 2.2313 24.5054 2.4525L24.0485 2.90938C23.4461 2.57468 22.8091 2.31082 22.1474 2.12154V1.47629C22.1474 0.829815 21.6214 0.303772 20.9749 0.303772H18.3213C17.6759 0.303772 17.151 0.829739 17.151 1.47629V2.12161C16.4925 2.31022 15.8556 2.5743 15.2498 2.91007L14.7921 2.4538C14.5718 2.23176 14.2774 2.1095 13.9629 2.1095C13.6485 2.1095 13.3541 2.23168 13.1351 2.4525L11.2587 4.32885C10.8016 4.78595 10.8016 5.52962 11.2587 5.9868L11.7156 6.44361C11.3809 7.0462 11.1169 7.68315 10.9277 8.34478H10.2803C9.63499 8.34478 9.11002 8.87075 9.11002 9.51722V12.1688C9.11002 12.8152 9.63499 13.3413 10.2803 13.3413L10.2805 13.341ZM34.5392 16.4827C34.5392 18.6793 32.7521 20.4664 30.5555 20.4664C28.3588 20.4664 26.5717 18.6793 26.5717 16.4827C26.5717 14.286 28.3588 12.499 30.5555 12.499C32.7521 12.499 34.5392 14.286 34.5392 16.4827ZM10.0257 9.51707C10.0257 9.37546 10.1399 9.26021 10.2805 9.26021H11.2802C11.4914 9.26021 11.6752 9.11579 11.725 8.91058C11.9226 8.09806 12.2437 7.32301 12.6796 6.60692C12.7893 6.42662 12.7615 6.19452 12.6122 6.04523L11.9062 5.33927C11.8061 5.23918 11.8061 5.07617 11.9062 4.976L13.7838 3.09844C13.8474 3.03438 13.9234 3.02486 13.9631 3.02486C14.0028 3.02486 14.0788 3.03438 14.1441 3.10019L14.8522 3.80631C15.0014 3.95492 15.2326 3.98287 15.4126 3.87364C16.1348 3.43619 16.9102 3.11482 17.7171 2.91852C17.9222 2.86871 18.0666 2.68491 18.0666 2.47376V1.47621C18.0666 1.33453 18.1809 1.21928 18.3214 1.21928H20.9751C21.1168 1.21928 21.2321 1.33453 21.2321 1.47621V2.47376C21.2321 2.68483 21.3765 2.86871 21.5816 2.91852C22.3943 3.11627 23.1694 3.43741 23.8852 3.87311C24.0655 3.98295 24.2976 3.95515 24.447 3.80577L25.1531 3.09966C25.2497 3.00307 25.4197 3.00307 25.5162 3.09966L27.3926 4.976C27.4927 5.07609 27.4927 5.2391 27.3931 5.33873L26.6849 6.04477C26.5352 6.19399 26.5072 6.42639 26.6171 6.60692C27.0529 7.32301 27.3741 8.09806 27.5716 8.91058C27.6215 9.11572 27.8053 9.26021 28.0164 9.26021H29.0162C29.1578 9.26021 29.2731 9.37546 29.2731 9.51707V11.7549C27.1919 12.3202 25.6565 14.225 25.6565 16.4827C25.6565 17.0687 25.7602 17.631 25.9498 18.1524L25.5163 18.5859C25.4161 18.6859 25.2531 18.6859 25.1531 18.5859L24.447 17.8798C24.2977 17.7304 24.0657 17.7026 23.8852 17.8125C23.1694 18.2483 22.3944 18.5694 21.5816 18.7671C21.3765 18.8169 21.2321 19.0007 21.2321 19.2118V20.2094C21.2321 20.3511 21.1168 20.4663 20.9751 20.4663H18.3214C18.1809 20.4663 18.0666 20.3511 18.0666 20.2094V19.2118C18.0666 19.0008 17.9222 18.8169 17.7171 18.7671C16.9045 18.5694 16.1294 18.2482 15.4135 17.8125C15.2333 17.7026 15.0016 17.7304 14.8522 17.8793L14.1423 18.5871C14.0788 18.6511 14.0027 18.6607 13.963 18.6607C13.9233 18.6607 13.8473 18.6511 13.7826 18.5859L11.9062 16.7096C11.8061 16.6095 11.8061 16.4465 11.9062 16.3463L12.6123 15.6402C12.7616 15.4909 12.7894 15.2589 12.6797 15.0785C12.2438 14.3626 11.9227 13.5875 11.7251 12.775C11.6752 12.5699 11.4915 12.4254 11.2803 12.4254H10.2806C10.14 12.4254 10.0258 12.3101 10.0258 12.1685V9.51691L10.0257 9.51707ZM19.6492 17.0657C23.0805 17.0657 25.872 14.2742 25.872 10.8429C25.872 7.41167 23.0805 4.62005 19.6492 4.62005C16.218 4.62005 13.4242 7.4116 13.4242 10.8429C13.4242 14.2742 16.2168 17.0657 19.6492 17.0657ZM19.6492 5.53556C22.5757 5.53556 24.9566 7.91639 24.9566 10.8429C24.9566 13.7694 22.5758 16.1502 19.6492 16.1502C16.7227 16.1502 14.3398 13.7694 14.3398 10.8429C14.3398 7.91647 16.7216 5.53556 19.6492 5.53556ZM19.2528 11.0719C19.2126 11.0023 19.1914 10.9234 19.1914 10.8429V8.09859C19.1914 7.84578 19.3963 7.6408 19.6492 7.6408C19.902 7.6408 20.1069 7.8457 20.1069 8.09859V10.7202L21.2179 12.6436C21.3444 12.8625 21.2694 13.1425 21.0505 13.269C20.9784 13.3107 20.8997 13.3305 20.822 13.3305C20.6638 13.3305 20.51 13.2484 20.4252 13.1016L19.2528 11.0719ZM19.1914 6.46189V6.43591C19.1914 6.1831 19.3963 5.97812 19.6492 5.97812C19.902 5.97812 20.1069 6.18302 20.1069 6.43591V6.46189C20.1069 6.7147 19.902 6.91968 19.6492 6.91968C19.3963 6.91968 19.1914 6.71478 19.1914 6.46189ZM21.4461 14.8721C21.316 14.6553 21.3863 14.3742 21.6031 14.2441C21.82 14.114 22.1011 14.1843 22.2312 14.4011L22.2441 14.4227C22.3742 14.6395 22.3039 14.9206 22.0871 15.0507C22.0134 15.0949 21.9322 15.116 21.8521 15.116C21.6965 15.116 21.5449 15.0367 21.4591 14.8937L21.4461 14.8721ZM23.0502 12.7971C23.1802 12.5802 23.4613 12.5099 23.6781 12.6397L23.6998 12.6526C23.9166 12.7825 23.9871 13.0636 23.8572 13.2805C23.7714 13.4237 23.6197 13.5031 23.4641 13.5031C23.384 13.5031 23.303 13.4821 23.2293 13.438L23.2077 13.4251C22.9908 13.2952 22.9203 13.014 23.0502 12.7971ZM24.0281 10.3851H24.0539C24.3068 10.3851 24.5117 10.59 24.5117 10.8429C24.5117 11.0958 24.3068 11.3007 24.0539 11.3007H24.0281C23.7752 11.3007 23.5703 11.0958 23.5703 10.8429C23.5703 10.59 23.7752 10.3851 24.0281 10.3851ZM23.0502 8.88865C22.9203 8.67171 22.9908 8.39064 23.2077 8.26076L23.2293 8.24781C23.4463 8.11786 23.7274 8.18848 23.8572 8.40526C23.9871 8.6222 23.9166 8.90327 23.6998 9.03314L23.6781 9.04609C23.6045 9.0902 23.5233 9.11122 23.4434 9.11122C23.2877 9.11122 23.136 9.03185 23.0502 8.88865ZM21.4461 6.81365L21.4591 6.79209C21.5891 6.57531 21.8703 6.50508 22.0871 6.63503C22.3039 6.76513 22.3742 7.04628 22.2441 7.26306L22.2312 7.28462C22.1454 7.42767 21.9937 7.50697 21.8382 7.50697C21.7581 7.50697 21.6769 7.48594 21.6031 7.44169C21.3863 7.31158 21.316 7.03043 21.4461 6.81365ZM15.2682 11.3006H15.2423C14.9895 11.3006 14.7846 11.0957 14.7846 10.8428C14.7846 10.5899 14.9895 10.385 15.2423 10.385H15.2682C15.521 10.385 15.7259 10.5899 15.7259 10.8428C15.7259 11.0957 15.521 11.3006 15.2682 11.3006ZM16.051 13.4471C15.9813 13.4851 15.9062 13.5031 15.8322 13.5031C15.6701 13.5031 15.513 13.4168 15.4299 13.2644C15.3089 13.0425 15.3906 12.7644 15.6126 12.6434L15.6363 12.6304C15.8583 12.5092 16.1363 12.5911 16.2574 12.813C16.3784 13.035 16.2967 13.313 16.0747 13.4341L16.051 13.4471ZM15.4299 8.42133C15.551 8.19944 15.8291 8.11756 16.051 8.23875L16.0747 8.2517C16.2967 8.37274 16.3784 8.65076 16.2574 8.87273C16.1743 9.02499 16.0172 9.11137 15.8551 9.11137C15.781 9.11137 15.706 9.0934 15.6363 9.05539L15.6126 9.04244C15.3906 8.9214 15.3089 8.6433 15.4299 8.42133ZM17.0522 7.26314C16.9221 7.04635 16.9924 6.7652 17.2092 6.6351C17.426 6.50515 17.7072 6.57538 17.8373 6.79217L17.8502 6.81373C17.9803 7.03051 17.91 7.31166 17.6932 7.44176C17.6195 7.48594 17.5383 7.50704 17.4582 7.50704C17.3026 7.50704 17.151 7.42775 17.0652 7.2847L17.0522 7.26314ZM17.0522 14.4227L17.0652 14.4011C17.1952 14.1843 17.4764 14.1139 17.6932 14.2441C17.91 14.3742 17.9803 14.6553 17.8502 14.8721L17.8373 14.8937C17.7515 15.0367 17.5998 15.116 17.4443 15.116C17.3642 15.116 17.283 15.0949 17.2092 15.0507C16.9924 14.9206 16.9221 14.6395 17.0522 14.4227ZM19.1915 15.2498V15.2239C19.1915 14.971 19.3964 14.7661 19.6492 14.7661C19.9021 14.7661 20.107 14.971 20.107 15.2239V15.2498C20.107 15.5027 19.9021 15.7076 19.6492 15.7076C19.3964 15.7076 19.1915 15.5027 19.1915 15.2498ZM28.7568 17.4932C28.7568 17.2404 28.9617 17.0354 29.2145 17.0354C29.4673 17.0354 29.6722 17.2403 29.6722 17.4932C29.6722 17.8801 30.0684 18.1949 30.5554 18.1949C31.0423 18.1949 31.4385 17.8801 31.4385 17.4932C31.4385 17.0544 31.2497 16.9543 30.4992 16.7888C29.8741 16.651 28.9295 16.4428 28.9295 15.3232C28.9295 14.6571 29.4232 14.0932 30.0976 13.9142V13.5937C30.0976 13.3409 30.3025 13.1359 30.5553 13.1359C30.8081 13.1359 31.013 13.3408 31.013 13.5937V13.9142C31.6874 14.0932 32.1811 14.6571 32.1811 15.3232C32.1811 15.576 31.9762 15.781 31.7234 15.781C31.4706 15.781 31.2657 15.5761 31.2657 15.3232C31.2657 15.0235 30.9403 14.7705 30.5553 14.7705C30.1702 14.7705 29.8449 15.0235 29.8449 15.3232C29.8449 15.6497 29.9722 15.7352 30.6962 15.8948C31.3564 16.0403 32.3539 16.2603 32.3539 17.4932C32.3539 18.2428 31.7839 18.8749 31.0131 19.0574V19.3717C31.0131 19.6245 30.8082 19.8295 30.5554 19.8295C30.3026 19.8295 30.0977 19.6246 30.0977 19.3717V19.0574C29.3268 18.8749 28.7568 18.2428 28.7568 17.4932Z" fill="black"/>
</svg>
