<svg width="51" height="50" viewBox="0 0 51 50" fill="none" xmlns="http://www.w3.org/2000/svg">
<path fill-rule="evenodd" clip-rule="evenodd" d="M46.2086 50C44.2562 50 42.6127 48.6523 42.2242 46.8457H29.4941C29.0957 48.6523 27.4521 50 25.4998 50C23.5475 50 21.9039 48.6523 21.5154 46.8457H8.78535C8.38691 48.6523 6.75332 50 4.79102 50C2.53984 50 0.707031 48.2129 0.707031 45.9961C0.707031 43.7891 2.52988 41.9922 4.79102 41.9922C6.75332 41.9922 8.39687 43.3594 8.78535 45.166H21.5055C21.8441 43.5938 23.1191 42.3535 24.7428 42.0605V35.2344C25.3105 35.2539 25.8783 35.2539 26.4461 35.2246V42.0898C27.9801 42.4414 29.1754 43.6426 29.4941 45.1562H42.2242C42.6127 43.3496 44.2463 41.9824 46.2186 41.9824C48.4697 41.9824 50.3025 43.7793 50.3025 45.9863C50.2926 48.2129 48.4598 50 46.2086 50ZM9.20371 21.7188C10.8273 26.9336 14.991 31.084 20.2703 32.7734C19.4535 31.9336 18.6965 30.8789 18.0191 29.6484C16.784 27.4023 15.9174 24.6777 15.4592 21.7188H9.20371ZM20.2703 0.820312C14.991 2.51953 10.8273 6.66016 9.20371 11.8848H15.4592C15.9174 8.91602 16.784 6.19141 18.0191 3.94531C18.6865 2.70508 19.4535 1.66992 20.2703 0.820312ZM41.9652 11.8848C40.3316 6.66992 36.1779 2.51953 30.8986 0.820312C31.7154 1.66016 32.4725 2.70508 33.1498 3.94531C34.385 6.21094 35.2516 8.92578 35.7098 11.8848H41.9652ZM30.8986 32.7734C36.1779 31.084 40.3316 26.9434 41.9652 21.7383H35.7098C35.2516 24.6973 34.385 27.4121 33.1498 29.668C32.4725 30.8887 31.7154 31.9336 30.8986 32.7734ZM42.7223 16.8066C42.7223 15.6934 42.6027 14.6094 42.3936 13.5547H35.9289C36.0285 14.6191 36.0883 15.7031 36.0883 16.8066C36.0883 17.9102 36.0385 19.0039 35.9289 20.0684H42.3936C42.6027 19.0039 42.7223 17.9199 42.7223 16.8066ZM25.5895 0C23.3482 0 21.1867 1.67969 19.5232 4.73633C18.4176 6.75781 17.6207 9.20898 17.1824 11.8848H33.9865C33.5482 9.20898 32.7514 6.75781 31.6457 4.73633C29.9822 1.67969 27.8307 0 25.5895 0ZM16.784 16.8066C16.784 17.9102 16.8338 19.0039 16.9533 20.0684H34.2057C34.3252 19.0039 34.375 17.9102 34.375 16.8066C34.375 15.7031 34.3053 14.6191 34.2057 13.5547H16.9633C16.8437 14.6094 16.784 15.7031 16.784 16.8066ZM8.44668 16.8066C8.44668 17.9199 8.54629 19.0039 8.76543 20.0684H15.25C15.1404 18.9941 15.0906 17.9102 15.0906 16.8066C15.0906 15.7129 15.1404 14.6191 15.25 13.5547H8.76543C8.56621 14.6094 8.44668 15.6836 8.44668 16.8066ZM19.5232 28.8672C21.1867 31.9238 23.3482 33.6035 25.5994 33.6035C27.8406 33.6035 30.0021 31.9141 31.6656 28.8672C32.7713 26.8359 33.5682 24.3945 33.9965 21.7188H17.1824C17.6207 24.3945 18.4176 26.8457 19.5232 28.8672Z" fill="white"/>
</svg>
