<svg width="15" height="15" viewBox="0 0 15 15" fill="none" xmlns="http://www.w3.org/2000/svg">
<path fill-rule="evenodd" clip-rule="evenodd" d="M3.16216 0.204546C2.33307 0.204546 1.53791 0.533819 0.951545 1.11996C0.365175 1.70611 0.0355967 2.50113 0.0352783 3.33023V11.6686C0.0352783 12.4979 0.364717 13.2932 0.95112 13.8796C1.53752 14.466 2.33286 14.7955 3.16216 14.7955H11.5005C12.3296 14.7951 13.1246 14.4656 13.7108 13.8792C14.2969 13.2928 14.6262 12.4977 14.6262 11.6686V3.33023C14.6259 2.50134 14.2965 1.7065 13.7103 1.12039C13.1242 0.534278 12.3294 0.204864 11.5005 0.204546H3.16216ZM12.3999 3.33503C12.3999 3.57388 12.305 3.80295 12.1361 3.97185C11.9672 4.14074 11.7382 4.23563 11.4993 4.23563C11.2605 4.23563 11.0314 4.14074 10.8625 3.97185C10.6936 3.80295 10.5987 3.57388 10.5987 3.33503C10.5987 3.09618 10.6936 2.8671 10.8625 2.69821C11.0314 2.52931 11.2605 2.43443 11.4993 2.43443C11.7382 2.43443 11.9672 2.52931 12.1361 2.69821C12.305 2.8671 12.3999 3.09618 12.3999 3.33503ZM7.33253 5.00174C6.67011 5.00174 6.03482 5.26488 5.56642 5.73329C5.09802 6.20169 4.83487 6.83698 4.83487 7.4994C4.83487 8.16182 5.09802 8.79711 5.56642 9.26551C6.03482 9.73392 6.67011 9.99706 7.33253 9.99706C7.99496 9.99706 8.63025 9.73392 9.09865 9.26551C9.56705 8.79711 9.8302 8.16182 9.8302 7.4994C9.8302 6.83698 9.56705 6.20169 9.09865 5.73329C8.63025 5.26488 7.99496 5.00174 7.33253 5.00174ZM3.63287 7.4994C3.63287 6.51851 4.02253 5.57779 4.71613 4.88419C5.40972 4.1906 6.35044 3.80094 7.33133 3.80094C8.31223 3.80094 9.25294 4.1906 9.94654 4.88419C10.6401 5.57779 11.0298 6.51851 11.0298 7.4994C11.0298 8.48029 10.6401 9.42101 9.94654 10.1146C9.25294 10.8082 8.31223 11.1979 7.33133 11.1979C6.35044 11.1979 5.40972 10.8082 4.71613 10.1146C4.02253 9.42101 3.63287 8.48029 3.63287 7.4994Z" fill="#BCBCBC"/>
</svg>
