<svg width="16" height="15" viewBox="0 0 16 15" fill="none" xmlns="http://www.w3.org/2000/svg">
<path d="M13.5958 0.204546C14.0258 0.204546 14.4381 0.375352 14.7422 0.679388C15.0462 0.983424 15.217 1.39579 15.217 1.82576V13.1742C15.217 13.6042 15.0462 14.0166 14.7422 14.3206C14.4381 14.6246 14.0258 14.7955 13.5958 14.7955H2.24731C1.81734 14.7955 1.40498 14.6246 1.10094 14.3206C0.796904 14.0166 0.626099 13.6042 0.626099 13.1742V1.82576C0.626099 1.39579 0.796904 0.983424 1.10094 0.679388C1.40498 0.375352 1.81734 0.204546 2.24731 0.204546H13.5958ZM13.1905 12.7689V8.47273C13.1905 7.77187 12.9121 7.09972 12.4165 6.60414C11.9209 6.10857 11.2488 5.83015 10.5479 5.83015C9.8589 5.83015 9.0564 6.25167 8.66731 6.88394V5.98417H6.40572V12.7689H8.66731V8.77265C8.66731 8.14849 9.16989 7.6378 9.79405 7.6378C10.095 7.6378 10.3837 7.75737 10.5965 7.97019C10.8093 8.18302 10.9289 8.47167 10.9289 8.77265V12.7689H13.1905ZM3.77125 4.71152C4.13243 4.71152 4.47881 4.56804 4.7342 4.31265C4.98959 4.05726 5.13307 3.71087 5.13307 3.3497C5.13307 2.59583 4.52511 1.97977 3.77125 1.97977C3.40792 1.97977 3.05948 2.1241 2.80257 2.38101C2.54566 2.63793 2.40133 2.98637 2.40133 3.3497C2.40133 4.10356 3.01739 4.71152 3.77125 4.71152ZM4.89799 12.7689V5.98417H2.65261V12.7689H4.89799Z" fill="#BCBCBC"/>
</svg>
