<svg width="16" height="13" viewBox="0 0 16 13" fill="none" xmlns="http://www.w3.org/2000/svg">
<path d="M13.6201 0.664H1.94814C1.14569 0.664 0.496431 1.32055 0.496431 2.123L0.489136 10.877C0.489136 11.6794 1.14569 12.336 1.94814 12.336H13.6201C14.4226 12.336 15.0791 11.6794 15.0791 10.877V2.123C15.0791 1.32055 14.4226 0.664 13.6201 0.664ZM13.3283 3.76437L8.17077 6.98876C7.93733 7.13466 7.63094 7.13466 7.3975 6.98876L2.23994 3.76437C2.16679 3.72331 2.10273 3.66783 2.05164 3.6013C2.00056 3.53476 1.9635 3.45855 1.94272 3.37728C1.92194 3.29601 1.91786 3.21137 1.93074 3.12847C1.94362 3.04558 1.97318 2.96617 2.01764 2.89503C2.0621 2.82389 2.12053 2.76252 2.1894 2.71462C2.25827 2.66672 2.33614 2.63329 2.4183 2.61636C2.50045 2.59943 2.5852 2.59934 2.66739 2.6161C2.74958 2.63287 2.82752 2.66614 2.89649 2.71389L7.78414 5.7705L12.6718 2.71389C12.7408 2.66614 12.8187 2.63287 12.9009 2.6161C12.9831 2.59934 13.0678 2.59943 13.15 2.61636C13.2321 2.63329 13.31 2.66672 13.3789 2.71462C13.4477 2.76252 13.5062 2.82389 13.5506 2.89503C13.5951 2.96617 13.6247 3.04558 13.6375 3.12847C13.6504 3.21137 13.6463 3.29601 13.6256 3.37728C13.6048 3.45855 13.5677 3.53476 13.5166 3.6013C13.4655 3.66783 13.4015 3.72331 13.3283 3.76437Z" fill="#326CE2"/>
</svg>
