<svg width="39" height="40" viewBox="0 0 39 40" fill="none" xmlns="http://www.w3.org/2000/svg">
<path fill-rule="evenodd" clip-rule="evenodd" d="M7.30849 26.6345C6.05773 24.0037 5.25426 21.1078 4.7612 18.0698C4.25406 14.9439 4.07499 11.6753 4.07499 8.3949V6.16104C4.07507 6.06108 4.10859 5.96401 4.17021 5.8853C4.23183 5.80659 4.31802 5.75076 4.41504 5.72669L21.396 0.0231847C21.4879 -0.00772823 21.5873 -0.00772823 21.6791 0.0231847L38.6942 5.73842C38.7829 5.76812 38.86 5.82492 38.9146 5.9008C38.9692 5.97667 38.9986 6.06779 38.9987 6.16128H39V8.39515C39 14.6934 38.3427 20.9339 35.9812 26.1743C33.602 31.454 29.5077 35.7021 22.6442 37.9536L21.6757 38.2712C21.586 38.3005 21.4893 38.3005 21.3996 38.2712L20.4312 37.9536C19.6786 37.7067 18.9577 37.4356 18.2684 37.1402C18.066 37.0536 17.8665 36.9652 17.67 36.8749C17.7247 37.2198 17.676 37.5732 17.5301 37.8904C17.2574 38.4873 16.6506 38.9536 15.716 38.9536H13.4707C13.4381 38.9536 13.4055 38.953 13.3734 38.9519H7.66515V38.9536C7.10881 38.9438 6.56269 38.8025 6.07141 38.5412C5.93435 38.4692 5.80256 38.3876 5.67704 38.2969C5.57507 38.5252 5.40932 38.7193 5.19971 38.8556C4.9901 38.992 4.74556 39.0649 4.4955 39.0656H1.29302C0.950241 39.0649 0.621694 38.9285 0.37934 38.686C0.136986 38.4436 0.000581069 38.115 0 37.7723V27.9587C0.000710166 27.616 0.137172 27.2876 0.379512 27.0453C0.621852 26.803 0.950326 26.6666 1.29302 26.6659H4.49533C4.82032 26.6666 5.13319 26.7893 5.37193 27.0098C5.61067 27.2303 5.75784 27.5325 5.78429 27.8564L5.86173 27.8238C5.97496 27.7802 6.08504 27.7288 6.19119 27.67C6.61546 27.3853 6.99248 27.0359 7.30849 26.6345Z" fill="#121209"/>
<path fill-rule="evenodd" clip-rule="evenodd" d="M12.4088 29.9258H16.778C17.3106 29.9258 17.643 29.6897 17.7812 29.3868C17.8325 29.2705 17.859 29.1448 17.859 29.0176C17.859 28.8905 17.8325 28.7647 17.7812 28.6484C17.6427 28.3458 17.3106 28.1094 16.778 28.1094H12.4088C11.8761 28.1094 11.5437 28.3456 11.4055 28.6484C11.3542 28.7647 11.3277 28.8905 11.3277 29.0176C11.3277 29.1448 11.3542 29.2705 11.4055 29.3868C11.5437 29.6894 11.8761 29.9258 12.4088 29.9258Z" fill="#E39F8F"/>
<path fill-rule="evenodd" clip-rule="evenodd" d="M14.4237 28.1094H12.4088C11.8761 28.1094 11.5437 28.3456 11.4055 28.6484C11.3542 28.7647 11.3277 28.8905 11.3277 29.0176C11.3277 29.1448 11.3542 29.2705 11.4055 29.3868C11.4823 29.552 11.6099 29.6883 11.7697 29.7757C12.6913 29.2814 13.578 28.7247 14.4237 28.1094Z" fill="#F7BEAD"/>
<path fill-rule="evenodd" clip-rule="evenodd" d="M12.6286 33.5315C12.096 33.5315 11.7636 33.7676 11.6254 34.0705C11.5741 34.1868 11.5475 34.3126 11.5475 34.4397C11.5475 34.5669 11.5741 34.6926 11.6254 34.809C11.7638 35.1115 12.096 35.3479 12.6286 35.3479H16.5582C17.091 35.3479 17.4233 35.1117 17.5615 34.809C17.6129 34.6926 17.6394 34.5669 17.6394 34.4397C17.6394 34.3126 17.6129 34.1868 17.5615 34.0705C17.423 33.7679 17.0909 33.5315 16.5582 33.5315H12.6286Z" fill="#E39F8F"/>
<path fill-rule="evenodd" clip-rule="evenodd" d="M13.4707 36.2426C12.9381 36.2426 12.6057 36.4788 12.4675 36.7816C12.4162 36.8979 12.3896 37.0237 12.3896 37.1508C12.3896 37.278 12.4162 37.4038 12.4675 37.5201C12.6059 37.8226 12.9381 38.059 13.4707 38.059H15.7161C16.2488 38.059 16.5811 37.8228 16.7193 37.52C16.7707 37.4037 16.7972 37.2779 16.7972 37.1508C16.7972 37.0237 16.7707 36.8979 16.7193 36.7816C16.5808 36.479 16.2487 36.2426 15.7161 36.2426H13.4707Z" fill="#E39F8F"/>
<path fill-rule="evenodd" clip-rule="evenodd" d="M4.49532 27.5604H1.29301C1.18756 27.561 1.08659 27.6032 1.01202 27.6777C0.937444 27.7523 0.895273 27.8532 0.894653 27.9587V37.7722C0.895252 37.8777 0.937413 37.9787 1.01199 38.0532C1.08657 38.1278 1.18754 38.17 1.29301 38.1706H4.49532C4.60078 38.17 4.70176 38.1278 4.77634 38.0532C4.85091 37.9787 4.89307 37.8777 4.89367 37.7722V27.9587C4.89305 27.8532 4.85088 27.7523 4.77631 27.6777C4.70173 27.6032 4.60077 27.561 4.49532 27.5604ZM3.2154 36.762C3.18603 36.8127 3.14695 36.8571 3.10041 36.8927C3.05386 36.9283 3.00076 36.9544 2.94413 36.9695C2.88751 36.9846 2.82846 36.9884 2.77037 36.9807C2.71228 36.9729 2.65628 36.9538 2.60558 36.9244C2.55487 36.8951 2.51044 36.856 2.47483 36.8095C2.43923 36.7629 2.41313 36.7098 2.39805 36.6532C2.38296 36.5965 2.37918 36.5375 2.38691 36.4794C2.39465 36.4213 2.41375 36.3653 2.44312 36.3146L2.48555 36.2413C2.51478 36.1904 2.55379 36.1456 2.60034 36.1098C2.64689 36.0739 2.70007 36.0476 2.75682 36.0324C2.81357 36.0171 2.87278 36.0132 2.93104 36.0209C2.9893 36.0286 3.04546 36.0477 3.09631 36.0771C3.14717 36.1066 3.1917 36.1458 3.22736 36.1925C3.26302 36.2392 3.2891 36.2925 3.3041 36.3493C3.31911 36.4061 3.32275 36.4654 3.31481 36.5236C3.30687 36.5818 3.2875 36.6379 3.25783 36.6886L3.2154 36.762Z" fill="#4985C5"/>
<path fill-rule="evenodd" clip-rule="evenodd" d="M4.49532 27.5604H1.29301C1.18756 27.561 1.08659 27.6032 1.01202 27.6777C0.937444 27.7523 0.895273 27.8532 0.894653 27.9587V32.4852C0.911754 32.4852 0.928691 32.4859 0.94571 32.4859C2.269 32.486 3.58985 32.3724 4.89367 32.1463V27.9587C4.89305 27.8532 4.85088 27.7523 4.77631 27.6777C4.70173 27.6032 4.60077 27.561 4.49532 27.5604Z" fill="#72A7DA"/>
<path fill-rule="evenodd" clip-rule="evenodd" d="M5.78851 28.8348V37.1583C5.96904 37.4106 6.20906 37.6144 6.48726 37.7516C6.85017 37.9455 7.25377 38.0508 7.66515 38.0591V38.0609H11.746C11.7133 38.0058 11.6835 37.9489 11.6568 37.8906C11.5263 37.6048 11.4737 37.2896 11.5044 36.9769C11.5351 36.6642 11.6481 36.3652 11.8318 36.1103C11.6084 36.0315 11.4032 35.9084 11.2285 35.7485C11.0537 35.5886 10.913 35.3951 10.8148 35.1796C10.6785 34.8813 10.6273 34.5511 10.6668 34.2255C10.7063 33.9 10.835 33.5916 11.0386 33.3346C10.6569 33.1586 10.3512 32.8512 10.1773 32.4685C10.0707 32.2365 10.0155 31.9842 10.0155 31.7289C10.0155 31.4736 10.0707 31.2212 10.1773 30.9892C10.3267 30.6602 10.5744 30.3855 10.8864 30.2032C10.7672 30.0702 10.669 29.9199 10.595 29.7574C10.4884 29.5254 10.4332 29.2731 10.4332 29.0178C10.4332 28.7625 10.4884 28.5102 10.595 28.2782C10.7809 27.8695 11.1163 27.5475 11.5323 27.3785L12.3677 24.3995C12.6915 23.2451 12.441 22.1807 11.9687 21.5662C11.8462 21.3969 11.6857 21.2585 11.5001 21.1623C11.3722 21.0966 11.2253 21.0776 11.0848 21.1086C10.7758 21.1842 10.4578 21.5245 10.1957 22.2222C10.0414 22.6333 9.88989 23.0794 9.74161 23.516C9.08528 25.4486 8.4906 27.1996 6.68734 28.4108C6.5346 28.5028 6.37405 28.5811 6.20755 28.6449C6.05397 28.7098 5.88688 28.7808 5.78851 28.8348Z" fill="#E39F8F"/>
<path fill-rule="evenodd" clip-rule="evenodd" d="M5.78851 28.8347V31.972C7.50401 31.6034 9.17116 31.0378 10.7568 30.2864C10.7982 30.257 10.8414 30.2291 10.8864 30.2026C10.7672 30.0697 10.669 29.9194 10.595 29.7569C10.4884 29.5249 10.4332 29.2726 10.4332 29.0172C10.4332 28.7619 10.4884 28.5096 10.595 28.2776C10.7809 27.8689 11.1163 27.547 11.5323 27.378L12.3677 24.399C12.6915 23.2445 12.441 22.1802 11.9687 21.5657C11.8462 21.3963 11.6857 21.258 11.5001 21.1618C11.3722 21.096 11.2253 21.077 11.0848 21.108C10.7758 21.1836 10.4578 21.524 10.1957 22.2216C10.0414 22.6327 9.88989 23.0788 9.74161 23.5154C9.08528 25.4481 8.4906 27.1991 6.68734 28.4103C6.5346 28.5023 6.37405 28.5806 6.20755 28.6444C6.05397 28.7097 5.88688 28.7806 5.78851 28.8347Z" fill="#F7BEAD"/>
<path fill-rule="evenodd" clip-rule="evenodd" d="M18.7063 32.9274C19.0503 33.1026 19.4039 33.2695 19.7673 33.4279C20.3278 33.6722 20.9178 33.8984 21.5371 34.1064C27.4182 32.1358 30.7753 28.3585 32.6628 23.7893C34.5445 19.2341 34.9813 13.8731 34.9982 8.71497L21.5379 4.19391L8.07751 8.71497C8.08509 11.0258 8.17678 13.3752 8.44395 15.671C8.67366 17.6429 9.03261 19.578 9.57859 21.4187C9.93754 20.7287 10.3965 20.359 10.8754 20.2419C11.2135 20.1608 11.5694 20.2008 11.881 20.355C12.1943 20.5114 12.4663 20.7396 12.6746 21.0211C13.2951 21.8283 13.6332 23.1937 13.2275 24.6406L12.5053 27.2149H16.778C17.7126 27.2149 18.3194 27.6812 18.592 28.2781C18.6985 28.5101 18.7537 28.7624 18.7537 29.0177C18.7537 29.273 18.6985 29.5253 18.592 29.7573C18.518 29.9198 18.4197 30.0701 18.3005 30.2031C18.6125 30.3854 18.8603 30.66 19.0096 30.9891C19.1162 31.2211 19.1714 31.4735 19.1714 31.7288C19.1714 31.9841 19.1162 32.2364 19.0096 32.4685C18.9331 32.6364 18.8307 32.7913 18.7061 32.9274H18.7063ZM21.9414 11.5838L23.9659 15.8928L28.6916 16.4872C28.7784 16.4978 28.8601 16.5336 28.9267 16.5901C28.9933 16.6466 29.0419 16.7214 29.0665 16.8053C29.0911 16.8891 29.0905 16.9783 29.065 17.0619C29.0394 17.1454 28.9899 17.2196 28.9227 17.2754L25.469 20.5146L26.3647 25.1932C26.3806 25.2764 26.3725 25.3624 26.3414 25.4412C26.3102 25.52 26.2573 25.5883 26.1888 25.6382C26.1202 25.688 26.039 25.7173 25.9544 25.7227C25.8698 25.728 25.7855 25.7092 25.7112 25.6684L21.5383 23.371L17.3648 25.6684C17.2906 25.7092 17.2062 25.728 17.1217 25.7227C17.0371 25.7173 16.9558 25.688 16.8873 25.6382C16.8188 25.5883 16.7658 25.52 16.7347 25.4412C16.7035 25.3624 16.6954 25.2764 16.7114 25.1932L17.6071 20.5146L14.1326 17.2558C14.0708 17.1977 14.0269 17.1232 14.0059 17.041C13.985 16.9588 13.9879 16.8724 14.0143 16.7918C14.0407 16.7112 14.0896 16.6398 14.1551 16.586C14.2206 16.5322 14.3002 16.4981 14.3843 16.4879V16.487L19.1101 15.8925L21.1346 11.5834C21.1705 11.5067 21.2276 11.4418 21.2991 11.3963C21.3706 11.3508 21.4535 11.3267 21.5383 11.3267C21.623 11.3267 21.706 11.3508 21.7775 11.3963C21.849 11.4418 21.906 11.5067 21.9419 11.5834L21.9414 11.5838Z" fill="#326CE2"/>
<path fill-rule="evenodd" clip-rule="evenodd" d="M23.3999 4.81927L21.5375 4.19373L8.07715 8.71479C8.08472 11.0256 8.17641 13.375 8.44358 15.6708C8.6733 17.6427 9.03224 19.5778 9.57823 21.4185C9.93717 20.7285 10.3961 20.3589 10.8751 20.2418C11.2132 20.1606 11.569 20.2007 11.8807 20.3549C12.194 20.5112 12.4659 20.7395 12.6743 21.0209C13.2948 21.8281 13.6329 23.1935 13.2271 24.6404L12.5051 27.2148H15.5769C16.1469 26.7425 16.6927 26.2438 17.2144 25.7188C17.1439 25.7292 17.0719 25.7225 17.0046 25.6994C16.9372 25.6762 16.8763 25.6373 16.827 25.5859C16.7777 25.5344 16.7415 25.4719 16.7213 25.4036C16.7011 25.3352 16.6975 25.2631 16.7109 25.1931L17.6066 20.5145L14.1321 17.2557C14.0703 17.1976 14.0264 17.1231 14.0055 17.0409C13.9845 16.9587 13.9874 16.8723 14.0139 16.7917C14.0403 16.7111 14.0891 16.6397 14.1546 16.5859C14.2202 16.5321 14.2997 16.498 14.3839 16.4878V16.4869L19.1097 15.8924L21.1342 11.5833C21.1701 11.5066 21.2271 11.4417 21.2986 11.3962C21.3701 11.3507 21.4531 11.3266 21.5378 11.3266C21.6226 11.3266 21.7055 11.3507 21.777 11.3962C21.8485 11.4417 21.9056 11.5066 21.9415 11.5833L23.3376 14.5555C24.05 11.3514 24.0714 8.03227 23.4002 4.81927H23.3999Z" fill="#318DDD"/>
<path fill-rule="evenodd" clip-rule="evenodd" d="M17.5875 32.5875C17.6419 32.5529 17.7032 32.5305 17.7671 32.5217C17.9571 32.437 18.1103 32.2867 18.1987 32.0983C18.2501 31.982 18.2766 31.8563 18.2766 31.7291C18.2766 31.602 18.2501 31.4762 18.1987 31.3599C18.0602 31.0573 17.7282 30.8209 17.1955 30.8209H11.991C11.4584 30.8209 11.126 31.0571 10.9878 31.3599C10.9365 31.4762 10.91 31.602 10.91 31.7291C10.91 31.8563 10.9365 31.982 10.9878 32.0983C11.1262 32.4009 11.4584 32.6373 11.991 32.6373H17.1955C17.3278 32.6383 17.4596 32.6216 17.5875 32.5875Z" fill="#E39F8F"/>
<path fill-rule="evenodd" clip-rule="evenodd" d="M23.2637 16.4947L21.5374 12.8204L19.8269 16.461C19.7984 16.5381 19.7493 16.6058 19.6848 16.6568C19.6204 16.7077 19.5432 16.7399 19.4616 16.7499L15.4365 17.2559L18.3837 20.02C18.4428 20.0713 18.4874 20.1372 18.513 20.2111C18.5386 20.285 18.5444 20.3644 18.5297 20.4412L17.7667 24.4274L21.3182 22.4723C21.3844 22.4349 21.459 22.4151 21.535 22.4147C21.6109 22.4143 21.6857 22.4333 21.7523 22.4699L25.308 24.4275L24.5451 20.4413C24.531 20.3675 24.5357 20.2913 24.5589 20.2198C24.582 20.1484 24.6229 20.0839 24.6777 20.0324L27.638 17.2557L23.6129 16.7497V16.7481C23.538 16.739 23.4666 16.7109 23.4056 16.6666C23.3445 16.6222 23.2957 16.5631 23.2637 16.4947Z" fill="#E0A328"/>
<path fill-rule="evenodd" clip-rule="evenodd" d="M22.9909 15.914L21.5374 12.8204L19.8269 16.461C19.7984 16.5381 19.7493 16.6058 19.6848 16.6568C19.6204 16.7077 19.5432 16.7399 19.4616 16.7499L15.4365 17.2559L18.3837 20.02C18.4428 20.0713 18.4874 20.1372 18.513 20.2111C18.5386 20.285 18.5444 20.3644 18.5297 20.4412L17.7667 24.4274L18.9312 23.7862C20.7843 21.4517 22.1634 18.7775 22.9909 15.914Z" fill="#FABD45"/>
<path fill-rule="evenodd" clip-rule="evenodd" d="M17.7362 35.9202C18.0239 36.0576 18.3179 36.1906 18.618 36.3192C19.2817 36.603 19.9781 36.8648 20.7074 37.1046L21.538 37.377L22.3686 37.1046C28.9577 34.9431 32.8866 30.869 35.1675 25.8073C37.4661 20.7065 38.1059 14.5863 38.1059 8.39516V6.48156L21.5378 0.916321L4.96997 6.48115V8.39475C4.96997 11.6429 5.14545 14.8677 5.64226 17.9302C6.09134 20.6982 6.80247 23.3399 7.88361 25.7545C8.29793 24.9908 8.58985 24.1316 8.89619 23.2294C8.95108 23.0678 9.00645 22.9048 9.06394 22.7385C8.30485 20.526 7.83589 18.1724 7.55634 15.7723C7.27134 13.3247 7.18177 10.8328 7.18177 8.39475C7.18185 8.29479 7.21536 8.19773 7.27699 8.11901C7.33861 8.0403 7.42479 7.98447 7.52182 7.96041L21.3962 3.30042C21.488 3.26955 21.5874 3.26955 21.6793 3.30042L35.5875 7.97197C35.6762 8.00166 35.7533 8.05846 35.8079 8.13434C35.8625 8.21021 35.8919 8.30134 35.892 8.39484H35.8933C35.8933 13.7422 35.4654 19.3395 33.4874 24.128C31.4909 28.961 27.931 32.9495 21.6757 35.0015C21.586 35.0309 21.4893 35.0309 21.3996 35.0015C20.7066 34.7742 20.0436 34.5222 19.4106 34.2456C19.0648 34.0949 18.7294 33.9381 18.4045 33.7752C18.4951 33.9991 18.539 34.2392 18.5334 34.4807C18.5278 34.7221 18.4728 34.9599 18.3719 35.1794C18.2348 35.4817 18.0143 35.7387 17.7362 35.9202Z" fill="#1C3B7C"/>
<path fill-rule="evenodd" clip-rule="evenodd" d="M22.3143 1.17726L21.5378 0.916687L4.96997 6.48119V8.39479C4.96997 11.6429 5.14545 14.8677 5.64226 17.9302C6.09134 20.6983 6.80247 23.3399 7.88361 25.7546C8.29793 24.9908 8.58985 24.1317 8.89619 23.2294C8.95108 23.0679 9.00645 22.9049 9.06394 22.7385C8.30485 20.526 7.83589 18.1724 7.55634 15.7723C7.27134 13.3247 7.18177 10.8328 7.18177 8.39479C7.18185 8.29483 7.21536 8.19777 7.27699 8.11905C7.33861 8.04034 7.42479 7.98451 7.52182 7.96045L21.3962 3.30046C21.488 3.26959 21.5874 3.26959 21.6793 3.30046L23.1629 3.79881C22.9332 2.90864 22.6498 2.03318 22.3143 1.17726Z" fill="#214692"/>
</svg>
