<svg width="25" height="25" viewBox="0 0 25 25" fill="none" xmlns="http://www.w3.org/2000/svg">
<path d="M23.3776 23.3788L16.1276 16.1288M1.62756 10.0871C1.62756 11.1979 1.84634 12.2978 2.27142 13.324C2.69649 14.3502 3.31952 15.2827 4.10495 16.0681C4.89038 16.8535 5.82282 17.4766 6.84903 17.9016C7.87525 18.3267 8.97513 18.5455 10.0859 18.5455C11.1967 18.5455 12.2965 18.3267 13.3228 17.9016C14.349 17.4766 15.2814 16.8535 16.0668 16.0681C16.8523 15.2827 17.4753 14.3502 17.9004 13.324C18.3255 12.2978 18.5442 11.1979 18.5442 10.0871C18.5442 8.97638 18.3255 7.8765 17.9004 6.85028C17.4753 5.82407 16.8523 4.89163 16.0668 4.1062C15.2814 3.32077 14.349 2.69774 13.3228 2.27267C12.2965 1.8476 11.1967 1.62881 10.0859 1.62881C8.97513 1.62881 7.87525 1.8476 6.84903 2.27267C5.82282 2.69774 4.89038 3.32077 4.10495 4.1062C3.31952 4.89163 2.69649 5.82407 2.27142 6.85028C1.84634 7.8765 1.62756 8.97638 1.62756 10.0871Z" stroke="white" stroke-width="2" stroke-linecap="round" stroke-linejoin="round"/>
</svg>
