<svg width="50" height="50" viewBox="0 0 50 50" fill="none" xmlns="http://www.w3.org/2000/svg">
<path d="M8.78906 17.7736C5.55752 17.7736 2.92969 15.1457 2.92969 11.9142C2.92969 8.68264 5.55752 6.05481 8.78906 6.05481C12.0206 6.05481 14.6484 8.68264 14.6484 11.9142C14.6484 15.1457 12.0206 17.7736 8.78906 17.7736Z" fill="white"/>
<path d="M41.2109 17.7736C37.9794 17.7736 35.3516 15.1457 35.3516 11.9142C35.3516 8.68264 37.9794 6.05481 41.2109 6.05481C44.4425 6.05481 47.0703 8.68264 47.0703 11.9142C47.0703 15.1457 44.4425 17.7736 41.2109 17.7736Z" fill="white"/>
<path d="M25.0001 14.6484C20.9617 14.6484 17.6759 11.3626 17.6759 7.32422C17.6759 3.28584 20.9617 0 25.0001 0C29.0385 0 32.3243 3.28584 32.3243 7.32422C32.3243 11.3626 29.0385 14.6484 25.0001 14.6484Z" fill="white"/>
<path d="M26.465 14.7964V24.9022C26.465 25.7119 25.8098 26.3671 25.0001 26.3671C24.1905 26.3671 23.5353 25.7119 23.5353 24.9022V14.7964C18.5792 15.5148 14.7462 19.7504 14.7462 24.9022V33.6913C14.7462 34.501 15.4014 35.1562 16.2111 35.1562H19.4927L20.6114 48.6581C20.6742 49.4162 21.3094 49.9999 22.0704 49.9999H27.9298C28.6908 49.9999 29.326 49.4162 29.3889 48.6581L30.5075 35.1562H33.7892C34.5989 35.1562 35.254 34.501 35.254 33.6913V24.9022C35.254 19.7504 31.421 15.5148 26.465 14.7964Z" fill="white"/>
<path d="M11.7188 33.8866V25.0975C11.7188 22.9018 12.3096 20.8614 13.2628 19.0387C11.9475 18.2536 10.4291 17.7733 8.78906 17.7733C3.94248 17.7733 0 21.7158 0 26.5624V33.8866C0 34.6963 0.655176 35.3514 1.46484 35.3514H3.06846L4.40166 48.6809C4.47607 49.4291 5.10693 49.9999 5.85938 49.9999H11.7188C12.4712 49.9999 13.1021 49.4291 13.1765 48.6809L14.2592 37.8564C12.7636 37.1546 11.7188 35.6451 11.7188 33.8866Z" fill="white"/>
<path d="M50.0001 26.5624C50.0001 21.7158 46.0577 17.7733 41.2111 17.7733C39.571 17.7733 38.0527 18.2536 36.7374 19.0387C37.6906 20.8614 38.2814 22.9018 38.2814 25.0975V33.8866C38.2814 35.6451 37.2366 37.1546 35.741 37.8564L36.8237 48.6809C36.8981 49.4291 37.529 49.9999 38.2814 49.9999H44.1408C44.8932 49.9999 45.5241 49.4291 45.5985 48.6809L46.9317 35.3514H48.5353C49.345 35.3514 50.0001 34.6963 50.0001 33.8866V26.5624Z" fill="white"/>
</svg>
