<svg width="40" height="39" viewBox="0 0 40 39" fill="none" xmlns="http://www.w3.org/2000/svg">
<path d="M37.55 8.45002V34.45H24.55V35.1C24.55 35.4448 24.413 35.7755 24.1692 36.0193C23.9254 36.2631 23.5947 36.4 23.25 36.4H16.75C16.4052 36.4 16.0745 36.2631 15.8307 36.0193C15.5869 35.7755 15.45 35.4448 15.45 35.1V34.45H2.44995V8.45002C2.44995 8.10524 2.58692 7.77458 2.83071 7.53079C3.07451 7.28699 3.40517 7.15002 3.74995 7.15002H36.25C36.5947 7.15002 36.9254 7.28699 37.1692 7.53079C37.413 7.77458 37.55 8.10524 37.55 8.45002Z" fill="#DBDBDB"/>
<path d="M34.3001 9.75H5.70005C5.34106 9.75 5.05005 10.041 5.05005 10.4V31.2C5.05005 31.559 5.34106 31.85 5.70005 31.85H34.3001C34.659 31.85 34.9501 31.559 34.9501 31.2V10.4C34.9501 10.041 34.659 9.75 34.3001 9.75Z" fill="#326CE2"/>
<path d="M24.5501 34.4501V35.1001C24.5501 35.4449 24.4131 35.7755 24.1693 36.0193C23.9255 36.2631 23.5949 36.4001 23.2501 36.4001H16.7501C16.4053 36.4001 16.0746 36.2631 15.8308 36.0193C15.5871 35.7755 15.4501 35.4449 15.4501 35.1001V34.4501H1.15009V35.7501C1.15009 36.4396 1.42401 37.101 1.91161 37.5886C2.3992 38.0761 3.06052 38.3501 3.75009 38.3501H36.2501C36.9397 38.3501 37.601 38.0761 38.0886 37.5886C38.5762 37.101 38.8501 36.4396 38.8501 35.7501V34.4501H24.5501Z" fill="#EAEAE8"/>
<path d="M2.44995 33.7999H15.45V34.4499H2.44995V33.7999Z" fill="#CBCBCB"/>
<path d="M24.5497 34.45V35.1C24.5497 35.4447 24.4127 35.7754 24.1689 36.0192C23.9251 36.263 23.5945 36.4 23.2497 36.4H16.7497C16.4049 36.4 16.0743 36.263 15.8305 36.0192C15.5867 35.7754 15.4497 35.4447 15.4497 35.1V34.45C15.4497 34.7947 15.5867 35.1254 15.8305 35.3692C16.0743 35.613 16.4049 35.75 16.7497 35.75H23.2497C23.5945 35.75 23.9251 35.613 24.1689 35.3692C24.4127 35.1254 24.5497 34.7947 24.5497 34.45Z" fill="#CBCBCB"/>
<path d="M24.5498 33.7998H37.5498V34.4498H24.5498V33.7998Z" fill="#CBCBCB"/>
<path d="M19.35 18.2C19.35 19.357 19.0069 20.488 18.3641 21.4501C17.7213 22.4121 16.8076 23.1619 15.7387 23.6047C14.6697 24.0474 13.4935 24.1633 12.3587 23.9376C11.2239 23.7118 10.1815 23.1547 9.36339 22.3366C8.54525 21.5184 7.9881 20.476 7.76237 19.3413C7.53665 18.2065 7.6525 17.0302 8.09527 15.9613C8.53804 14.8923 9.28785 13.9787 10.2499 13.3359C11.2119 12.6931 12.3429 12.35 13.5 12.35C15.0514 12.3501 16.5393 12.9665 17.6364 14.0635C18.7335 15.1606 19.3498 16.6485 19.35 18.2Z" fill="#FBB540"/>
<path d="M19.35 18.2H13.5V12.35C15.0515 12.3501 16.5394 12.9665 17.6364 14.0635C18.7335 15.1606 19.3499 16.6485 19.35 18.2Z" fill="#4799CF"/>
<path d="M19.3499 18.2C19.3497 19.197 19.0946 20.1775 18.609 21.0484C18.1233 21.9192 17.4232 22.6515 16.5751 23.1758C15.7269 23.7001 14.7589 23.9989 13.7628 24.044C12.7668 24.089 11.7757 23.8788 10.8837 23.4333L10.8999 23.4L13.4999 18.2H19.3499Z" fill="#DC4D41"/>
<path d="M20.6501 25.35H25.2001V29.25H20.6501V25.35Z" fill="#4799CF"/>
<path d="M24.55 24.0499H29.1V29.2499H24.55V24.0499Z" fill="#DC4D41"/>
<path d="M28.45 20.8H32.35V29.25H28.45V20.8Z" fill="#FBB540"/>
<path d="M27.1499 5.67583L25.8499 3.42422L23.6604 4.0505C23.0611 3.51639 22.3587 3.11062 21.5967 2.85816L21.045 0.650024H18.445L17.8929 2.85816C17.1308 3.11063 16.4285 3.51641 15.8291 4.0505L13.6396 3.42422L12.3396 5.67583L13.975 7.25711C13.8064 8.08038 13.8143 8.93004 13.9982 9.75002H25.4916C25.6755 8.93003 25.6833 8.08035 25.5145 7.25711L27.1499 5.67583ZM19.745 9.75002C19.4879 9.75002 19.2365 9.67378 19.0227 9.53094C18.8089 9.38809 18.6423 9.18506 18.5439 8.94751C18.4455 8.70997 18.4198 8.44858 18.4699 8.19641C18.5201 7.94423 18.6439 7.71259 18.8257 7.53079C19.0075 7.34898 19.2392 7.22516 19.4914 7.175C19.7435 7.12484 20.0049 7.15059 20.2425 7.24898C20.48 7.34738 20.683 7.514 20.8259 7.72778C20.9687 7.94157 21.045 8.19291 21.045 8.45002C21.045 8.79481 20.908 9.12547 20.6642 9.36926C20.4204 9.61306 20.0897 9.75002 19.745 9.75002Z" fill="#CDCDCD"/>
<path d="M22.6 22.1C23.318 22.1 23.9 21.518 23.9 20.8C23.9 20.082 23.318 19.5 22.6 19.5C21.8821 19.5 21.3 20.082 21.3 20.8C21.3 21.518 21.8821 22.1 22.6 22.1Z" fill="#FBB540"/>
<path d="M31.05 16.25C31.768 16.25 32.35 15.668 32.35 14.95C32.35 14.2321 31.768 13.65 31.05 13.65C30.332 13.65 29.75 14.2321 29.75 14.95C29.75 15.668 30.332 16.25 31.05 16.25Z" fill="#FBB540"/>
<path d="M26.5 18.2C27.2179 18.2 27.8 17.6179 27.8 16.9C27.8 16.182 27.2179 15.6 26.5 15.6C25.782 15.6 25.2 16.182 25.2 16.9C25.2 17.6179 25.782 18.2 26.5 18.2Z" fill="#FBB540"/>
<path d="M38.85 33.8H38.2V8.45C38.1994 7.93301 37.9938 7.43737 37.6282 7.07181C37.2626 6.70624 36.767 6.5006 36.25 6.5H27.2327L27.6018 6.14307C27.706 6.0423 27.7736 5.9096 27.7937 5.76605C27.8138 5.62249 27.7854 5.47633 27.7129 5.3508L26.4129 3.0992C26.3404 2.97366 26.2281 2.87595 26.0937 2.8216C25.9593 2.76724 25.8106 2.75937 25.6712 2.79922L23.8144 3.33036C23.3088 2.92699 22.7457 2.6016 22.1438 2.36503L21.6755 0.492375C21.6404 0.351741 21.5592 0.226893 21.445 0.137679C21.3307 0.0484647 21.1899 3.82781e-06 21.045 0H18.445C18.3 2.19462e-05 18.1592 0.0484912 18.045 0.137704C17.9307 0.226917 17.8496 0.351754 17.8145 0.492375L17.3463 2.36503C16.7443 2.60156 16.1812 2.92695 15.6756 3.33036L13.8187 2.79922C13.6794 2.75937 13.5307 2.76724 13.3963 2.8216C13.2619 2.87595 13.1496 2.97366 13.0771 3.0992L11.7771 5.3508C11.7046 5.47633 11.6762 5.62249 11.6963 5.76605C11.7164 5.9096 11.784 6.0423 11.8882 6.14307L12.2573 6.5H3.75C3.23301 6.5006 2.73737 6.70624 2.37181 7.07181C2.00624 7.43737 1.8006 7.93301 1.8 8.45V33.8H1.15C0.977609 33.8 0.812279 33.8685 0.690381 33.9904C0.568482 34.1123 0.5 34.2776 0.5 34.45V35.75C0.500968 36.6117 0.843688 37.4377 1.45297 38.047C2.06226 38.6563 2.88834 38.999 3.75 39H36.25C37.1117 38.999 37.9377 38.6563 38.547 38.047C39.1563 37.4377 39.499 36.6117 39.5 35.75V34.45C39.5 34.2776 39.4315 34.1123 39.3096 33.9904C39.1877 33.8685 39.0224 33.8 38.85 33.8ZM25.4925 10.4H25.4962H34.3L34.3008 31.2H5.7V10.4H25.4925ZM19.0951 8.45C19.0951 8.32144 19.1332 8.19577 19.2047 8.08888C19.2761 7.98199 19.3776 7.89867 19.4964 7.84948C19.6151 7.80028 19.7458 7.78741 19.8719 7.81249C19.998 7.83757 20.1138 7.89948 20.2047 7.99038C20.2956 8.08128 20.3575 8.1971 20.3826 8.32319C20.4077 8.44928 20.3948 8.57997 20.3456 8.69874C20.2964 8.81752 20.2131 8.91903 20.1062 8.99045C19.9993 9.06188 19.8737 9.1 19.7451 9.1C19.5728 9.09985 19.4075 9.03132 19.2856 8.90946C19.1637 8.7876 19.0953 8.62236 19.0951 8.45ZM13.9492 4.18868L15.6508 4.67537C15.7561 4.70549 15.8674 4.70848 15.9742 4.68408C16.081 4.65968 16.1799 4.60866 16.2618 4.53578C16.7944 4.06013 17.4191 3.69913 18.0972 3.47522C18.2012 3.44079 18.2949 3.38062 18.3694 3.30031C18.4439 3.21999 18.4969 3.12214 18.5235 3.01584L18.9524 1.3H20.5375L20.9669 3.01584C20.9935 3.12214 21.0465 3.21999 21.121 3.30031C21.1955 3.38062 21.2892 3.44079 21.3932 3.47522C22.0713 3.69913 22.696 4.06016 23.2285 4.53586C23.3104 4.60874 23.4093 4.65975 23.5162 4.68414C23.623 4.70853 23.7343 4.70551 23.8396 4.67537L25.5412 4.18868L26.3336 5.56132L25.0632 6.78982C24.9845 6.86591 24.9262 6.96064 24.8939 7.06524C24.8616 7.16984 24.8562 7.28091 24.8783 7.38814C24.9942 7.95125 25.0165 8.52964 24.9442 9.1H23.6319C23.6677 8.88519 23.6858 8.66778 23.686 8.45C23.689 7.57466 23.3976 6.72374 22.8587 6.03395C22.7529 5.89782 22.5974 5.80928 22.4263 5.78782C22.2553 5.76635 22.0827 5.81373 21.9465 5.91951C21.8104 6.02529 21.7219 6.18082 21.7004 6.35188C21.679 6.52295 21.7263 6.69553 21.8321 6.83166C22.1929 7.29376 22.3878 7.86374 22.3856 8.45C22.3859 8.66916 22.3589 8.8875 22.3053 9.1H21.5832C21.6873 8.80585 21.7194 8.49101 21.6766 8.18191C21.6338 7.87281 21.5175 7.57848 21.3374 7.32366C21.1573 7.06883 20.9187 6.86095 20.6416 6.71747C20.3645 6.57399 20.057 6.4991 19.745 6.4991C19.433 6.4991 19.1255 6.57399 18.8484 6.71747C18.5713 6.86095 18.3326 7.06883 18.1526 7.32366C17.9725 7.57848 17.8561 7.87281 17.8134 8.18191C17.7706 8.49101 17.8027 8.80585 17.9068 9.1H17.1847C17.0863 8.71023 17.0782 8.30315 17.1608 7.90975C17.2434 7.51634 17.4147 7.14695 17.6615 6.82968C17.9084 6.51241 18.2243 6.25561 18.5854 6.07881C18.9464 5.902 19.343 5.80986 19.745 5.80937C19.9173 5.80937 20.0827 5.74089 20.2046 5.61899C20.3265 5.4971 20.395 5.33177 20.395 5.15937C20.395 4.98698 20.3265 4.82165 20.2046 4.69976C20.0827 4.57786 19.9173 4.50937 19.745 4.50937C19.1724 4.5092 18.6067 4.63382 18.0873 4.87457C17.5678 5.11531 17.107 5.46639 16.7371 5.90337C16.3672 6.34034 16.0969 6.8527 15.9452 7.40476C15.7935 7.95683 15.7639 8.53534 15.8585 9.1H14.5458C14.4735 8.52957 14.4959 7.95111 14.6121 7.38798C14.6341 7.28077 14.6287 7.16973 14.5964 7.06517C14.564 6.9606 14.5058 6.86589 14.4271 6.78982L13.1566 5.56132L13.9492 4.18868ZM3.1 8.45C3.10019 8.27767 3.16874 8.11245 3.29059 7.99059C3.41245 7.86874 3.57767 7.80019 3.75 7.8H13.2375C13.216 8.01588 13.2043 8.23298 13.2043 8.45C13.2043 8.66702 13.2157 8.88428 13.2368 9.1H5.7C5.35534 9.10041 5.02492 9.2375 4.78121 9.48121C4.5375 9.72492 4.40041 10.0553 4.4 10.4V31.2C4.40041 31.5447 4.5375 31.8751 4.78121 32.1188C5.02492 32.3625 5.35534 32.4996 5.7 32.5H34.3C34.6447 32.4996 34.9751 32.3625 35.2188 32.1188C35.4625 31.8751 35.5996 31.5447 35.6 31.2V10.4C35.5996 10.0553 35.4625 9.72492 35.2188 9.48121C34.9751 9.2375 34.6447 9.10041 34.3 9.1H26.2529C26.2743 8.88436 26.2854 8.66734 26.2854 8.45C26.2854 8.23266 26.2738 8.0158 26.2524 7.8H36.25C36.4223 7.80019 36.5875 7.86874 36.7094 7.99059C36.8313 8.11245 36.8998 8.27767 36.9 8.45V33.8H24.55C24.3776 33.8 24.2123 33.8685 24.0904 33.9904C23.9685 34.1123 23.9 34.2776 23.9 34.45V35.1C23.8998 35.2723 23.8313 35.4375 23.7094 35.5594C23.5875 35.6813 23.4223 35.7498 23.25 35.75H16.75C16.5777 35.7498 16.4125 35.6813 16.2906 35.5594C16.1687 35.4375 16.1002 35.2723 16.1 35.1V34.45C16.1 34.2776 16.0315 34.1123 15.9096 33.9904C15.7877 33.8685 15.6224 33.8 15.45 33.8H3.1V8.45ZM38.2 35.75C38.1994 36.267 37.9938 36.7626 37.6282 37.1282C37.2626 37.4938 36.767 37.6994 36.25 37.7H3.75C3.23301 37.6994 2.73737 37.4938 2.37181 37.1282C2.00624 36.7626 1.8006 36.267 1.8 35.75V35.1H14.8C14.8006 35.617 15.0062 36.1126 15.3718 36.4782C15.7374 36.8438 16.233 37.0494 16.75 37.05H23.25C23.767 37.0494 24.2626 36.8438 24.6282 36.4782C24.9938 36.1126 25.1994 35.617 25.2 35.1H38.2V35.75Z" fill="black"/>
<path d="M13.5 24.7C14.7856 24.7 16.0423 24.3187 17.1112 23.6045C18.1801 22.8903 19.0132 21.8751 19.5052 20.6874C19.9972 19.4997 20.1259 18.1927 19.8751 16.9319C19.6243 15.671 19.0052 14.5128 18.0962 13.6038C17.1872 12.6947 16.029 12.0757 14.7681 11.8248C13.5072 11.574 12.2003 11.7028 11.0126 12.1947C9.82484 12.6867 8.80968 13.5198 8.09545 14.5887C7.38122 15.6577 7 16.9144 7 18.2C7.00196 19.9233 7.6874 21.5754 8.90597 22.794C10.1245 24.0125 11.7767 24.698 13.5 24.7ZM13.5 23.4C12.9122 23.4001 12.3287 23.3002 11.7745 23.1044L13.9017 18.85H18.6579C18.4983 20.1058 17.8866 21.2604 16.9372 22.0979C15.9879 22.9353 14.7659 23.3982 13.5 23.4ZM18.6579 17.55H14.15V13.042C15.2946 13.1879 16.3584 13.7098 17.1743 14.5257C17.9902 15.3416 18.512 16.4053 18.6579 17.55ZM12.85 13.042V18.0465L10.6122 22.522C9.73068 21.9336 9.05008 21.0898 8.66167 20.1037C8.27325 19.1177 8.19558 18.0364 8.43907 17.0049C8.68255 15.9734 9.23556 15.041 10.0239 14.3327C10.8123 13.6244 11.7984 13.1741 12.85 13.042Z" fill="black"/>
<path d="M20 29.25C20 29.4224 20.0685 29.5877 20.1904 29.7096C20.3123 29.8315 20.4776 29.9 20.65 29.9H32.35C32.5224 29.9 32.6877 29.8315 32.8096 29.7096C32.9315 29.5877 33 29.4224 33 29.25V20.8C33 20.6276 32.9315 20.4623 32.8096 20.3404C32.6877 20.2185 32.5224 20.15 32.35 20.15H28.45C28.2776 20.15 28.1123 20.2185 27.9904 20.3404C27.8685 20.4623 27.8 20.6276 27.8 20.8V23.4H24.55C24.3776 23.4 24.2123 23.4685 24.0904 23.5904C23.9685 23.7123 23.9 23.8776 23.9 24.05V24.7H20.65C20.4776 24.7 20.3123 24.7685 20.1904 24.8904C20.0685 25.0123 20 25.1776 20 25.35V29.25ZM29.1 21.45H31.7V28.6H29.1V21.45ZM25.2 24.7H27.8V28.6H25.2V24.7ZM21.3 26H23.9V28.6H21.3V26Z" fill="black"/>
<path d="M8.30005 26H12.2V27.3H8.30005V26Z" fill="black"/>
<path d="M8.30005 28.6H14.15V29.9H8.30005V28.6Z" fill="black"/>
<path d="M15.45 28.6H18.05V29.9H15.45V28.6Z" fill="black"/>
<path d="M13.5 26H18.05V27.3H13.5V26Z" fill="black"/>
<path d="M22.6001 22.75C22.9295 22.7501 23.2535 22.6667 23.542 22.5076C23.8304 22.3486 24.0739 22.119 24.2496 21.8404C24.4253 21.5617 24.5275 21.2431 24.5467 20.9143C24.566 20.5854 24.5016 20.2571 24.3595 19.9599L25.6595 18.6599L25.659 18.6594C25.9563 18.8016 26.2847 18.8661 26.6137 18.847C26.9426 18.8279 27.2614 18.7257 27.5401 18.55C27.8189 18.3742 28.0485 18.1307 28.2076 17.8422C28.3668 17.5537 28.4502 17.2295 28.4501 16.9C28.4499 16.8196 28.4447 16.7392 28.4347 16.6594L29.4974 16.128C29.7751 16.4936 30.1728 16.7494 30.6205 16.8504C31.0683 16.9514 31.5373 16.8912 31.945 16.6804C32.3527 16.4695 32.6729 16.1215 32.8492 15.6977C33.0255 15.2739 33.0466 14.8015 32.9087 14.3637C32.7708 13.9259 32.4829 13.5508 32.0956 13.3044C31.7083 13.0581 31.2465 12.9564 30.7915 13.0172C30.3365 13.0779 29.9176 13.2973 29.6086 13.6367C29.2995 13.976 29.1201 14.4136 29.102 14.8722L27.8524 15.4971C27.5236 15.1796 27.0938 14.9877 26.6379 14.955C26.1821 14.9223 25.7292 15.0508 25.3585 15.3181C24.9877 15.5854 24.7227 15.9745 24.6098 16.4173C24.4968 16.8602 24.5431 17.3286 24.7405 17.7408L24.74 17.7404L23.44 19.0404C23.1759 18.9142 22.8868 18.8492 22.5941 18.85C22.3014 18.8508 22.0126 18.9176 21.7492 19.0452C21.4858 19.1729 21.2545 19.3582 21.0725 19.5874C20.8905 19.8166 20.7624 20.0839 20.6978 20.3694C20.6332 20.6548 20.6336 20.9512 20.6991 21.2365C20.7646 21.5217 20.8935 21.7886 21.0763 22.0173C21.259 22.2459 21.4908 22.4305 21.7546 22.5574C22.0184 22.6842 22.3074 22.75 22.6001 22.75ZM31.0501 14.3C31.1786 14.3 31.3043 14.3381 31.4112 14.4095C31.5181 14.481 31.6014 14.5825 31.6506 14.7012C31.6998 14.82 31.7126 14.9507 31.6876 15.0768C31.6625 15.2029 31.6006 15.3187 31.5097 15.4096C31.4188 15.5005 31.3029 15.5624 31.1769 15.5875C31.0508 15.6126 30.9201 15.5997 30.8013 15.5505C30.6825 15.5013 30.581 15.418 30.5096 15.3111C30.4382 15.2042 30.4001 15.0785 30.4001 14.95C30.4002 14.7777 30.4688 14.6124 30.5906 14.4906C30.7125 14.3687 30.8777 14.3002 31.0501 14.3ZM26.5001 16.25C26.6286 16.25 26.7543 16.2881 26.8612 16.3595C26.9681 16.431 27.0514 16.5325 27.1006 16.6512C27.1498 16.77 27.1626 16.9007 27.1376 17.0268C27.1125 17.1529 27.0506 17.2687 26.9597 17.3596C26.8688 17.4505 26.7529 17.5124 26.6269 17.5375C26.5008 17.5626 26.3701 17.5497 26.2513 17.5005C26.1325 17.4513 26.031 17.368 25.9596 17.2611C25.8882 17.1542 25.8501 17.0285 25.8501 16.9C25.8502 16.7277 25.9188 16.5624 26.0406 16.4406C26.1625 16.3187 26.3277 16.2502 26.5001 16.25ZM22.6001 20.15C22.7286 20.15 22.8543 20.1881 22.9612 20.2595C23.0681 20.331 23.1514 20.4325 23.2006 20.5512C23.2498 20.67 23.2626 20.8007 23.2376 20.9268C23.2125 21.0529 23.1506 21.1687 23.0597 21.2596C22.9688 21.3505 22.8529 21.4124 22.7269 21.4375C22.6008 21.4626 22.4701 21.4497 22.3513 21.4005C22.2325 21.3513 22.131 21.268 22.0596 21.1611C21.9882 21.0542 21.9501 20.9285 21.9501 20.8C21.9502 20.6277 22.0188 20.4624 22.1406 20.3406C22.2625 20.2187 22.4277 20.1502 22.6001 20.15Z" fill="black"/>
</svg>
