<svg width="16" height="13" viewBox="0 0 16 13" fill="none" xmlns="http://www.w3.org/2000/svg">
<path d="M15.426 2.20018C14.8822 2.44741 14.2959 2.60987 13.6884 2.68757C14.31 2.3132 14.7903 1.71986 15.0164 1.00645C14.4301 1.35962 13.7802 1.60685 13.0951 1.74812C12.5371 1.14066 11.753 0.78748 10.863 0.78748C9.20309 0.78748 7.84689 2.14368 7.84689 3.81773C7.84689 4.05789 7.87515 4.29098 7.92459 4.50995C5.40998 4.38281 3.17084 3.17495 1.68044 1.3455C1.41909 1.7905 1.27076 2.3132 1.27076 2.86415C1.27076 3.91662 1.80052 4.849 2.61989 5.37876C2.11838 5.37876 1.65219 5.23749 1.24251 5.02559V5.04678C1.24251 6.51599 2.28791 7.74504 3.67235 8.02052C3.22794 8.14267 2.76119 8.1596 2.3091 8.06996C2.50095 8.67211 2.87668 9.199 3.38347 9.57656C3.89026 9.95412 4.50263 10.1634 5.1345 10.1749C4.06344 11.0229 2.73574 11.4812 1.36965 11.4746C1.12949 11.4746 0.889329 11.4605 0.64917 11.4322C1.99124 12.2939 3.58759 12.7955 5.29696 12.7955C10.863 12.7955 13.9215 8.17592 13.9215 4.1709C13.9215 4.0367 13.9215 3.90955 13.9144 3.77535C14.5078 3.35154 15.0164 2.81471 15.426 2.20018Z" fill="#BCBCBC"/>
</svg>
