<svg width="57" height="53" viewBox="0 0 57 53" fill="none" xmlns="http://www.w3.org/2000/svg">
<rect width="57.0025" height="53.0076" rx="4" fill="#326CE2"/>
<path d="M10.248 8.33304L25.2733 42.1756C28.8492 34.9047 32.281 27.5576 35.8393 20.2766C36.2746 19.3842 36.7908 18.1411 37.2945 17.3352C37.3881 17.1852 37.3704 17.2208 37.5653 17.2309C33.7995 25.0738 30.0969 32.9522 26.2704 40.7646C26.0578 41.1968 25.3441 42.1959 25.415 42.6103C25.5061 43.1467 26.0553 43.8433 26.1438 44.4204L43.9403 8L44.1023 8.04068C43.9352 8.52116 43.7226 8.98131 43.5126 9.444C41.3791 14.0989 38.899 18.7258 36.6668 23.3552C35.5229 25.7246 34.3765 28.0965 33.2958 30.4939L35.0927 34.559L35.2876 34.6098L44.0213 16.3589V15.07H44.1048V42.3027C44.1048 42.8467 44.9298 43.6755 45.4714 43.6755H47.0025V43.9246H38.6434V43.6755H40.091C40.3036 43.6755 40.9894 43.3399 41.1666 43.1772C41.7562 42.6306 41.4601 42.2772 41.4525 41.6442C41.3715 35.2835 41.5209 28.9177 41.4551 22.557L35.3685 35.0216L37.4817 40.0172L37.2337 40.1011L33.1339 30.8727L26.2628 45.0076L10 8.16525H16.208V8.33049H10.248V8.33304Z" fill="white"/>
<path d="M15.3033 7.26606C15.3306 7.57564 15.3228 7.46638 15.1123 7.49916C13.6346 7.74682 12.6716 8.0564 13.389 9.70629L27.7761 39.987L25.6316 44.547L9.14302 9.74271C8.4802 8.60272 8.24627 8.65007 7.17796 8.00905C7.04929 7.93257 6.95182 8.02362 7.0142 7.74318H11.7319V7.62299H6.56582C6.2851 7.62299 5.64177 7.37532 5.22849 7.5028V7.26606H15.3033Z" fill="white"/>
</svg>
